<mxfile host="app.diagrams.net" agent="Mozilla/5.0 (Windows NT 10.0; Win64; x64) AppleWebKit/537.36 (KHTML, like Gecko) Chrome/140.0.0.0 Safari/537.36 Edg/140.0.0.0" version="28.2.5">
  <diagram name="第 1 页" id="EZ_87vnwjkrmTe5BWgvO">
    <mxGraphModel dx="2245" dy="786" grid="1" gridSize="10" guides="1" tooltips="1" connect="1" arrows="1" fold="1" page="1" pageScale="1" pageWidth="827" pageHeight="1169" math="0" shadow="0">
      <root>
        <mxCell id="0" />
        <mxCell id="1" parent="0" />
        <mxCell id="CCDfUm1BeuJQhzfp21ur-1" value="" style="edgeStyle=orthogonalEdgeStyle;rounded=0;orthogonalLoop=1;jettySize=auto;html=1;" parent="1" source="CCDfUm1BeuJQhzfp21ur-3" target="CCDfUm1BeuJQhzfp21ur-33" edge="1">
          <mxGeometry relative="1" as="geometry" />
        </mxCell>
        <mxCell id="CCDfUm1BeuJQhzfp21ur-2" value="一般都是执行一个跳转指定，比如&amp;nbsp;&lt;span style=&quot;font-size: 12px; text-wrap-mode: wrap; background-color: rgb(236, 236, 236);&quot;&gt;jmp 0xf000:0xe05b&lt;/span&gt;" style="edgeLabel;html=1;align=center;verticalAlign=middle;resizable=0;points=[];" parent="CCDfUm1BeuJQhzfp21ur-1" vertex="1" connectable="0">
          <mxGeometry x="0.1" y="-1" relative="1" as="geometry">
            <mxPoint as="offset" />
          </mxGeometry>
        </mxCell>
        <mxCell id="CCDfUm1BeuJQhzfp21ur-3" value="寄存器DS =&amp;gt; 0xFFFF&lt;div&gt;寄存器IP =&amp;gt; 0x0000&lt;/div&gt;" style="rounded=0;whiteSpace=wrap;html=1;" parent="1" vertex="1">
          <mxGeometry x="460" y="110" width="120" height="60" as="geometry" />
        </mxCell>
        <mxCell id="CCDfUm1BeuJQhzfp21ur-4" value="" style="endArrow=classic;html=1;rounded=0;" parent="1" edge="1">
          <mxGeometry width="50" height="50" relative="1" as="geometry">
            <mxPoint x="390" y="140" as="sourcePoint" />
            <mxPoint x="460" y="139.5" as="targetPoint" />
          </mxGeometry>
        </mxCell>
        <mxCell id="CCDfUm1BeuJQhzfp21ur-5" value="加电" style="text;html=1;align=center;verticalAlign=middle;whiteSpace=wrap;rounded=0;" parent="1" vertex="1">
          <mxGeometry x="330" y="125" width="60" height="30" as="geometry" />
        </mxCell>
        <mxCell id="CCDfUm1BeuJQhzfp21ur-6" value="" style="shape=table;startSize=0;container=1;collapsible=0;childLayout=tableLayout;" parent="1" vertex="1">
          <mxGeometry x="-520" y="70" width="130" height="120" as="geometry" />
        </mxCell>
        <mxCell id="CCDfUm1BeuJQhzfp21ur-7" value="" style="shape=tableRow;horizontal=0;startSize=0;swimlaneHead=0;swimlaneBody=0;strokeColor=inherit;top=0;left=0;bottom=0;right=0;collapsible=0;dropTarget=0;fillColor=none;points=[[0,0.5],[1,0.5]];portConstraint=eastwest;" parent="CCDfUm1BeuJQhzfp21ur-6" vertex="1">
          <mxGeometry width="130" height="40" as="geometry" />
        </mxCell>
        <mxCell id="CCDfUm1BeuJQhzfp21ur-8" value="0xF0000 - 0xFFFFF" style="shape=partialRectangle;html=1;whiteSpace=wrap;connectable=0;strokeColor=inherit;overflow=hidden;fillColor=none;top=0;left=0;bottom=0;right=0;pointerEvents=1;" parent="CCDfUm1BeuJQhzfp21ur-7" vertex="1">
          <mxGeometry width="130" height="40" as="geometry">
            <mxRectangle width="130" height="40" as="alternateBounds" />
          </mxGeometry>
        </mxCell>
        <mxCell id="CCDfUm1BeuJQhzfp21ur-9" value="" style="shape=tableRow;horizontal=0;startSize=0;swimlaneHead=0;swimlaneBody=0;strokeColor=inherit;top=0;left=0;bottom=0;right=0;collapsible=0;dropTarget=0;fillColor=none;points=[[0,0.5],[1,0.5]];portConstraint=eastwest;" parent="CCDfUm1BeuJQhzfp21ur-6" vertex="1">
          <mxGeometry y="40" width="130" height="40" as="geometry" />
        </mxCell>
        <mxCell id="CCDfUm1BeuJQhzfp21ur-10" value="0xA0000 - 0xEFFFF" style="shape=partialRectangle;html=1;whiteSpace=wrap;connectable=0;strokeColor=inherit;overflow=hidden;fillColor=none;top=0;left=0;bottom=0;right=0;pointerEvents=1;" parent="CCDfUm1BeuJQhzfp21ur-9" vertex="1">
          <mxGeometry width="130" height="40" as="geometry">
            <mxRectangle width="130" height="40" as="alternateBounds" />
          </mxGeometry>
        </mxCell>
        <mxCell id="CCDfUm1BeuJQhzfp21ur-11" value="" style="shape=tableRow;horizontal=0;startSize=0;swimlaneHead=0;swimlaneBody=0;strokeColor=inherit;top=0;left=0;bottom=0;right=0;collapsible=0;dropTarget=0;fillColor=none;points=[[0,0.5],[1,0.5]];portConstraint=eastwest;" parent="CCDfUm1BeuJQhzfp21ur-6" vertex="1">
          <mxGeometry y="80" width="130" height="40" as="geometry" />
        </mxCell>
        <mxCell id="CCDfUm1BeuJQhzfp21ur-12" value="0x00000 - 0x9FFFF" style="shape=partialRectangle;html=1;whiteSpace=wrap;connectable=0;strokeColor=inherit;overflow=hidden;fillColor=none;top=0;left=0;bottom=0;right=0;pointerEvents=1;" parent="CCDfUm1BeuJQhzfp21ur-11" vertex="1">
          <mxGeometry width="130" height="40" as="geometry">
            <mxRectangle width="130" height="40" as="alternateBounds" />
          </mxGeometry>
        </mxCell>
        <mxCell id="CCDfUm1BeuJQhzfp21ur-13" value="" style="shape=curlyBracket;whiteSpace=wrap;html=1;rounded=1;labelPosition=left;verticalLabelPosition=middle;align=right;verticalAlign=middle;" parent="1" vertex="1">
          <mxGeometry x="-550" y="70" width="20" height="120" as="geometry" />
        </mxCell>
        <mxCell id="CCDfUm1BeuJQhzfp21ur-14" value="也就是说加电后执行的第一条指定在0xFFFF0上" style="whiteSpace=wrap;html=1;rounded=1;arcSize=50;align=center;verticalAlign=middle;strokeWidth=1;autosize=1;spacing=4;treeFolding=1;treeMoving=1;newEdgeStyle={&quot;edgeStyle&quot;:&quot;entityRelationEdgeStyle&quot;,&quot;startArrow&quot;:&quot;none&quot;,&quot;endArrow&quot;:&quot;none&quot;,&quot;segment&quot;:10,&quot;curved&quot;:1,&quot;sourcePerimeterSpacing&quot;:0,&quot;targetPerimeterSpacing&quot;:0};" parent="1" vertex="1">
          <mxGeometry x="610" y="80" width="300" height="30" as="geometry" />
        </mxCell>
        <mxCell id="CCDfUm1BeuJQhzfp21ur-15" value="" style="edgeStyle=entityRelationEdgeStyle;startArrow=none;endArrow=none;segment=10;curved=1;sourcePerimeterSpacing=0;targetPerimeterSpacing=0;rounded=0;exitX=1;exitY=0.25;exitDx=0;exitDy=0;" parent="1" source="CCDfUm1BeuJQhzfp21ur-3" target="CCDfUm1BeuJQhzfp21ur-14" edge="1">
          <mxGeometry relative="1" as="geometry">
            <mxPoint x="660" y="182" as="sourcePoint" />
          </mxGeometry>
        </mxCell>
        <mxCell id="CCDfUm1BeuJQhzfp21ur-16" value="8086内存划分布局图" style="text;html=1;align=center;verticalAlign=middle;whiteSpace=wrap;rounded=0;" parent="1" vertex="1">
          <mxGeometry x="-610" y="115" width="60" height="30" as="geometry" />
        </mxCell>
        <mxCell id="CCDfUm1BeuJQhzfp21ur-17" value="8086是16位处理器，但是其地址总线有20位。因此能访问的最大内存是1MB" style="whiteSpace=wrap;html=1;rounded=1;arcSize=50;align=center;verticalAlign=middle;strokeWidth=1;autosize=1;spacing=4;treeFolding=1;treeMoving=1;newEdgeStyle={&quot;edgeStyle&quot;:&quot;entityRelationEdgeStyle&quot;,&quot;startArrow&quot;:&quot;none&quot;,&quot;endArrow&quot;:&quot;none&quot;,&quot;segment&quot;:10,&quot;curved&quot;:1,&quot;sourcePerimeterSpacing&quot;:0,&quot;targetPerimeterSpacing&quot;:0};" parent="1" vertex="1">
          <mxGeometry x="-820" y="160" width="200" height="60" as="geometry" />
        </mxCell>
        <mxCell id="CCDfUm1BeuJQhzfp21ur-18" value="" style="edgeStyle=entityRelationEdgeStyle;startArrow=none;endArrow=none;segment=10;curved=1;sourcePerimeterSpacing=0;targetPerimeterSpacing=0;rounded=0;exitX=0.5;exitY=1;exitDx=0;exitDy=0;" parent="1" source="CCDfUm1BeuJQhzfp21ur-16" target="CCDfUm1BeuJQhzfp21ur-17" edge="1">
          <mxGeometry relative="1" as="geometry">
            <mxPoint x="-590" y="180" as="sourcePoint" />
          </mxGeometry>
        </mxCell>
        <mxCell id="CCDfUm1BeuJQhzfp21ur-19" value="" style="endArrow=classic;html=1;rounded=0;" parent="1" edge="1">
          <mxGeometry width="50" height="50" relative="1" as="geometry">
            <mxPoint x="-390" y="100" as="sourcePoint" />
            <mxPoint x="-350" y="60" as="targetPoint" />
          </mxGeometry>
        </mxCell>
        <mxCell id="CCDfUm1BeuJQhzfp21ur-20" value="" style="endArrow=classic;html=1;rounded=0;" parent="1" edge="1">
          <mxGeometry width="50" height="50" relative="1" as="geometry">
            <mxPoint x="-390" y="129.5" as="sourcePoint" />
            <mxPoint x="-330" y="129.5" as="targetPoint" />
          </mxGeometry>
        </mxCell>
        <mxCell id="CCDfUm1BeuJQhzfp21ur-21" value="" style="endArrow=classic;html=1;rounded=0;" parent="1" edge="1">
          <mxGeometry width="50" height="50" relative="1" as="geometry">
            <mxPoint x="-390" y="170" as="sourcePoint" />
            <mxPoint x="-350" y="210" as="targetPoint" />
          </mxGeometry>
        </mxCell>
        <mxCell id="CCDfUm1BeuJQhzfp21ur-22" value="映射到ROM，以便能执行指令(64KB)" style="text;html=1;align=center;verticalAlign=middle;whiteSpace=wrap;rounded=0;" parent="1" vertex="1">
          <mxGeometry x="-350" y="40" width="170" height="30" as="geometry" />
        </mxCell>
        <mxCell id="CCDfUm1BeuJQhzfp21ur-23" value="映射到外部设备，比如显卡内存等(320KB)" style="text;html=1;align=center;verticalAlign=middle;whiteSpace=wrap;rounded=0;" parent="1" vertex="1">
          <mxGeometry x="-330" y="115" width="190" height="30" as="geometry" />
        </mxCell>
        <mxCell id="CCDfUm1BeuJQhzfp21ur-24" value="映射到内存条(640KB)" style="text;html=1;align=center;verticalAlign=middle;whiteSpace=wrap;rounded=0;" parent="1" vertex="1">
          <mxGeometry x="-350" y="200" width="170" height="30" as="geometry" />
        </mxCell>
        <mxCell id="CCDfUm1BeuJQhzfp21ur-25" value="其中，BIOS系统启动的默认显示模式中，&lt;div&gt;映射到的内存地址为0xB8000 - 0xBFFFF&lt;/div&gt;" style="whiteSpace=wrap;html=1;rounded=1;arcSize=50;align=center;verticalAlign=middle;strokeWidth=1;autosize=1;spacing=4;treeFolding=1;treeMoving=1;newEdgeStyle={&quot;edgeStyle&quot;:&quot;entityRelationEdgeStyle&quot;,&quot;startArrow&quot;:&quot;none&quot;,&quot;endArrow&quot;:&quot;none&quot;,&quot;segment&quot;:10,&quot;curved&quot;:1,&quot;sourcePerimeterSpacing&quot;:0,&quot;targetPerimeterSpacing&quot;:0};" parent="1" vertex="1">
          <mxGeometry x="-130" y="60" width="270" height="50" as="geometry" />
        </mxCell>
        <mxCell id="CCDfUm1BeuJQhzfp21ur-26" value="" style="edgeStyle=entityRelationEdgeStyle;startArrow=none;endArrow=none;segment=10;curved=1;sourcePerimeterSpacing=0;targetPerimeterSpacing=0;rounded=0;" parent="1" target="CCDfUm1BeuJQhzfp21ur-25" edge="1">
          <mxGeometry relative="1" as="geometry">
            <mxPoint x="-150" y="122" as="sourcePoint" />
          </mxGeometry>
        </mxCell>
        <mxCell id="CCDfUm1BeuJQhzfp21ur-27" value="" style="edgeStyle=orthogonalEdgeStyle;rounded=0;orthogonalLoop=1;jettySize=auto;html=1;" parent="1" source="CCDfUm1BeuJQhzfp21ur-28" target="CCDfUm1BeuJQhzfp21ur-25" edge="1">
          <mxGeometry relative="1" as="geometry" />
        </mxCell>
        <mxCell id="CCDfUm1BeuJQhzfp21ur-28" value="默认的显示模式为80*25文本模式，也就是一行显示80个字符，可以显示25行" style="rounded=1;whiteSpace=wrap;html=1;" parent="1" vertex="1">
          <mxGeometry x="-110" y="160" width="230" height="60" as="geometry" />
        </mxCell>
        <mxCell id="CCDfUm1BeuJQhzfp21ur-29" value="" style="edgeStyle=orthogonalEdgeStyle;rounded=0;orthogonalLoop=1;jettySize=auto;html=1;" parent="1" source="CCDfUm1BeuJQhzfp21ur-30" target="CCDfUm1BeuJQhzfp21ur-14" edge="1">
          <mxGeometry relative="1" as="geometry" />
        </mxCell>
        <mxCell id="CCDfUm1BeuJQhzfp21ur-30" value="由于指令从0xFFFF0开始，只有区区16字节可用，因此一般在这个地址上都是一个跳转指令" style="rounded=1;whiteSpace=wrap;html=1;" parent="1" vertex="1">
          <mxGeometry x="635" y="145" width="250" height="45" as="geometry" />
        </mxCell>
        <mxCell id="CCDfUm1BeuJQhzfp21ur-31" value="" style="edgeStyle=orthogonalEdgeStyle;rounded=0;orthogonalLoop=1;jettySize=auto;html=1;" parent="1" source="CCDfUm1BeuJQhzfp21ur-33" target="CCDfUm1BeuJQhzfp21ur-36" edge="1">
          <mxGeometry relative="1" as="geometry" />
        </mxCell>
        <mxCell id="CCDfUm1BeuJQhzfp21ur-32" value="自检没有问题" style="edgeLabel;html=1;align=center;verticalAlign=middle;resizable=0;points=[];" parent="CCDfUm1BeuJQhzfp21ur-31" vertex="1" connectable="0">
          <mxGeometry x="-0.1364" y="2" relative="1" as="geometry">
            <mxPoint as="offset" />
          </mxGeometry>
        </mxCell>
        <mxCell id="CCDfUm1BeuJQhzfp21ur-33" value="进行一些开机自检指令，开机自检" style="rounded=0;whiteSpace=wrap;html=1;" parent="1" vertex="1">
          <mxGeometry x="422.5" y="270" width="195" height="60" as="geometry" />
        </mxCell>
        <mxCell id="CCDfUm1BeuJQhzfp21ur-34" value="" style="edgeStyle=orthogonalEdgeStyle;rounded=0;orthogonalLoop=1;jettySize=auto;html=1;" parent="1" source="CCDfUm1BeuJQhzfp21ur-36" target="CCDfUm1BeuJQhzfp21ur-41" edge="1">
          <mxGeometry relative="1" as="geometry" />
        </mxCell>
        <mxCell id="CCDfUm1BeuJQhzfp21ur-35" value="加载完成" style="edgeLabel;html=1;align=center;verticalAlign=middle;resizable=0;points=[];" parent="CCDfUm1BeuJQhzfp21ur-34" vertex="1" connectable="0">
          <mxGeometry x="-0.0278" relative="1" as="geometry">
            <mxPoint as="offset" />
          </mxGeometry>
        </mxCell>
        <mxCell id="CCDfUm1BeuJQhzfp21ur-36" value="加载磁盘主引导区到0x0000:0x7c00(也就是0x07c00)这个内存地址" style="rounded=0;whiteSpace=wrap;html=1;" parent="1" vertex="1">
          <mxGeometry x="340" y="400" width="360" height="30" as="geometry" />
        </mxCell>
        <mxCell id="CCDfUm1BeuJQhzfp21ur-37" value="" style="shape=image;verticalLabelPosition=bottom;labelBackgroundColor=default;verticalAlign=top;aspect=fixed;imageAspect=0;image=data:image/jpeg,/9j/4AAQSkZJRgABAQAAAQABAAD//gAXR2VuZXJhdGVkIGJ5IFNuaXBhc3Rl/9sAQwAKBwcIBwYKCAgICwoKCw4YEA4NDQ4dFRYRGCMfJSQiHyIhJis3LyYpNCkhIjBBMTQ5Oz4+PiUuRElDPEg3PT47/8AACwgB7QLRAQERAP/EANIAAAEFAQEBAQEBAAAAAAAAAAABAgMEBQYHCAkKCxAAAgEDAwIEAwUFBAQAAAF9AQIDAAQRBRIhMUEGE1FhByJxFDKBkaEII0KxwRVS0fAkM2JyggkKFhcYGRolJicoKSo0NTY3ODk6Q0RFRkdISUpTVFVWV1hZWmNkZWZnaGlqc3R1dnd4eXqDhIWGh4iJipKTlJWWl5iZmqKjpKWmp6ipqrKztLW2t7i5usLDxMXGx8jJytLT1NXW19jZ2uHi4+Tl5ufo6erx8vP09fb3+Pn6/9oACAEBAAA/APZqKKKKKKKKKKKKKKKKKKKKKKKKKKKKKKKKKKKKKKKKKKKKKKKKKKKKKKKKKKKKKKKKKKKKKKKKKKKKKKKKKKKKKKKKKKKKKKKKKKKKKKKKKKKKKKKKKKKKKKKKKKKKKKKKKKKKKKKKKKKKKKKKKKKKKKKKKKKKKKKKKKKKKKKKKKKKKKKKKKKKKKKKKKKKSlopKKKWiiiiikopaKSiilpKWiikopaKKKKKKKSilopKKWiiiiiiiiikopaKSjFFFLRSUUtFFFFFJRS0UUUUUUUUUUUUUUUUUUUUUUUlLSdaKMUYopaKKKKKSlopO9FApaKQ0ClopMUmDSiiilopKKWiiiiiikpaSlopKQ5pc4HJqN544xl2Cj1Jqu2raen3r6Af8DFR/wBuaZ/z+xf99CnprGnOcLfQE/8AXQVajlSVcxurj1U5pc4Oc8U4EHvmlooooooooooooooooooooooooooooooooopKKKQsFHJpEkVyQGBKnBwc4PoaN4/Pp70iSLINyurL6g5FPoFLRRRRRSd6CcVDdXkFlbm4uZFjiXq7dBWc/inSEz/panAQjj7wZtoI9s5z6AZq7c6laWaxPcXEcSTNtjZj8rH0z0o07UYNTsYry2JMUwJUkYPBx0/CrVFFFGar3uoW2nQ+ddzJDHnG5zgVRPibSvNEQulLmRY8dOWGR17YHWrF7q9lpwT7VOsZdWZAf4wBk49TjtUtvf29zp6X0bnyHiEoJGPlIz/KsuTxpoEa7vt6v8qPtRSTtY4B+nUn2BrXtbqG9t0uLaUSRSDKsOhFTUtFFFFFFFJRS0UlITjqahuL23tU33Eyxr6setY1z4ozlbK2LDtLKcKfoOprLn1TUbo4e7ZQeixfL+o5qk4jB8yUhv8AbkOT+ZqE6ppyyrB9ttvMY4CCQFj+VR3Ot6VYXDW13qEFvKoyUkbkVJa6hY6gStpdQ3WzlvLbOKlQwyHdEyMR3jIyPxFXYtQ1C2P7q6fA/hl+cH8+a07XxQwGLu2wO7xHI/Ktq1v7a9TfbTJIO4B5H1FWAc0UA5opaKSjNFFLSUUUUtFFFFFFFFFFFFFFFFJRRSM2wVgeJdZih8LXN7bXIw6Mkcka7sk8cEdOe/SuF0+V7XVNPtINRj82W7Q+YjF0yISpJG4EktgYPGQOa7PxBdT2+v6EkZkaTE5YRxlgfkxkqD0zT/CIP2DEN1vt4ppUdHt9jmQuWP8AEeAWIrpOaKWiikpaSmseeOtVNS1KDS7Qzz5YkhY0UZaRj0VR3JrnfGk+of8ACCzNNAkUspVZwHyIkJGee5+lecS6leX91d3Nzd2e4SICm8ZYKxCsB/sjBYdxXpPiKOI6Xa3s01sbS3jB2B/ku8jhQmCOvIwc03wfqN0LWw0mfyYbi3twbmCbek2fVVKgEdehrrxnvS0nam7uTisy81VxfR6dYxLPdZDS5OFgT1Y+/YdT+tYvxDnuYtJshGFWI3kRmkOPlAOQMd8nFec2epXV9dw3t5eWG6a7jkljdgdrEcvjumMqRn71d941gYWhvFMb/uWitrXfuNw7DCFUxwQSDkHpVzRb2bUrB9ISS2ikgtfIlhYsJo3xjJUgce4OPevP100W/h68leSWb7MvlglSBiF2zyPVSRXrWgwxwaLaJCCF8pSNxyeRmtHNLSUtFFFFJRRRRTHcIpYkADkk9BWDqHiMsTFp4BHQzMOB9B3/AJVhSMWLXFxMZCOWkkPT+grNtfEWmX97LYWd2s9yiFsKcqcdgehrznVPHXiW8vJbW0U2zRsVKQIS4IOK37jTtb8ReAbSCRZE1BJfmErbC656nPtWbpHw21Sz1C3u7m5t0MUquUUkk4OfStfxR4Dl8QaxJqEd7HD5iqu1kJ6d81P4X8H3HhuPUCbmOWS4h2RlQRg4PX8646bwd4t02Qywh2JOd1vP1/DOa6jVfEWp+F/CulebmbUJwS/njOB1wf5VN4f+Itnq1zHZ3FtJb3MhwpT5lJ/nXYrxIZI2Mcqnh1OD+f8AjWvp/iN4MR6j8y9PPUdP94f1FdFHMsyK6MGRhkEHIIqTpRRS009aXFFFLSUUUUtFFFFFFFFFFFFFFFJRRSFvTtXP3Ez+J5ntbR2TTImK3FwhwZyOsaH07E9+grQvNHgvdLbTB+4tyoUpEAMAYwB+QrHPgOy87zkvblJNwfcpAw2c5/OtmHSY49Wk1OR2mnMQhQt/yzQdQPqeTTtL0xNLimjjkZxNO8x3dixyQKvUnNKM0tFFJSFvSq17fQafaSXN0+yNBknufQAep7Vn6bYz3t0NW1OPy5iCLa3P/Luh7n/bPf06VqT2sdzCYp0WRD1VhkGqraDpUjiSTTbVn3l9xiGdxGCfqRT10iyWWOYW0W+JdqHbnYPQelStZW73cV28MbTxAqkpX5lBxkA/gKnA5zS03OTgVk6pqUxuBpmlqr3zjLuRlLdf7ze/oO9WtO0uHTbfyoSXdm3yzPy8rnqxNWJbWG5VVniSUIwdQ4zhh0NVD4f0gnJ0y1JwwyYl6Mct+ZqZNMs4br7THbp5uAocjJUDgAegqT7Fbi8N4IUFyU2ebt+bbnOM+maqy6DptxpradNZxPasxYxFeMkkk/mTV9EWNFRBhVGAPQUtLRRRRS0UUUUhNQ3NzDZwNPPIERRyT/SuT1DU59Sf5gYbbtGDjd7t/hXNeIPFWneHYP8ASH8y4I+SCMjP4+grnfEsd94x0Gx1DQ5HdHJSe1DY2t6n6f1qbwn4CbRb2LUru7Y3MfSOE/KP949666Kztbd3eG1iR3O5mVACT61Yz7Ug4/8A10E8520uevvTehziori0tryIw3Vuk8Z6q4yDWTYeD9H0zVBqdjblJkBwmSVUnuB29PxrgNTn8VeFtdnv5S6edIXLg7onBPSvRtC1h9R0e2v76IWjz5CqzYDehH1re0/UJ9NmxCA8JOXj7H/d9D/OuttL2C9gWWBtyngg9VPoR61Yooo70wzxrIsbOokYZVSeSPahpFQZcqpPTJxSfaIshfMTJ6DcOaeKWloooooooooooooooooopCaQZPUUEntWBcXEniO4azspCmmxttubhesx7xofT1b8BW3bwR20CQwIEjjAVVHRRUuMdKKO1FH4UfhRRRRSEjOO9RXFxDaW8k88gjjjUszt0UVj2VvNrN1Hqt5GyQRndZ2z5BH/AE0YevoOwrdUY+ppcc5ozRj60UUnWsjUtSnNyNM0oK96wy7EZS3U/wATe/oO/wBOatadpcOnW5hjy7ud00r8tKx6kn/OKvAgCkzzjBpc0UUtJS0UUUUUUUUUmaiuLiK1iaaVgqKMkmuPvtQl1K4WV/liXmNCeg9frXM6n4w0rSdVh06dy0jnbKwPEHpmuYn+HVxqPiKS5lvN1hIfNEu/LtnnaK7rT9NtNJtEtbKARRJ2H8R9T6mrR5ozxRmlpM0UoNIaAcGmTww3URhmhSSNuqOMj8q4n4g6Dql/bw3Nk2+2s0x9lQYI/wBoY69uO2Kk+HXiDUdUilsbxHlS2XK3Ldv9k13VndzafdCe35Df6xM/6wf4+9djZ3UV3bpPE25HH/fJ9DU545FRzTxQRPLM6xxxruZ2OAoHUmoLe+ivNN+2R71jdCyll2kj1ry+y11QbZLoBpljlkM7zMXiR2G0g+hDDgHtW0jm80Xws1zchAwnLTTsXAxG+GbJGRx3qXwxdpqviKRb+yhszDCHtIPJIEwBwZ0YjIB6Y4IFd4DnvS0tJRS0UUUUUUUUUUUUUUlUNV1rTdDthcandpbQs20O54zWQfiN4Q/6Dtt/30azdV8ceG9SKWqeJLWCzf8A4+SjkSOP7oPYHuavQeP/AAXawpBBrNnHEihVVTgKPSn/APCxfCA/5jtt/wB9GlHxF8If9B22/wC+qP8AhYvhD/oO23/fRo/4WN4Q/wCg7bf99Uf8LG8If9B22/76o/4WN4Q/6Dtt/wB9Uf8ACxvCH/Qdtv8Avqj/AIWN4Q/6Dtt/31Sf8LG8IZ5161A9S9A+I/g8H/kP2n/fdB+I3hAg/wDE9ts/71ZM/jDQLrxHFet4rtk0xbYxva7yN0u4EP8AgOKqL4r8J6rqBlvtajhsLd/3NvJIczsP43HoOw/GtgeM/BQ/5j8R/wC2ppD418E5/wCQ/H/39NH/AAmvgn/oPx/9/TR/wmvgn/oPx/8Afw0v/Ca+Cf8AoPxf9/DR/wAJr4J/6D8X/fw0f8Jt4J/6D8X/AH8NA8a+Cs5Gvxcf9NTUmkaz4Qvb5rXStSiluJ2MjLHIdzHHJP4Cui+wQ4+9J/32aQ2EJ6NL/wB9GvGviv4j1rQvF8dppmrXdrAbdGMccmBn1r2PRpXn0KwmlYu8ltGzMepJUEmrooNAoopM0tFFLRRRSdaa3Q9Pxrk9a1H+0LnyEybeFu3/AC0b/D0rBvryNzJplvfww6jJEWiDEZU9jiuC8PeAL261WW519GEMLnq2TcN657j3r0lESJFVVwFAA9hTjQBig0UZoooFLTSKUUvBOP5VzHi2y1CDw5OugxpBk7rlIhhnXuV9/WsPwB4vkllTRNRbcTxBKx5J/umvTtL1FtLuyzkmCU4lH90/3v8AH/61ddJPFHE0rSKsaruLk8AetYcMcniWZLidWj0qMhoITwbo9nf/AGfQd+vpWveWSXlnJasWRJFKkocED29KyH8G6Sb2O5iiMJiiZIkT7sROPnH+1wKkXwpYix060d5mTTtxiJfkkgglvXqauNpCu8bm7ud0bZU7+3p9D6VfxxxS0tFFFFFFFFFFFFFFFFJRzUckEUwxLGjjOcOoIqP+zrH/AJ84P+/YpP7Oss/8edv/AN+lpTp1iR/x52//AH6Wk/s6yx/x52//AH6Wk/s6y/587f8A79LS/wBnWX/Pnb/9+hS/2dY/8+dv/wB+lpP7Nsv+fO3/AO/Qpf7Osv8Anzt/+/S0n9nWX/Pnb/8AfpaBp1l/z52//fpa80+OFrbw+FbR4YI42NyASiAcYrwvjHTnFfW2n6dY/wBmWp+x2/8AqV58pfQe1ZOqeGJr3xBBOEhfSkgxJZ8IJJQ2QxwORj+VaotMcDSLPH+8P/iaDZ/9Qiz/AO+h/wDE0os/+oRZ/wDfQ/8AiaPsY/6A9n/30P8A4mj7GP8AoEWf/fQ/+Jo+x/8AUHs/++h/8TR9j/6g9n/30P8A4mj7GP8AoD2f/fQ/+Jo+yf8AUHs/++h/8TSpBLE2+LS7ZGHQrIAf/Qam82+P/LpH/wB/v/saXzr4D/j0j/7/AP8A9jXgfxqMreOYjKgT/Rk6NmvdvD//ACLmm/8AXpF/6AK0KKMgd6MjPWjIPFJnHWlyD3oyM4oHPNFFFFFZHiHUDa2ghibEs/yg/wB1e5rkNQuxp2lTXSxPL9njLCNRlm9q8n8P6fqHi3xS17LI6hJBJNKOCvoo/LFewY4GTxjFKTmkAooopKWiilpKMUUA45rlNai0zwdBPrVtpnmXdxIVBPKoT39ulXPCPiSPxDpTSS7I54flnUcD1z9MV02gzt4l22dwx/s22AZEPBu+eCe+wdMd8ZPpXaqAuFHFL3paO/tRS0lLRRRRRRRRRRRRRRRRSUCjvRiiijFGKMUUUUfjRivNfjmg/wCEMgbPIul/lXz/AI6/Svr7SOdGsiecwJ/IVXn1u3h12LRQkkl1Jbm4AUcbAcdfqatfa5un2KX81/xo+1Tf8+Uv5r/jR9qm/wCfKX81/wAaPtU3/PlL+a/40fapv+fKX81/xo+1Tf8APlL+a/40fap/+fKX81/xo+1Tf8+Uv5r/AI0fapv+fKX81/xoN3N/z5S/mv8AjR9rm/58pfzH+NJ9qn2/8eUv5r/jXgvxrdn8cRboyn+jJwTXuugf8i5pv/XpF/6AK0AQaaT83FcTq/jS4sZtQjV7RTZTpCo35ZycEkg4wADye2c9q0fDniGbVotSmmVWW3mfyzGQx2joAASSMdD3qHQPEWo6rrUUM32dbdrZ5FMWT5oDhQ3OCv8AECpGcg1tatqq6YnmSGBFYYR5ZQu5vQA9ayvC/iC61iytFkNvJcrCr3mJMNGWGR8g6c+tZV744v7DVNSgMdrcLATsVXIMe1cntyCSBmul8PaxLq9vdSyLEBDdPCjRkkMqnGea2O9FLRTG9zgVxd7dm+1CW4/gB8uP/dH+J/lXmvinxxqNl4rjs9KZSkGEkjIyJHPUfh0rurSFI49/2aO3mlAaVY1x82Ome9WD7UYoopRSGiiiiiiikxSg/nUF/ZQ6lYzWVyu6GZCp45HvXB6P4OXw3dSXes6rFBZk7PLD7fOXORu/IHAr0W0ufsVzBdxEFYu6jhkPUV3MbCRA4IIYAgjvT6KKKWiiiiiiiiiiiiiiiiiiikrP1i01O7tVj0zUhYShsmQxLJkemDWKdD8Y548Xpj/sHxf4Uf2H4w/6G9P/AAXxf4Un9h+Mf+hvT/wXxf4Uv9ieMP8Aob0/8F8X+FJ/YnjH/ob0/wDBfF/hR/YfjH/ob0/8F8X+FH9h+MP+hvT/AMF8X+FH9h+Mf+hvT/wXxf4Uf2J4x/6G9P8AwXxf4Uf2H4w/6G9P/BfF/hSjQ/GOf+RvT/wXxf4Vwvxa07XrTwtG+p68t/CbhR5f2VI8HHXIFeNc85PSvpXTNG8WPpNo8XitY0MKlU+wRnaMdORVOW312LxRDp0niqNdRe0aVJjpsPEYbBXdjjnnFaQ0rxX/ANDrD/4Aw/4Uf2V4s/6HaH/wBh/wo/svxZ/0OsH/AIAxf4Uf2X4s/wCh1h/8AYv8KP7L8Wf9DrD/AOAMX+FL/Zfiz/odYf8AwCi/wpP7L8Wf9DrB/wCAMX+FA0vxZ/0OsP8A4BRf4Uf2X4szn/hNYf8AwBi/wq5pllrttfLLqHiiK9gAO6H7NHH+oGa3vPhx/rk/76FIZ4scSp/30K8A+NzBvHMRUgj7MnQ/WvdNAI/4RvTe3+iRf+gCo9W1UWbJZ20ZuL6f/VQA9v7zH+FR61JpllNaI0t1cPcXUxBlfooI7KvYVwOrfDjVLnVJbiza38k3MsqCWRt2GCnkg8/MpGD2NbHhrw9qWh2V9Hd2MLrcMsiRW8xLBhxt3H+ECnP4Rv3+1anHLBFfPGY4rXloRHyTGx6kkkksMVo31lfXWiw6ZBp8EJ8pcymU7LdhyNoHLYPTmodE03WtHvZ47pLfUI7uQyz34cpKxxgApyOAABjAwBWTe+DNTvNQsriKT7DFBK2yOOTe0akH5mYj5stj5eldNoFjf2kEw1Habh5cl45WdZBjhsMTtPsOK2aKWkrN166a10uQocPJ+7X6n/62a4m+vbXSLFru6fy4IlwzfoP1rk9D8LaJc64uvWGpm+iRy5iY5IkPr/Ou2JzwPz9aACOtFFFAoNFFGaWkoopaTvQT2rgPijpbyWlvqcZYiI+VIM8YPQ/nx+NbXgLUpdQ8MwpcI4kt2MWWH3l7H8q9M8O3Rm0/yXOXt22fVeqn8v5Vr0tFJS0UUUUUUUUUUUUUUUUUUUlAoooxRijFFFGKMUYpa8z+Of8AyJcH/X0v8q8A/wAK+vNH/wCQJY+vkJ/IVYktoJJRJJBG74wGZQSB6ZpPsVr1NtET/uCk+xWv/PrF/wB8Cl+xWv8Az7Rf98ij7Fa/8+0X/fAo+xWv/PtF/wB8Cj7Fa/8APtF/3wKPsVr/AM+0P/fAo+xWv/PtD/3yKPsVr/z6w/8AfIo+xWv/AD7Rf98il+xWv/PtF/3wKT7HbY/49ov++BXgPxtjSPxxEqKqD7MnCjHrXsNrqjWfh7SbS1j+0X89nF5MOeANg+dvRR+vatHStKFgHmmkNxez/NPOf4j6D0UdhWlyKUcjmijFJ3pelFHelpKWkrm/FEzG5trcfdCmQ/XoP5GvLvinczDR7W3iRzHJJukIBwAOmfxq78OdPS18KJNs2yXLl2J7joP0rqhSk5pKWko6UuOKhedIzsOWb+6gyR9fSkEr9fIfHuVz/OlFxHna2UY9N4wPzqUZHXrS0lLSZpKDz1qO5RHtJVaFZwFLeW4BDEciuN8KeN7jWvEB02e0gtotjeWkY6Edv8ivTPDkgi1OSLPEsf6qf8GNdTRS0UUUUUUUUUUUUUUUUUUUUUlZmua9YeH7RbrUZXjiZ9gKRl+foKxP+FoeFf8An9m/8Bn/AMKP+Fn+Ff8An9m/8Bn/AMKT/haHhX/n9m/8Bn/wo/4Wf4V/5/Zv/AZ/8KX/AIWh4V/5/Zv/AAGf/Cj/AIWh4V/5/Zv/AAGf/Cj/AIWf4V/5/Zv/AAGf/Cj/AIWf4V/5/Zv/AAGf/Cj/AIWh4V/5/Zv/AAGf/Cj/AIWh4U/5/Zv/AAGf/Cj/AIWh4U/5/Zv/AAGf/CuG+K/jDRNf8LRW2nXMkki3CttaFlGMepFeOdzjuOK+kdN+JXhaLSrSJ7yYMkKqR9mfggfSqVz438P3PiSHUW1m4+wR2rRNafZ5MGTdkP0x04q7/wAJ94K/5+J//AeT/Cj/AIT7wV/z8z/9+JP8KX/hPvBX/PzN/wB+JP8ACj/hPvBX/PzN/wB+JP8ACj/hPvBX/PzN/wB+JP8ACj/hPvBX/PzN/wB+JP8ACj/hPvBX/PzP/wB+JP8ACj/hPvBX/PzP/wB+JP8ACj/hP/BWf+Pif/wHk/wq5pXijwtrN+tlYzSvO4OFaJ19+pFdANNtyPuH86DptvjHln868F+NMSweOI1jGB9mSvZ/COmR2Ph+zk3NNPPbRNJM/LN8gwPoBwB7VvDpS0UUtJRRigCloopO1chrsm/WJR/cVU/TP9a848WeN7vQtd/s6C1gnjEaswkGck9q7W3GbeImNYyUBKr0Bp+MUUtFJS4yKgk3yyeTGxBAy7f3V/xp8aLGMRrhe/8Ate5p5prAFSGUN65qEAwOFLFom+6x/gPpVgdKKKSloNIrf5xXCaZ4J1DTvGP9qme3jto52dV35JU9q9F0tzFq1ox4BcjH1BrtCeaUUtFFFFFFFFFFFFFFFFFFFFFJ3pCB3ANAVcfdH5UbV/uj8qNq/wB0flRhf7o/KjC/3R+VGF/uj8qML/dH5UYX+6Pyo2r/AHR+VJtX+6Pypdq/3R+VedfG8AeBAQoH+lR9vrXz52P0r640EL/wj+ngKP8Aj3Tt7Cq9xZat/wAJNFfQXMf9nratE9qxI3SFshunpV7deD/l3t8f75/wpN93/wA8Lf8A77P+FLvu/wDnhb/9/D/hRvu/+eFv/wB/D/hRvu/+eFv/AN/D/hRvu/8Anhb/APfw/wCFBe7/AOeFv/38P+FJvu/+eFv/AN/D/hS77v8A54W//fw/4Ub7s8eTb/8Afw//ABNLvvf+eUH/AH8P+FBe92/6qD/v4f8ACvBPjV5n/CbxGQKCLVOA2a9C0n4qeErTRrG1k1B1ljt442XyWPIUA816BDIs0KSp911DD6EZp9LRRRSUtFFFJSE4xXGaifM1i77ZkA/ICvO/EHgfU9U8UtqkMsHkM6nazncAOoxiu5GQAOwGBRSilpKKVetQW3zIZD1kYsf6VPmkpMU2aPzYWTpnoaIX8y3STuyg4p4PFFFLQBQcfrXkfjO5uYfHrotxMI0liIXecDp0Fev27/6dbMOhmQ/mf/r13Q70UtFFFFFFFFFFFFFFFFFFFFJRQeaKM+1GaPwo/Cj8KKPwooz7UV518cP+RDH/AF9R/wBa+esdfpX11oPHh/T8D/l3T+QqG516GLxDFoaW8stzLbG5BGAoUNjqe+at/ark/wDMPc/9tE/xo+03X/QOf/v4n+NH2i5/6B7/APfxP8aX7Rdf9A9/+/if40faLr/oHv8A9/F/xo+0XX/QPf8A7+L/AI0faLn/AKB7/wDfxP8AGk+0XP8A0D3/AO/if40v2m6/6B7/APfxP8aT7Rc/9A9x/wBtE/xpRc3Haxb/AL+L/jSG5uMf8eLf9/E/xrwX41OX8bxbozGfsqDBIPr6V0Gm/A2zvNOtb065cIZ4kl2iEHGQDjr717BbRCC2ihU7hGgTPrgYqWiloopKKWikopMZH41xWpEjV7vH9+vG/Elzc23xElC3EgQXEZADHGOK9cTH5igjFFFBoo6nHrUVrzboO4GD+FS0UUZCgseAOT+FRW4ItIs8HaDipRRRS0ZpOo56ZriPED+DZfEjRaoLkX4KAtHu2k8bf6V3dupF3brx/rY//Qh/hXcjrTqKKKKKKKKKKKKKKKKKKKKKSiszW7bVrq1WPSNRjsJ94JkkgEoK+mDWIdF8dH/mb7T8NMX/ABpf7G8df9Ddaf8AgsX/ABpP7F8d/wDQ32n/AILV/wAaP7F8d/8AQ32n/gsX/Gj+xfHf/Q32n/gsX/Gj+xfHf/Q32n/gsX/Gl/sXx3/0N9p/4LV/xpP7F8d/9Dfaf+C1f8aX+xfHf/Q32n/gsX/Gk/sXx3/0N9p/4LF/xoGi+Ov+hutP/BYv+NcV8VdO8TWvhPzNX16C+t/tCDyo7MRHdzg5BrxjB6npX0fpGj+NjotmYPFVqkRhXap05SVGOmc81Xlh8TJ4nh0t/FVn/aD2rTJJ/ZScRhsY3Zz17Vp/2R42z/yOVn/4L1/xo/sjxv8A9DjZf+C9f8aP7J8b/wDQ42X/AIL1/wAaT+yPHH/Q42X/AIL1/wAaP7J8cf8AQ42X/gvX/Gl/snxv/wBDhZf+C9f8aP7J8cf9DjZf+C9f8aP7J8b/APQ42f8A4L1/xoGkeN85PjGy/wDBev8AjVzSbHxNb6gkmqeJbS9tgDmFLNYyeOPmzXQ+YgH3l/OjzVxnev518/fG458dREH/AJdk6fjXufh8f8U5pv8A16Rf+gCtAdMUtLSUtFFFFFFIKTt+NcjrEe3WLnjG7af/AB0V534j0jwzD4gOp6tqjwTOAwhA4OPwz2rsopEkhSWI7kdQyn1FPByKM0UUUmPfFRAiG4OeI5TwfRqmI55NJmjGTmopyJWECnO7O8jsKmzknHSiiilzSUY4615Nq1rd6j8Rm/0aVY5LlVVihxtBxnP4V7BZJ5mrWir0abJ/AE5/Su3opaKKKSiiloooooooooooooopKDRmjNGaM0ZozRmjNFGaM1578bMH4fvnqLqL+tfO/NfW3hklvC+mE8n7NH/IVblsrSecTSwRvKq7Q5HzAemfSj7BadfJWj7Ba/8APFaP7PtP+eC0f2fZ/wDPBaP7PtP+eC0f2faDpAtH2C0/54LR/Z9p2gWj+z7T/ngtJ/Z9p/zwX86d/Z9r/wA8Vpp0+1Cn9wteCfGyJIvG8QRQo+zJwK900DP/AAjem/8AXpF/6AK0R0opaKKKKKKKKKQ1zHiaPZqEEvaWPYfqpz/WvIvitZFZLG9CcENGTj8R/Wut8IXL3fhaykmUrIsflsCMdOM/jWzgikpRS0UfSmugdSpGQfWogs0QxGfMX+6xwR+NBmkHW1f8x/jRm4k4wIUPXu1SJGsa4UdepJyTT6Siiig8VFcTpa2k9zJ0hjZz7YGa4nwX4v1jXtbeyvEheFUZi4TDLjpXpnh6HzNY3HpBGzfiSAP611tLSUUtFJRRS0UUUUUUUUUUUUUlAqhq2t6doduLnU7lbeEttDsCRn8Kxz8SPB4/5jcP/fD/AOFH/CyPB/8A0Gov++H/AMKT/hZPg/8A6DUX/fD/AOFL/wALI8H/APQai/74f/Cj/hZHg/8A6DcP/fD/AOFH/CyfB/8A0G4f++H/AMKP+FkeD/8AoNxf98P/AIUf8LI8H/8AQbi/74f/AAo/4WT4P/6DcX/fD/4Uf8LI8H/9BqL/AL4f/CgfEnwfnH9tw/8AfD/4VxfxX8X+H9c8GPZ6bqUdxP8AaI32KrA4Gc9RXiJz09q+kdB+IHhW18P2FvPrESSR26K6lHyCB9KguPGXh+fxJFejxQg01LUxvbqJBul3AhuB6Ve/4TrwUf8AmPH/AL6l/wAKP+E58E/9B8/99S/4Uf8ACc+Cf+g+f++pf8KP+E58E/8AQfP/AH1L/hR/wnPgn/oPn/vqX/Cl/wCE58Ff9B8/99S/4Uh8c+Cf+g8f++pf8KP+E58E/wDQeP8A31L/AIUf8Jz4J/6Dx/76l/wq3p3iXwvq94tnYas0878hFeQHH41ufYIsf6yf/v63+NIbGDH35v8Av83+NeCfGqJYvG8QUsR9mT7xJ/nXu2gf8i5pv/XpF/6AK0B0oopaKKKKKKKKKxfE9uZdNEyj5oHDfh0Ncbq8xtdLnuktUuXt0Miq4znHf8q5rwX4xuNfv7q0vEijcL5kKRLgAd67IHOKUikpaSilpOnTil60h9qBRRRS0lBIPP6etZfiBLe402Swm1GOxa7GxGkP3vUf0/GsrwX4Sl8OyXc81xFO0wAjePoV9a9K8Lwf6NPdY/1r7VPqF/8Ark1u9KBS0lLRSUUUtFFFFFFFFFFFFFJRTHijmG2SNHAOcMM1GbG1/wCfWH/v2P8ACj7Fa/8APrD/AN8D/Cj7Fa/8+sP/AH7H+FH2K1/59Yf++B/hR9itf+fWH/v2P8KPsVr/AM+sP/fsf4UfYrX/AJ9Yf++B/hR9itf+fWH/AL4H+FH2K1/59Yf+/Y/woNlaj/l1h/74H+FAsbTr9lh/79j/AArgPjRbww+ApHjhjQ/aohlVAOOeOlfPdfWHhq0tj4Y03NvFzap/APQU2fR7pvEMV7bvbmyW3Mclo8YAZ85D5x+FWvss+f8AjwsMfj/8TS/ZZv8Anwsf1/8AiaPss/8Az42P6/8AxNH2Wb/nwsf1/wDiaPss/wDz42P6/wDxNH2Wb/nxsf1/+Jo+yz/8+Fj+v/xNH2Wf/nwsf1/+Jo+yzf8APhY/r/8AE0qwXMbBks7JSOhUkEf+O1LnUR/yzt/++2/+JoJ1Db/q7b/vtv8ACvBPjV5v/CbxeaqA/Zk+6c17r4f/AORb0z/r0i/9AFaI6UtJS0UUlFLRRRSVHMiTRvFIMq4KkexrhpoDDNLaSDLRkpg9Nvb9K4ODwnZ+Ftal1671YW1rHITDGv3mU/wnufoAa7a3uYb23jurdw8UyhkYdxUvNKKSilFBpKKKKKKKM8Ug5pVQ5H1ryPxlPe+IPGK6esTgRP5MCMMZBPJ/z6V6np+nLY6da6ba5Zl2xR5PU+tegWtslnbR28QwsahRU/agUtFFFJRRS0UUUUUUUUUUUUUUlIWxzS5oozSZHpRkelL+FH4UmR6UuaOKOPSvPvjUN3w+lI7XMR/U187etfWfhZw/hTS2x1tYz+gon16OLxHFoa2zyXMtsbkEEBQobb19c1d865z/AMeX/kQUvnXP/Pn/AORVo865/wCfP/yIKPOuf+fP/wAiLR51z/z5/wDkQUedc/8APn/5EFHnXP8Az5/+RBR51z/z5/8AkQUedc/8+f8A5EFHn3PT7H/5FFJ59x/z5/8AkQUefcY/48v/ACIK8E+NTu3jiJnjMZ+zJxnNe66Bz4b0z/rzi/8AQBWgOlLRRRRSUUtFFJS0wrzXPeJbIKV1CNeFGycDuvY/gf5159490Bta0MyQgm5tcvGufvDuKyfhff37WtxYzQO9pGd0cpHCHuv9fzrvOevalxSUUCg0UtFFJRSnGKTGaAMHArk/HXiwaHaLa2UoF/Ngjv5a56n61a8J3Vxr2lxapqtnELlTtin2/My9CfbrXc+G7L7Rcm/YZiiykPuejH+ldOKKWiiiiiiiiiiiiiiiiiiiiiikzis3WrHUr61Eel6r/Zs27JlEIlyPTBrEPhvxgenjZh/3D4/8aT/hG/GP/Q7n/wAF8f8AjR/wjfjH/odz/wCC+P8Axo/4Rvxj/wBDuf8AwXx/40f8I34x/wCh3P8A4L4/8aP+Eb8Yf9Duf/BfH/jR/wAI34w/6HY/+C+P/Gj/AIRvxh/0O5/8F8f+NH/CN+Mf+h3P/gvj/wAaP+Eb8Y/9Duf/AAXx/wCNH/CN+Mf+h3P/AIL4/wDGuP8Aiho/iGx8FTTal4lOoQedGDCbRI+c8HINeKdBn2r6J8OaB4qm8N6bLbeMGgha2QpF9hRtgxwM55pktr4hh8SxaRJ4zYXUts06zHTosBQ2Cu7OffFaP9ieKs8ePU/8AY/8aP7E8Vf9D6n/AIAxf40v9ieKv+h9T/wBi/xpP7E8Vf8AQ+p/4Axf40f2J4q/6H1P/AGL/Gl/sTxT/wBD6n/gDF/jSf2J4q/6H1P/AABi/wAaP7E8Vf8AQ+p/4Axf40f2J4qz/wAj6n/gBF/jVzS9N120vlmv/FyX0AzmA2yR54/vA10IuIMY85P++hR59uB/rk/76FeA/G11fxxFtcMPsydD7mvc9A/5FzTf+vSL/wBAFaA6UtFFFFFFFFJRS0lRyxJMrRuoKsMEHoRXGX1lJp9y1tKCU6xMe6+n4VwnxCl1iw0yP+zR5FiTmYwjawbtkjnFWvBHioa7am0uDi/gX5h2kXsRXVZ445pKUUtJRSZpaKKKOtHTjPPasjxH4htfD1j9on+aVuIoQeZPf6Vzr+HtH8cSRa7azSxneBdQnk8Ace3au6s7E3MsVhbKI1Chfl/5ZoO/1/qa7e2to7WBIYlCxoMKoqaiilooooooooooooooooooooopMUh9qXmjmjFHNHNHNHNHNHNHNAzmvP8A40g/8K8n/wCvmL+dfOmetfWXhHP/AAiOk/8AXpH/ACrTe0gkk8x4I2kA2hivOPTNJ9itj1gj/Kj7Fbf8+8f5UfYrb/nhH+VH2K2/54R/lR9itv8AnhH+VH2K3/594/yo+xW3/PCP8qPsVt/zwT8qPsVv/wA8I/ypPsVvn/j3T8qX7Hbf88E/Kl+x2x6wJ+VRvpdhI257K3c+rRgn9asoqqoVQFUDAAHAFOpKKWiiiiiikopaSiqWp6fHqNsYX+RgcxyDqrVx11alWlsryAN8pV42HysvqPauM1W1g8CaJLd6LZNJcTtgzsNxiHUfhTvCXjqHVljs9RZYb7oG6LL9Pf2rsCadimniilBGPb1o+XOM9OT/AI0owBk8c4pM80UHnijByBWPrXivSdDkSG6n3SuQPLj5Kj1PoK5XXvBeqa54oW6jvRNYzjespb/VL6Af4V3Gl6Vb6Taw6dp8OD0RR1c92b+tdvo+lrplv8x3zScyv6n0HsK0aDRRS0UUUUUUUUUUUUUUUUUUUUUUlFLSUUUZpaKKSiuA+NH/ACTuf/r4i/nXzoe9fWPhI58JaRj/AJ9I/wD0EVs5ozRkUZoozRRS0lGaWkoozS0lLRRRRRRRRRRRSEZpMYFUNT0uPUIdv3JV/wBXIByp9/Ue1clc27xNJY30ShmGGU8q49vUVy1v4H0vStZfV443kSFS8drjI3deO/0Fc1YfEy9t9TmTU7cvbvITsA2vEPT3/GvRbC/t9T06K8tWLQyjMZYYJ/CrBUYxnn0oU4OO9cJrGvql1exRz3DYl8qDDEAFdpfHofmGPpWjoV5Lf2equ3mTx7yxRjs4P+1jIb2rNuri6lhaVZpvKSzhaQF+XyAyZI7gnk967a2L/Y4TK25ygLNjqcVMCPWoLq9tbCBri7uUgjA+85x/+usGy8Zaf4gvrnSLCSWGQxHybhsDc3sK5DSvh/qup6nNNq8jxRJKRJIxy8x9R7H1r0+wsxbQQ6fYQ52AJFGDnAHcmuu0jRY9NzNIRJcv958dB/dHtWtSUUUtFFFFFFFFFFFFFFFFFFFFFFFFFFJS0lFLRRSUVwnxkA/4V3d/9do/5184Gvq7wWf+KM0bPX7HH/Kp9V8Q2Oj3lpa3UoV7pyq5I+UAE5PoOOtEXiHT5NXfTlmQOiI24sMMX+6B6mmr4k019bfSfPUXEe0E5GC7Z+T68dKs6ZqcGqQvPCGVUlaIhhgkqcE1eooopaSilpKKKWiiiiiiiiiiiikpaSjFVb+wt9Qh8mePcOzd1+hrl7/Sbuwyx3TQr/y1UfMo9/8AGuZ1vwrpHiALLcQBZh0miOCR7+tYHjTSdc+z2EOhRP8AY7NPuwvh9w9h14AqHwR4h8RXur/2XqLGSFEJkMyYkUdufrirv/Cy9JjvZYJ7edVicqJFAZTjvjrSz2ugarZPrp1OWC1kmJZymAOAMDjPVQc0/TZ9AQy2/wDwk5uPt3EgBCsxz29OOKg1mLQ9IuJbe41j7MZEXMDwGQhB90DB6CtbRPFNhq0EtvZyyXUtpBvLNHs3gccD8q4rUfibq1yxhsLeK0ycbvvsf8K3dV0C88ZeH9Lu2Jt71BiXzQVyO5x+ANaXh3wPp2gSJdszXN2nPmtwE+g/rXX2Om3WoMGjUxxdDMw4A9h3/lXT6fplvpqYhTLN95z95vrV3HrRRS0UUUUUUUUUUUUUUUUUUUUUUUUUlLRRSUtFFFFJRXCfGQj/AIV5d/8AXaP+dfOGDjPavq3wV/yJejH/AKc4/wCVYHjyKQ6xpl1A92lzFIiRNHEuxdxOTvPfgcdKi0mG5TxVPZPIs13PcefctG6oYIk+5nAGSScccc1l69HINf1J4JpzHNGJLhpYgi4EwULz1AAAyOa2fBUSJrcm2OFDsuD+7GMfvUrulzn2p9FFFFJRS0UUlFLRRRRRRRRRRSUUtFJSMMjFY954btbh2lgJt5TySn3WPuOlY1zo+o2pLNCZU/vRH+a9qobY9zkoiswwxIwa5W9+G2g3bs8ZuLdmOTsbIJ/GrF14NV/CaaBb3O1Vff5rrknknt9awLT4W3NpfQ3H9qQFY3DY8o5OPxrZ8S+BR4k1gXz3vkARhSojznHvVrw14MsvDlxJPBNNNI67G34xj8K0LXQtF06cy21jAspOS6pubP161t2+lahdfNFAUVv45eB+XU1r2fhq3gIkum+0yDkBhhB9BW2gwoGAAOgFOoopaKKKKKKKKKKKKKKKKKKKKKKKKKSiloopKKWikpaKSuf8aeGT4s8OzaSLj7OZHVhIU3Ywc9MivNT8Ap8H/ifL/wCA/wD9lXrmh6cdI0Sy04yeYbWBYt+MbsDGcVPc2kN0FWeMSBHDqD2YdDTGsLOa/S+a3Q3USlUmx8wB6jPpTLjSrK6laa4t0lZoxEdwzlc5x+dSx2lvHP56W8aS7dm9VAOPT9BVjpRmiloopKKWikoopaKKKKKKKKKKKSlopMUUYoPFQTWdtdf6+COT/eXNUJfDenyNlUeI/wDTNyP0Oarv4Xi/gvJh/vAH+gqMeFeOb8/9+v8A69PTwtER895Kf90Bf8asReGrCM5k82b/AK6Sf4Yq/b2Nrbf6i3jjPqqjP51OM5paKKKWiiiiiiiiiiiiiiiiiiiiiiiiiiiiiiiiiiikopaKQ/Sig0UAYFFFFGKKWkpaKKKKKKKKKKKKKKKKKKKKSilpKWkoooopaSjFLRRSUtFFFFFFFFFFFFFFFFFFFFFFFFFFFFFFJS0UUUUUUlFLRSUUUUUtFFFJRS0UUlLRRRRRRRRRRRRRRRSUUtFFJRS0UUUUUUUUlLRRRRRRRRRRRRRRRRRRRRRRRRRRRRRRRRRRRRRRRRRRRRRRRRRRRRRRRRRRRRRRRRRRRRRRRRRRRRRRRRRRRRRRRRRRRRRRRRRRRRRRRRRRRRRRRRRRRRRRRRRRRRRRRRRRRRRRRRRRRRRRRRRRRRRRRRRRRRRRRRRRRRRRRRRRRRRRRRRRRRRRRRRRRRRRRRRRRRRRRRRRRRRRRRRRRRRRRRRRRRRRRRRRRRRRRRRRRRRRRRRRRRRRRRRRRRRRRRRRRRRRRRRRRRRRRRRRRRRRRRRRRRRRRRRRRRRRRRRRRRRRRRRRRRRRRRRRRRRRRRRRRRRRRRRRRRRRRRRRRRRRRRRRRRRRRRRRRRRRRRRRRRRRRRRRRRRRRRRRRRRRRRRRRRRRRRRRRRRRRRRRRRRRRRRRRRRRRRRRRRRRRRRRRRRRRRRRRRRRRRRRRRRRRRRRRRRRRRRRRRRRRRRRRRRRRRRRRRRRRRRRRRRRRRRRRRRRRRRRRRRRRRRRRRRRRRRRRRRRRRRRRRRRRRRRRRRRRRRRRRRRRRRRRRRRRRRRRRRRRRRRRRRRRRRRRRRRRRRRRRRRRRRRRRRRRRRRRRRRRRRRRRRRRRRRRRRRRRRRRRRRRRRRRRRRRRRRRRRRRRRRRRRRRRRRRRRRRRRRRRRRRRRRRRRRRRRRRRRRRRRRRRRRRRRRRRRRRRRRRRRRRRRRRRRRRRRRRRRRRRRRRRRRRRRRRRRRRRRRRRRRRRRRRRRRRRRRRRRRRRRRRRRRRRRRRRRRRRRRRRRRRRRRRRRRRRRRRRRRRRRRRRRRRRRRRRRRRRRRRRRRRRRRRRRRRRRRRRRRRRRRRRRRRRRRRRRRRRRRRRRRRRRRRRRRRRRRRRRRRRRRRRRRRRRRRRRRRRRRRRRRRRRRRRRRRRRRRRRRRRRRRRRRRRRRRRRRRRRRRRRRRRRRRRRRRRRRRRRRRRRRRRRRRRRRRRRRRRRRRRRRRRRRRRRRRRRRRRRRRRRRRRRRRRRRRRRRRRRRRRRRRRRRRRRRRRRRRRRRRRRRRRRRRRRRRRRRRRRRRRRRRRRRRRRRRRRRRRRRRRRRRRRRRRRRRRRRRRRRRRRRRRRRRRRRRRRRRRRRRRRRRRRRRRRRRRRRRRRRRRRRRRRRRRRRRRRRRRRRRRRRRRRRRRRRRRRRRRRRRRRRRRRRRRRRRRRRRRRRRRRRRRRRRRRRRRRRRRRRRRRRRRRRRRRRRRRRRRRRRRRRRRRRRRRRRRRRRRRRRRRRRRRRRRRRRRRRRRRRRRRRRRRRRRRRRRRRRWd9puP+en6Cj7Tcf89P0FH2m4/56foKPtNx/wA9P0FH2m4/56foKPtNx/z0/QUfabj/AJ6foKPtNx/z0/QUfabj/np+go+03H/PT9BR9puP+en6Cj7Tcf8APT9BR9puP+en6Cj7Tcf89P0FH2m4/wCen6Cj7Tcf89P0FH2m4/56foKPtNx/z0/QUfabj/np+go+03H/AD0/QUfabj/np+go+03H/PT9BR9puP8Anp+go+03H/PT9BR9puP+en6Cj7Tcf89P0FH2m4/56foKPtNx/wA9P0FH2m4/56foKPtNx/z0/QUfabj/AJ6foKPtNx/z0/QUfabj/np+go+03H/PT9BR9puP+en6Cj7Tcf8APT9BR9puP+en6Cj7Tcf89P0FH2m4/wCen6Cj7Tcf89P0FH2m4/56foKPtNx/z0/QUfabj/np+go+03H/AD0/QUfabj/np+go+03H/PT9BR9puP8Anp+go+03H/PT9BR9puP+en6Cj7Tcf89P0FH2m4/56foKPtNx/wA9P0FH2m4/56foKPtNx/z0/QUfabj/AJ6foKPtNx/z0/QUfabj/np+go+03H/PT9BR9puP+en6Cj7Tcf8APT9BR9puP+en6Cj7Tcf89P0FH2m4/wCen6Cj7Tcf89P0FH2m4/56foKPtNx/z0/QUfabj/np+go+03H/AD0/QUfabj/np+go+03H/PT9BR9puP8Anp+go+03H/PT9BR9puP+en6Cj7Tcf89P0FH2m4/56foKPtNx/wA9P0FH2m4/56foKPtNx/z0/QUfabj/AJ6foKPtNx/z0/QUfabj/np+go+03H/PT9BR9puP+en6Cj7Tcf8APT9BR9puP+en6Cj7Tcf89P0FH2m4/wCen6Cj7Tcf89P0FH2m4/56foKPtNx/z0/QUfabj/np+gqPIoyKMijIoyKMijIoyKMijIoyKMijIoyKMijIoyKMijIoyKMijIoyKMijIoyKMijIoyKMijIoyKMijIoyKMijIoyKMijIoyKMijIoyKMijIoyKMijIoyKMijIoyKMijIoyKMijIoyKMijIoyKMijIoyKMijIoyKMijIoyKMijIoyKMijIoyKMijIoyKMijIoyKMijIoyKMijIoyKMijIrVoooooooooooooooooooooooooooooooooooooooooooooooooooooooooooooooooooooooooooooooooooooooooooooooooooooooooooooooooooooooooooooooooooooooooooooooooooooooooooooooooooooooooooooooooooooooooooooooooooooooooooooooooooooooooooooooooooooooooooooooooooooooooooooooooooooooooooooooooooooooooooooooooooooooooooooooooooooooooooooooooooooooooooooooooooooooooooooooooooooooooooooooooooooooooooooooooooooooooooooooooooooooooooooooooooooooooooooooooooooooooooooooooooooooooooooooooooooooooooooooooooooooooooooooooooooooooooooooooooooooooooooooooooooooooooooooooooooooooooooooooooooooooooooooooooooooooooooooooooooooooooooooooooooooooooooooooooooooooooooooooooooooooooooooooooooooooooooooooooooooooooooooooooooooooooooooooooooooooooooooooooooooooooooooooooooooooooooooooooooooooooooooooooooooooooooooooooooooooooooooooooooooooooooooooooooooooooooooooooooooooooooooooooooooooooooooooooooooooooooooooooooooooooooooooooooooooooooooooooooooooooooooooooooooooooooooooooooooooooooooooooooooooooooooooooooooooooooooooooooooooooooooooooooooooooooooooooooooooooooooooooooooooooooooooooooooooooooooooooooooooooooooooooooooormNQ1a/hv8AWliuJD9jih+y28UaEySOGwvI7sB9Mmk0vV7u+vLSxae8M8toLiWVEg8qMHGDxkjcc4HXg+hqXTNav/8AhELK+eL+0L2dtgUssW8lyOoGBgD07Vp6Zd6ncmT+0NLWxC42YuRLv656AYxx+daFZWt67DorWSPE00l7dRW6IpxtDuqlz7DcPxIHetWimuHKMI2Cvg7SwyAfcZGfzrmodZ1H7HqGpXd/aQ2llLNGpS0ZvMWPCs5G/PDhxgVXufE17DcalDNcCGK0hicSppkpfLlh0LYGMDGa3Nc1dNF0S9vWeF57W1kmWJm2+YVUkDHXkisuDX7xNWnhl+yss0InhzdfukUABl3BM7snPPYjHQ1peH9cg1vS7Sfzrf7XLaxXE0EUgYx71yMjqB16+lZtl4kaa8iv3W7/ALP1FoYLGPyVxuILF2Oc89Mdtme9Ms/E5gtNR1fUmuWsnuf9DSO0YgQ8IrBgPm3nLDnow+lb99qdrpxthcs4N1L5MQSNnLNtZsYUE9Eb8qx4tcdvGV1bF7s2cenwuIfsb8SNJKCx+Td0UD061r6dqltqsEs1r5hWGZ4WEkbIdynB4YDvWNd+Irm2uXvfIcWMK/Z7iBjGXS4LIIwNrE878Hr1UjqaS78RarEmpiGwt/OtGhiiieQ5aSRU2qcDB+ZsZ44rS1i4vVitbSxkWK9upVBcAMIo1IMjYPUY+Ue7LWdrfiRH8OS3ukSTkEx+Vcxw5UgyAEgsMHuOlbUN/wCa0wa0uokiUNveLh+uQoGSSMencYzWHY+J0XVNdF0909ta3AEX+isFhRbeN2BO0YJYt1Ppiiy1vUdH8L/b/EFneyToplm2rF8m5shAAwzgEL68V0wOQDjFLRRRRRRRRRRRRRRRRRRRRRRRRRRRRRRRRRRRRRRRRRRRRRRRRRRRRRRRRRRRRRRRXLIl03izWzbeShSO3bznQyNH8jj5UHU4JHXv0PSs/wAPW1xHqN9HoWp2SsJw92kzCfzy33pCo2PE/wDsn5emMc1PpLWn/CIaDDd3kts09z5cJiU7ncl/lyAduQG54xjqKu2K3Nv4n1LRYL66Nr9jhuUd5PNe3dndSAz7sghAcHOOcVqx6deJKjtrd5IqsCUaOHDD0OIwfyrmvEhulitrm50+fzpdYswCGjKhFnXYo+bPPJ57se2K7NGLIrFChIyVbGR7HHFOqO4WV7eRYHEcrKQjkZCn1x3x6V5fbaTbXdjBpVh5D3jWerQ7nYGTPnqqlyOc4zzWpHpc3iCXW5NPNu0cn2eBZDPJt3KN7deuN4BB6HI9a3vGID6U0MlqXguXitp5VClykkix7FyRyd2MkgAEnkjFUbrUAbi5fT7S4juLmX7CkU8cbwrOqM+dokBGVGCQccDvWt4R8n/hFtOEMToIoFgzIqhm2fJk4JHO3PXvXNWVvNP4W8KRXEsT2slxEvlrGytgxycFt39BWl4hivoPDWoW92UaAahbLZsvBMTSxYBA9GLKPYD8bviiZYL7w9K4cqupnhFLE/6NP0A5NU7iz16yW+8R2cYk1CYqW01iCHgQfLGGHSTlmyMjLEcjBq74XUyafqShmjLaldgMuMr+9bkZyM1izyTjSbzXUgLmC7kJ3XCK0kkTtAGOIcfw8dccdxSyyxaGfEN29yZZNNeK6QXEgZpdsAyuT1JBIB7Eg1f8SacNS1Gz8rSby4M8RSa5hmEapECDsILjBYnrgkDOOeQ67QajenRPsxEcVrHI0UF0FiUB2AA+XORsFW9GvCP7XMsdyDZ3Gx985m3ERI3yjHHDAYHfnvXL6XaXOmXev6pdTTSGC/E11ZKplWV3gidVAGcbHYAMB0HPQYk1O6W28J3OjGO7keSFLg3U0MkYlkedRIMOAVO5wQPQ+1egUUUUUUUUUUUUUUUUUUUUUUUUUUUUUUUUUUUUUUUUUUUUUUUUUUUUUUUUUUUUUUUUVlroaDVrzUDdThrpY1KRuUC7AR269af/AGHafa/te+f7Rs8vzfNO/bnO3PXGR0ptjoVrZ6Lb6W5aeO35R2OGDZJ3AjkHnqOatWmn2tiZWt4yHmYNJI7s7uQMDLMSTgdOeKs1S1HSLLVljW9jeRYnEiBZnQBgchvlI5B5B7VbVQiBRnCjAyST+Z606is3+x44oEt7OQ2kamQ7kXdIN7bmwzZwCTzx9MYFVJPCsEA3aPfXekSnl2t3DrKe7OkgYMx7tjce5q1qWjHVIUgm1C5SJHikxGseS8bhwSSp7qMiqo8LRiZZRqd7uS8N4OIv9YUKH+DphjxVrR9F/sePyo9Qup4Qu1YpvL2qdxYkbVByc9z6VWtPCljaWmm26z3bjTnV4y07EMQpHKnjHJ6AVLqmgDVb61mlv7pLeCVJpLRSPLmZCGQnIyMMAcAgHFWdQ00X91p05lKfYbk3AAGd58t48e3+sz+FWbiEzwNGs0kJYcSR43L9Mgj8xVPQtJ/sXTfsrXUl3K0rzSzyABpHdizHA4HJ6Cqp8J6c2mz2LtOyzzSTO/mEHLyGQ47Yy2OnSpm8PWE97d3F7BFdi4mjmWOaIMI2RAoIz34zmpb3RbTUbyO4uzPIsabRB57CFuc5aMHax+oNRnQbf+1TfJJJEPsyW6xQsY1UKzNn5SP73T2qbTNKj0x7xo5ZJPtdx57eY24qdipjJ5PCDr60WOmCyv8AUrsSlzqE6zFduNm2JI8e/wBzP41U1nQJNZntw+qXEVmkqSz2iqhWbYQyjcRuUblGcHmtmiiiiiiiiiiiiiiiiiiiiiiiiiiiiiiiiiiiiiiiiiiiiiiiiiiiiiiiiiiiiiiiiiiiiiiiiiiiiiiiiiiiiiiiiiiiiiiiiiiiiiiiiiiiiiiiiiiiiiiiiiiiiiiiiiiiiiiiiiiiiiiiiiiiiiiiiiiiiiiiiiiiiiiiiiiiiiiiiiiiiiiiiiiiiiiiiiiiiiiiiiiiiiiiiiiiiiiiiiiiiiiiiiiiiiiiiiiiiiiiiiv/2Q==;" parent="1" vertex="1">
          <mxGeometry x="-800" y="270" width="555.74" height="380" as="geometry" />
        </mxCell>
        <mxCell id="CCDfUm1BeuJQhzfp21ur-38" value="一般来讲一个磁盘有多个盘片，一个盘片两面又分别有上下两个磁头&lt;div&gt;柱面：所有磁头在同一个磁道上画的一个圆柱体，从外到内编号，0开始编号&lt;/div&gt;&lt;div&gt;磁道：一个磁头在一个盘片上画的一个圆型，从外到内编号，0开始编号&lt;/div&gt;&lt;div&gt;扇区：由于磁盘存放数据在磁道上不是连续的，是分段断开的，类似于扇形，因此磁道上其中一个分就称做扇区，从1开始编号&lt;/div&gt;&lt;div&gt;扇区是磁盘的基本存储单位，8086以512字节作为一个扇区&lt;/div&gt;" style="rounded=0;whiteSpace=wrap;html=1;align=left;" parent="1" vertex="1">
          <mxGeometry x="-810" y="660" width="670" height="90" as="geometry" />
        </mxCell>
        <mxCell id="CCDfUm1BeuJQhzfp21ur-39" value="内存上，1个字节是最小基本单位，也就是8位" style="ellipse;whiteSpace=wrap;html=1;" parent="1" vertex="1">
          <mxGeometry x="-810" y="10" width="200" height="60" as="geometry" />
        </mxCell>
        <mxCell id="CCDfUm1BeuJQhzfp21ur-40" value="" style="curved=1;endArrow=classic;html=1;rounded=0;exitX=0;exitY=0.25;exitDx=0;exitDy=0;entryX=0.601;entryY=1.056;entryDx=0;entryDy=0;entryPerimeter=0;" parent="1" source="CCDfUm1BeuJQhzfp21ur-16" target="CCDfUm1BeuJQhzfp21ur-39" edge="1">
          <mxGeometry width="50" height="50" relative="1" as="geometry">
            <mxPoint x="-680" y="125" as="sourcePoint" />
            <mxPoint x="-630" y="75" as="targetPoint" />
            <Array as="points">
              <mxPoint x="-630" y="125" />
              <mxPoint x="-680" y="75" />
            </Array>
          </mxGeometry>
        </mxCell>
        <mxCell id="CCDfUm1BeuJQhzfp21ur-41" value="&lt;span style=&quot;font-size: 11px; text-wrap-mode: nowrap; background-color: rgb(255, 255, 255);&quot;&gt;执行一个跳转指令 jmp 0x0000:0x7c00, 跳转到 0x07c00 这个位置(也就是主引导区上的第一个字节).&amp;nbsp;&lt;/span&gt;&lt;div&gt;&lt;span style=&quot;font-size: 11px; text-wrap-mode: nowrap; background-color: rgb(255, 255, 255);&quot;&gt;开始执行主引导区上的指令&lt;/span&gt;&lt;/div&gt;" style="rounded=0;whiteSpace=wrap;html=1;" parent="1" vertex="1">
          <mxGeometry x="270" y="520" width="500" height="50" as="geometry" />
        </mxCell>
        <mxCell id="CCDfUm1BeuJQhzfp21ur-42" value="&lt;span style=&quot;font-size: 11px; text-wrap-mode: nowrap; background-color: rgb(255, 255, 255);&quot;&gt;一般情况，默认加载0号磁盘。&lt;/span&gt;&lt;div&gt;&lt;span style=&quot;font-size: 11px; text-wrap-mode: nowrap; background-color: rgb(255, 255, 255);&quot;&gt;视磁盘上0柱面，0磁头，1扇区作为主引导区(8086时代的磁盘一个扇区大小默认512字节)&lt;/span&gt;&lt;/div&gt;" style="whiteSpace=wrap;html=1;rounded=1;arcSize=50;align=center;verticalAlign=middle;strokeWidth=1;autosize=1;spacing=4;treeFolding=1;treeMoving=1;newEdgeStyle={&quot;edgeStyle&quot;:&quot;entityRelationEdgeStyle&quot;,&quot;startArrow&quot;:&quot;none&quot;,&quot;endArrow&quot;:&quot;none&quot;,&quot;segment&quot;:10,&quot;curved&quot;:1,&quot;sourcePerimeterSpacing&quot;:0,&quot;targetPerimeterSpacing&quot;:0};" parent="1" vertex="1">
          <mxGeometry x="720" y="340" width="450" height="50" as="geometry" />
        </mxCell>
        <mxCell id="CCDfUm1BeuJQhzfp21ur-43" value="" style="edgeStyle=entityRelationEdgeStyle;startArrow=none;endArrow=none;segment=10;curved=1;sourcePerimeterSpacing=0;targetPerimeterSpacing=0;rounded=0;" parent="1" target="CCDfUm1BeuJQhzfp21ur-42" edge="1">
          <mxGeometry relative="1" as="geometry">
            <mxPoint x="700" y="412" as="sourcePoint" />
          </mxGeometry>
        </mxCell>
        <mxCell id="CCDfUm1BeuJQhzfp21ur-44" value="" style="edgeStyle=orthogonalEdgeStyle;rounded=0;orthogonalLoop=1;jettySize=auto;html=1;" parent="1" source="CCDfUm1BeuJQhzfp21ur-45" target="CCDfUm1BeuJQhzfp21ur-42" edge="1">
          <mxGeometry relative="1" as="geometry" />
        </mxCell>
        <mxCell id="CCDfUm1BeuJQhzfp21ur-45" value="为了校验确实是主引导区，主引导区的最后两位必须是 0x55, 0xaa&lt;div&gt;这是规定&lt;/div&gt;" style="rounded=1;whiteSpace=wrap;html=1;" parent="1" vertex="1">
          <mxGeometry x="835" y="430" width="220" height="50" as="geometry" />
        </mxCell>
        <mxCell id="CCDfUm1BeuJQhzfp21ur-46" value="" style="edgeStyle=orthogonalEdgeStyle;rounded=0;orthogonalLoop=1;jettySize=auto;html=1;" parent="1" source="CCDfUm1BeuJQhzfp21ur-47" target="CCDfUm1BeuJQhzfp21ur-48" edge="1">
          <mxGeometry relative="1" as="geometry" />
        </mxCell>
        <mxCell id="CCDfUm1BeuJQhzfp21ur-47" value="为了显示字符的通用，制定了一个ASCII码表，该表制定了通用字符和存储字节的相关关系" style="rounded=0;whiteSpace=wrap;html=1;" parent="1" vertex="1">
          <mxGeometry x="-810" y="820" width="170" height="60" as="geometry" />
        </mxCell>
        <mxCell id="CCDfUm1BeuJQhzfp21ur-48" value="ASCII码表规定显示一个字符要2个字节。第一个字节数代表映射的字符; 第二个字节数代表字符的显示方式" style="rounded=1;whiteSpace=wrap;html=1;" parent="1" vertex="1">
          <mxGeometry x="-580" y="820" width="290" height="60" as="geometry" />
        </mxCell>
        <mxCell id="CCDfUm1BeuJQhzfp21ur-49" value="" style="endArrow=classic;html=1;rounded=0;exitX=0.5;exitY=1;exitDx=0;exitDy=0;" parent="1" source="CCDfUm1BeuJQhzfp21ur-48" edge="1">
          <mxGeometry width="50" height="50" relative="1" as="geometry">
            <mxPoint x="-400" y="990" as="sourcePoint" />
            <mxPoint x="-260" y="940" as="targetPoint" />
            <Array as="points">
              <mxPoint x="-435" y="940" />
            </Array>
          </mxGeometry>
        </mxCell>
        <mxCell id="CCDfUm1BeuJQhzfp21ur-50" value="" style="shape=image;verticalLabelPosition=bottom;labelBackgroundColor=default;verticalAlign=top;aspect=fixed;imageAspect=0;image=data:image/jpeg,/9j/4AAQSkZJRgABAQAAAQABAAD//gAXR2VuZXJhdGVkIGJ5IFNuaXBhc3Rl/9sAQwAKBwcIBwYKCAgICwoKCw4YEA4NDQ4dFRYRGCMfJSQiHyIhJis3LyYpNCkhIjBBMTQ5Oz4+PiUuRElDPEg3PT47/8AACwgB6gKWAQERAP/EANIAAAEFAQEBAQEBAAAAAAAAAAABAgMEBQYHCAkKCxAAAgEDAwIEAwUFBAQAAAF9AQIDAAQRBRIhMUEGE1FhByJxFDKBkaEII0KxwRVS0fAkM2JyggkKFhcYGRolJicoKSo0NTY3ODk6Q0RFRkdISUpTVFVWV1hZWmNkZWZnaGlqc3R1dnd4eXqDhIWGh4iJipKTlJWWl5iZmqKjpKWmp6ipqrKztLW2t7i5usLDxMXGx8jJytLT1NXW19jZ2uHi4+Tl5ufo6erx8vP09fb3+Pn6/9oACAEBAAA/APZqKKKKKKKKKKKKKKKKKKKKKKKKKKKKKKKKKKKKKKKKKKKKKKKKKKKKKKKKKKKKKKKKKKKKKKKKKKKKKKKKKKKKKK5208SXFzJdqbeFfs93LbgkyfMFbAPCEfrRe+I7u2EAjtoZGluoISuZchXkVC3KDoCT+FaeqahJpsD3LRRfZo1zJJJKy7ecdArE1z48ReIVtYJJdLVW+2yCbMM+Ftwz7W+512hDn3+72HQaVe3OoQ/apIrdbWZEktnilZmdWGcsGRdvb1/CovEmpXGkaFPfWqxtNGUCiQEr8zqpzgjsa0+3NZev6udNtDFbMh1CdG+yxurMrMCoycfwgsCfaqOpeKYo7K3/ALNuLaW5mvltGaYMiIRzKSDg8KD36kda2LTVbC/nngtLuKeS32+asbZ2bhkZ+uKx7fxJPc65eLFEkmmwKscbK6B5JQTvYbnHyD7vQ5Ktzxzck11zPBBb2W+WV8bHuoVOwfeIAYliB2x+IrXrnLDxJNdarPNIsaaI8otbS5wcyTDhjnpsJyqnuV/2hno6xZddW90qafSBJJLhxA7W0jxuykjqo5UkdQehp0viKG0sYZrq0vBLIUQwxWsjHe2BgfKM45/AE07XtSvLOCGDS4FuNQuZAIo2GQqAgu7cjgL7jkqO9UbjxLd3VvEmkadKbiaYJH52wgBHxMSofI2gEckfMyitPTdYGp273MVlcRwqDhn2ZZlJVl2hiQQVwc45qOfxBBbT2UMtpdq19OIYf3Y+9tLZPPQBSSaNT1ZtP1bTrdjClvciZppJDjYEUHOen1zVi/1WDT5rSKVZXe8kMcQjTdlgjOf0U1Vm1O+XUrYQ2Mr2bK4nLREOjcbSvqDyCPofrbs797qeeNrG5t1ixskmUBZcj+HBzx05ArN1fxBcadBDepYzfZI5P9L82PDLGR95cHJIOPlwc5pw1q9jvpll0+ZkcqLW3RVErKMB3OXAwC3QdAPU4FvX9TbRtEudRSNZDAA2xm2g8gde3Wq513A/12k/+DH/AOwqfQdSl1bw3YapLCqS3dqk5jjOQCyg4BOPWqGva9qNnb28Fhpkov7ydIoFm8tl67nJCvnAQMe3bmtC41G9jiBh0a5lcsBtMsK5Geed/pk1Zub+zs2jW6uobdpc7BK4XdjrjPWsiHxLbP4nu7Br+yFpFZwzI/mDJdnkDDOcYAReMd61rPUbLUDMLO6iuPIfy5PLYNtbAOOPYiqK64bbT5bnVLOe18hpRIyxl02of9YCBwpHIz7+lVtJ169m0aG6vtOuXuZm3GGC3I8tWb5QSxwSqkZ57HAq/qt/cWstnb2ccck9zMARISAkQ5kc49BwPdlqjqviMw2FtdaZEbmK4uLdEnUBo3SSRVO07hk4Y496049RX7Pc3F1BJZR2+WYzlfuAZ3/KTgdeuDwagj163a6tIJYLi3+25+zSSqAspC7scElTtBOGAPB9KkbWbRb+eyHnSTW6o0gihZwu7OAdoODgZx6EVVsdYnjtZjqsMiNFI+2SO2lCvGPusQR8px1HtVq21iC5023v/IvI47gZVHtX8xf95QCR9TxVK18RifXNQsnhmENskTRlbSXcS4bORt4+6MVHoHiWTVdN0uaayuDLex7pJIrdhDEcZ5Ldj04z+FdBRUNxcx2qB5BIQTtGyNnOfooJrKj12dL2+S4sLpraJFktpYrSXdLkHchXb94Edeh3D0NO0vWZ3itLfUoJhfT5L+RZzCKLqQCzDA44ycZPStmiisDVNdu4dbisdOgWeO1Tz9SbaWMcZ4VVA6ueWx6L05FbcE8VzAk8EiyxSKGR0OQwPQg1m6/qs+lJYmBFc3N2sDbkZ8AqxyAvJOVFU7rXb63vdNgVYyt5diBy9rNHhdjMSC2Bn5a2dQv7fTLCa9un2wwruYjqfQD1JOAB6mqF7qtyk1q1lbzSR+btuUktZQfLI+8p29Qccdxmp11u2fU4dPWG7MsqM+42zqqAf3iRxnt64NUdV8QT2GpkRWxl06yhaTUJ1AJjJxsUZYcgZZuuBj1zUV34mure8MrafLHp9nEz37HYzRkkbACHwPly7dcArnGc1rvqUdtYG8v43skDhSJSrEZbav3SRySPzrJtfFUUWl3M+pSRpdQQSXZt0jZSsIY7Ac9WxgH37Va0jXop7XTrfUbyzGq3UWWgt3yN4XLAcnp9atXGs2ltrVppMhf7TeI7x4X5QFGcE9iRnH+6fSnXGpLDdm0ht5rqdYxI8cO3KKSQCSxA5IOOc8H0qFfEFi2krqTebHG0phWN4yJGkDlNgXrncCMU+31YTX5sZbK6tp/JMyrKFw6ggHDKxGQSOM9xTLHWkv8AUbqxSyuY5LNlSZpNm1Syhh0Y54I6etF1ra2uq2+mtY3TzXKu0RTy9rBMbjksMfeHWn67qR0nRLq9RPMljTEMf/PSQ/Ki/ixA/Gq8upX9ncaJaXMdu818zR3DJlVV1iZzt68ZUjmrWmahLfC4S4sZrSa2l8p1flX4BDI38SkEc8HqCBV6iiiiiiivO7ub/ildQ/eOFudSmcKLZ24a62o4dfunABHPXFaCXrR+Kr+Z7i6LRQWpMkWmO8jIXkBjxtJCZXPAB5PPHGl4xnQaLc21yYUtpojuYzESHBydq7GzgDkngd+BXLQ3K7b2PUJNMD+UJ1gieANDE2Vwz+UVZxtYkA/TNdR4S1a3vLVLG0urGe3s7eJIxFcl58BcZkQou3tUnjgbvCV4OeWi6HH/AC1StD+yLc3ME7TXZeBtyA3Um3OMcrnDcHvms/VjMvi7RjbxxyP9muuJHKDGYu4B/lWZpMd5ALjU4LYXFwurSwSQht2yJ5sOUOByPlYk9QmPer+moZtf8UKqByZYUClygP7hDjI5HWsiSOQ3XiWaTS4Wgto4LZltpyHiVI9+Y8JnIEueOeOM04fb21nw+LNbGWf+y7iSO5kdiJf9QN7AIp53ZwPU9K6m9sZ9Si+zzzeTbMuJkhJDSeq7uML9OT6ishbG1m8YXmmyQI1l/Y0Ef2bH7vb5koxt6dABV7S9IudGjuEbUrvUbTb/AKPbThWeMf3d5wW9BuP4mquomGw0q5u49AnQW1szLGHjVAFUkDCvwOOwqtpdq9oh1tdFvrrULiFflWeIIqnkIgMmABk8nk8/Sp/F19dW+kyLYW7Jc3AjiluDhTAjuF4bBy3zHAGcdfrJbB7HUP7FgmtoXS23W++1Zi8KnGN/mZYqWGc4+8D3pPBa3z+GNJubq9E6TadA20xnduKBixcsSxOef6Vkr9nuPG6afcnzdOjinhsd8YZBcEKZIxnOdqg7eMDLr/DilhskuNS8OnUtHtLe5b7Uk8SwKFYqMBgPQ43D0BrY1uFZNc8PW6Aqq3Ez/J8u1RbyJxjpy4rPsNU1R7rT55Incx3U+m6iQvykIGZJ/QD5fp+8I7CtHwxaznSbi9mnmEupzyXS7mz5KOf3YAPAwgXIx1zXMazFBf69Y26fvrOSRpZLuWOFBcSR4IAIiJZQcEnBBIA7GtCKNTrFrYQuLeS6jlIubXyg8QUDpmAdc461teJms20tbDUJ5YIL11g+1KBhHJG0H03EYBxjP1FZkWr38otc3U4+0avPp/3ouEj835/9X1/ddPfrV/wxc28Hh2OGCK4Ww09Bb208oDG5jRQBIoXkgkHHHPBHUVmWTPe+LdUm1qyMix2tuLW28szeQjtITuAyNzGJSSOmAMnGTHbjTrrXdRuZdIkl/si4RbKC2syh3GFHLN0BbLkDJAAx65rZ1WK6k13Rbu2tJJkh84ydF2BkAGc9OapW1zdf8J5qLfYG3HTLUFfMXgeZPz1/ziruhWlyH1s3cElt9qv2dPmwSvlRrkEe6n8qx1tRqCarp1zf6h5CasOFje43RpFE3lkkNhSxyR35HTNN0adoJdWuI7jU3Kam8jxQWPNx8ija2U4/MHgVa8SW8N3rFtCE1MyXkHlyNAJfLSEHLDjgO2QvJAxyeQM5PiD7MGuDHbW9nEj2sUYWGNt7mdFP8OVZQCpGSpDDHIrpbLT/AA/cXWpQ21oha7hVLoeSyo8ZBUKDgAjrkD1561GlpDql/p08W2LStKfNtz/r5dpjUj/YUMwB/iJ44ALW5oYZJpGOh3BJkLM6NEnmHGNxw4J4A6+grC0+2TWb2S8udIu9mn3kkcEMU6BdyHG98uMnqMfd+tdRbyXF9YkzW8+nSsSNrNGzqM8HILLyKx7mC4tvFNhbRahOq3sE7zsEi3OY/LCZOztvb86doyy23inVNPFzK9rbWlqYYSFCx7jLnAUAD7o/KtUarp51Y6SLuL7cIvONvu+cJnGcVcrH8XO8fg3W5I3ZHXT7hlZTggiNsEGsLz1PiBjDcRnZo9y37i9ebB3RYJz0NW/DRM2uCeUmSVtBsCZHOWOWnJyTzya32trxnYjUCqkkhREvA9KabS9II/tJx7iFP8KbDZ31vpyWo1F55RkNdTopfH0UBSe3T6g1jarp8Oly6BDamRfN1cPNIXO+ZjDLkue+cD24A6DFXoPDpsdY+2adqM9paSMXuLAKrROx53LkZQk9dvB+vNU/EbPLqOk2Vwodp70taiFmVlKxuSzEEYUDrjuRWelzBcvJc3UqRyaTeybEaeeYlkBXdsyc5DHgDNdIvnPpVuL+2j1OUlWYwRKqEjlXCu3GMDuTmsbWZTZpaR22jTrJeXSwb5JUO3IYkgeZyeOAeKvaPajRRFZ2ej33lzyM89zNPGxDHks3zk8nsowM9BVHVmn1HxHp2lxQ/Z7DdNcGQ5XzpkwR8owSgZ8nkbiPQcw6ne3d1ozLb3cELw6tbW1zGls0bK7XEW4HEnIYOD7q3vV7xNHdxeF5RcTpcy/a4GVgnljH2hCF6np0zVa5tLrUPFs6zJDFLHp0ckSBzJGzrI5QvkLkBsHHsOakNxPeeIvDE91atazyWVzLJAxyY22xZX8C2KpeIJnS7fWhbSlNO1G3AnBXaIlyknfPHnSjp2rY1LTL5tUfU9D1CGG+ESxT29wu+GZQWK7sfMhG5sMPXkGsWfVG1bWfCz3FqbTy9RuYrmAsGVLhIZAOeh7kHvkV2hMXnqCU83aducbtuRnHtnbn8KwtC/5GnxP/ANfMH/pPHRqn/I86B/17Xn/tKqfjuxlvdOEkx22tpNA6IDzJKZVGT7KCcDuTn+EZk8U2Nva/2ZqTSXIS21GMyt9qk+VZA0RP3uBmQdO3tW9a6daWUsssEZWWfBkdnLM+OBkkknFWqKKKKKKjnSSS3kSKTypGUhXxnafXHfFZr6IskdnZfLHp1kY2SFSS0jJgpuJ6AEA9ySByOQZrfT5IdfvtRZ1MdzbwRKg6goZCSfr5g/KnatpcWqaVf2ORC19bPbtMEBIDKVz74z0rP1HQby8vNRkgvI7dbvT47RXMe8qVaUsSvHGJBjnqPz1obQW1osNuVV0iEayMuegwCemaz9T0e81bTpLG5v4xHIVLGO3wflYMOrHuKnubPVJ7d4o9VS3ZhgSxWw3L9NzEfmKZeaRNd6rYXwvXhNpDKjeWi5cvs/vAgD5D270unaTLp1jdQR3ztLPcSTiZo1ypZs4I6H9PwqPw/pN3psd5PqN1HdX19cedNJFGUQYRUVVBJ4CoO/XNTromnpNcTJE6PcyebKVmcb2wBnAPooH4Vjx+ETca7Ldap9nnskt/ItoUMmcFlYlwzEcFFAxxxniunAwMVmx6ZKviifVTInlSWUVuE/i3K7sT9MOP1rTrJ8R2Wp6jo9xZ6ZPaRPcRNE/2mNmBVhg4KkYIBJ6GtG2hFvaxQBtwiQJn1wMVU1zT5dU0trSF0R2lifL5xhZFY/opqXUY717Zn002q3aqRGblCynPYlSCASBzz06GodK0xtO8O2Wk/aG3WtrHbmVBgnaoXIz06U9tHsGjso/IASxl82AAn5W2suffhj165qnJpOozeJ7bUJr2FrK1STyoRCRJvfA5bOCAB6A/Wrdxp8s2o/bVnEckcXlQnZu2hmBc499qj22+9MutNury1ltpdQPlyqUcCFRkHqPxFPt9PnSe4a7v3u4ZlCi3kiQJHj0wM898k1V1fRrjUNT0+5gnSBLRZQ3LgncFAxtZT2Peo4tBu012y1B7xZI7eOVWUmUk7guMbnYdvatDULB79PJaSE25A3RSQ7wxByD19QPyrHk8HiaCKCW/Z4476W92mIYZ5N+5Tzyv7xuPzzznZsrW6tpJmnvjcI+PLj8pUWLAxhcc4PvmoINNmh1/UdSEqbbq2gijXBJUxmQkn2/eD8qj0LTL6wl1K41G4gmuL6787NvGURVEaRqMEk5wgJ56mtes2HTJI/E13qpkUxz2kNuqDqCjyMSf+/g/Kr1xG81vJFHM8LuhVZUALISOoyCMj3FZC+HWsoANJ1GaznIzLJIomFw39+QN1b3BB6DoABRtdC8UWTz+RrumAXM5mlb+zX3FjgHGZiBwBWzcabNc3Ebvqd2sKRhTBGyxrI394sF3A+wIHtVaXRZtRlh/tKYC2t2DxW0Mj/fHR2kOGYjqMYweeSBh0Oj3Zsr/AE681Oa4tbgFYJOFmiQjBUuBzjsSM+uetQ2vhaO2uraZ9W1S5W1bdHDNODHnBAyoUZxnj8K2LhZ2gYW0kccuPlaRC6j6gEZ/MVneHNNvNM06RNQlhkup7iW4lMAIjBdicLnnH1rWrNvNLe612wviyeTbQTxSRsMl/M2Y/D5TmnaboemaRPdT2FokD3bBpipODgYAA6ADngccmlGkWx146y6IbkQfZ0YIAVQnJyepyQPpjjqc36oa7YPqugajpsbrG95aywK7dFLKVBP51XfSJ59fa9uJontRZNbJCqEN87KWLHPP3BjAHU1Houi3WnaneXVzcwSRvBDbW0cMRTy4o95G7JOTmQjjsBW3RRWZq+mS6jcaXJHIiCyvRcPu/iURuuB75cVp1lSaHFeX015ft5shTyoAhK+QmQcqRyGJAJYf3VA6c50Gg+INKE66TrlrJHNM0zDULIyPubk/MjoP/Ha3dPS9SzQajNDNc/xtBGUT8AST+tZ2qaXqd/rGnSLc2q6fa3H2h0MTebuCsAA27BBLHPAxjvW1WfdafLPrthfq6CO1imRlOckvsxj/AL5NVtb0u+1F7WK1ltY7YXcFxch428xvLdXG0g4ySijkdO/GKs65pravpbWST+QWlifzNucbJFfp/wABpltpDwa3JqUl9LOXtlgCSIoxhi2cqB6+lV7bRr//AISU6pfahHcQwQPDaRrDsZQ5QuXOcE/IoGAOKlk8PW8+gXWjTXNzJBd+Z5jsV3/vGLNg7cDkntxnjtTv7DVbv7ZHqF7HcGBIHkVkPmKpYgspUru+Y84ok8PafLpq2LK+Em+0LKHxIJtxbzA397JPtzjGOKsWmn/ZneWS6nup2Xb5023cq+gCqFH5c8ZzgVBY6KthqN1fJe3Mkl4yvMsmzaxVQo6KMcAdPSi60RbrVbfUmvrpJrZXWIJ5e1Q+NwwVOfujrS6/p0uq6RJZwOiO8kTBnzgBZFY9PZTVu9s7fULKazu4llgnQpIjdGUjBrH0PSNY03U5ftupJf2MdusVq7gidcMSd/ZjjA3cZ2jI71v0UUUUUU2QOY2ETKrkHazLuAPbIyM/mKw9NutZ1KKW5+12cMMVxNEuLVj5qoSm7/WcDcCfcAc81WTWtTubLQLyGWBE1aeP921sQ4jMbSH/AJaEA7UNdPRRWLbaxe3t5qVvBbWyixuvs++Wcgt+7R87Qv8At469qJv7UjljuLnXbG2tkdS6LbY3jONpdnPXpwAasajfNZ3MSNqFrbCYERpLAzMxHJwQ47dsVk2fiG4nurrztV0uO2WfyLZ/IfdKwHz8eZ2YMMdflNaek3TXt1dyrqsd3HERC0McGxYnADHkkkkhhnkjp05qpeX+o/8ACVNp9uZTAtik22JYyQxdgSS5HGAPyo02+1F/FVzY3MkwgjsY5VjlSMHczuCcoT2Ud6v6jrEWn3lraeU801zvIVCBtRRyxJIGMlR171R/tS6g1Oa5kJ/s8wgmJ5YQY3B5YNv+6R1B7jPrV3TtWe9F1LLZSWltAf3c8siFZlxlmGCcAHIz0PUVkR6xrUN7LLNBEYb52NlDNJ5f2eNEzvkwhYBsE5PTKg4JqS21LXlumke0SSPUZW+xxySFBboqcb8ISN20tz0yF4PW5r+pXEEK6dZeYuo3sT+Q8aBxFtKhm56435A74rPv/EU13b29rpRuYbp77yJXe33uscRBlfaAcg8JnHVx0rasdYtdRvbu0gWYSWewS+ZEyD5hkYz7VmnWL0+INRsRIqw2yxFMWUkx+ZSTkoRjp3oh1a+fxTZae0ytby2lxM4NlJCSyNEFwXPP3z0rcuFuGjxbSRxvn70kZcY+gI/nUHlap/z+Wn/gK3/xynWC3McJhvbyK6uFJZmji8vCknaNu4/TOecVztrrVy8moNeXlzGkN9NDEUa2RdqngfPySM1DJ4ie6vbG00vUrmeaW6jEnzW0kflhv3gLJnB2g++fetXxVqr6Vb2Ukdw0Re8iEgjTezRbgHAXBJ4I6DPPHNZeseMUa3vVsLqCFYHs/KuRKpMgldC2FYYwI2Bz/te1dPZ6lY38kyWd1HO0DBZPLbO0kZH+fr6VaorN17U30vS3kt4xLeTEQ2kOf9ZK33R9O5PYAntTLC41G3sbeC8tbm6uVjAkmJhXzGA5OA2BzUmlauup6R/aP2aWFd0i+Wfnb5HZf4c5zt6CszT9curjXtVthDczRpLEkCPFsWEGIMSxxkZP16joM0qX+tXuq3tuLmw0+DTpIzMTE0xkUqHI3FlCjHGcGtLUdYi0+8tbTynmmud7BUIG1FHLEkgYyVHXvVH+1LqDU5rmQn+zzCCYnlhBjcHlg2/7pHUHuM+tXdO1Z70XUstlJaW0B/dzyyIVmXGWYYJwAcjPQ9RWRHrGtQ3sss0ERhvnY2UM0nl/Z40TO+TCFgGwTk9MqDgmpLbUteW6aR7RJI9Rlb7HHJIUFuipxvwhI3bS3PTIXg9b3iC7v7awItPKheXbEk7SH91K5CoSuw5XcQD9fxrKfxDqklj5wWG3mmikNnAkbzvcMq5yQANgPBHXhh0rU0q+efU5raa/kmmjt43eA2bQqm4sAwLDJyVYYyfu/WsyfX3vvEB+xaxZ2un6buS4Msi/6TLjlfUKncjGScdjV3QdfOoDF9cafHLcSt9jhim/ePGBnLKTw2ATgdAeeQa3qr317Dp1nJdTk7EwMKMszE4VQO5JIAHqaWGS4+yebcQgS4LeVGckf7OTwT78Csi61TURf2U9tbOLPe0d1HLJCCcghSp3/eDgLg+p7gVG2ranY3FzcXlnO63MyxWNn5lunIB6MXGWbDNjsB9aueJr+503w1eX1p8lxFGGQMu7nI4x3rOGr6iZTCJf3gUMU8l8gHvjy+nBrS8MXd3f+GdPu75t1zNAryEpt5Pt2rJn1977xAfsWsWdrp+m7kuDLIv+ky45X1Cp3IxknHY1d0HXzqAxfXGnxy3ErfY4Ypv3jxgZyyk8NgE4HQHnkGta9kuYbcy2sSzOnzGInBkHcKegPpnjtxnILG9t9Rsoby1k8yGZQyNjHHuOx9R2qdjtUk4GBnk4rldQ12+bWEsU1bTNOg+zPcyXH+tICso25YqBkN1x2/GrE/imePS73UItOSWK0uWt/wDj4wXIcJkfL0OQa0NV1aTT73TrWK3SVr6V4wzy7FTbGz5JweykVmXmt3NhqqXNxqWkQ2bQFWtpb75mfIKsp2Z6bgRznjHetPRNTm1e3e7KW4tXb9w0UjlmA4O4MikcjjrkVjz6+994gP2LWLO10/TdyXBlkX/SZccr6hU7kYyTjsau6Dr51AYvrjT45biVvscMU37x4wM5ZSeGwCcDoDzyDW9Ve+vYdOs5LqcnYmBhRlmYnCqB3JJAA9TSLPJFYtc3phtyqF3y/wAkQAz8zH07npXOyeIri51LQ47S8tpLe7vDHK9sC6OohkfAcjHVR0OarW3i24S1vZLnUNNjWy1C5SZrmYCQRRzMAqxrjnYAASevY1veJtQn07w1eX9kw86KMNGcbgTkdu9Zw1fUTKYRL+8ChinkvkA98eX04NaXhi7u7/wzp93fNuuZoFeQlNvJ9u1atFFFFFFRXCzPbyLA4jlZSEdhkKfXHfHpXn/h9LCBtOggk/ejS72OSSGPzZQTNEoZgoJJ57+9XdWEum6LBJa3N2ZdHtJHtGewZIw6wlFDFh3DHFdJq2v2WgLYrqMj7r24S2jZIyQZG6Zx0FalFcTbtt1iZks7Sb+1dbmhElxFu2rHb4OP+BQMPzrSvo2sdQ0mBrHTHjvrswPi2wVAikkyOev7vH41Pq//ACNHh/8A66XH/oo1z1mzb9PXzbkr/wAJJd/IYx5Q/fXHRtuc/j610Hh4FrzxEFba39pkA4zg+RDWNfyCbWdaLLbXE+l6epM80KtubDP5YUjoAVJIP8Y9qs2Vs0kdrcWi3NncXiRLLPa2EaBFHzc7hjbkkcAnn8R0d19rdjElpbTwlfm86Yrk+m3Ya5y8trnUvEbaTc6bYNZpZpO0AlIEjF2HzNs5HH3cYPfPSt61N/B5qS2NrFaxRqIEtZSzEjquCqgDpjmues4NRuNY17UJiP7QtjHHAkG3Kx+WH8oM4YcluSAMnHYABxhbVPEejzrqF+i3WkXUil0jSWMM9tx9z5ThvqMVe1OOceKtESCZRItrdDfKm/I/ddgV5qjo9pfCC6vLFomvV1eRZtw2rJD5xDryTtwGLDHOQOvStDROfE/iRvS5gX/yAh/rWVLeRTa7F5cU9rfzamlnqEZmkClBBI6FNrAEEKCD15OR2o065lm1KOa2t/tepR3l1bAyXEmy3tBPtZmyW+Y+UoHHJ9gTWx4maCCz8yLT7e81S4/cWccsYbc5zjOeiryx9gazY9NUeLJrb7LYvKukxPsMGITJ5jgkLzjOMZ5OMdcVp+Hp9IvHuprLTobG/hfyL2IRKskbDkBiB8y9wehBrnrF7q6uFhsnuFaW/vLxljJAlh8x416Oh67W6+lUtKuJ7CxtbmWW6WO11C5mmhjkO6VPOlTGDNggO6k/L26nOT0fiiwh+3abqJLmY31tCAW+VV8zJwPUnGT7CoPE1pcWHh+aKC3gaJ723kaQykMzG4jP3duABwBycAD0rpLQ3x803q265f8AdCEscLjoSQMnOeRiquja/Ya8Lw2DyN9iuWtpg8ZQh169e3Nadc34zsYZNFnunTzZVMSRrIflUGVM444zxk89KjvLEWGrWOry6ZaW1tYpM0r2itK43LgfKsYJ79M1N4Za5h8KxwxQAX4ha4WCfMePMd2QMcEjPOeMisMm4tH8T6lrCW969m0MzWkS7YWYQqRywLcDjPT27VavdM/sZ77UbjRNKuIb66tYhCWyIwzJD3jweWzXUXCXAAt4LG1ktggGJJSg+m0IRjpXO3ltc6l4jbSbnTbBrNLNJ2gEpAkYuw+ZtnI4+7jB756VvWpv4PNSWxtYrWKNRAlrKWYkdVwVUAdMc1z1nBqNxrGvahMR/aFsY44Eg25WPyw/lBnDDktyQBk47AAOMLap4j0eddQv0W60i6kUukaSxhntuPufKcN9RirGqwRnxNCZVhm8rTHG65j8wbjImDtA+Y8HgYz0rGCwafLFKtt5LWaXUty7LGsgQxEo0ioBsB5CqeQAPoNXwxaS/av3weSNtEsYGl3EhpEacOu7+8Nwz3Gajs7G6u9N8RaXZw20cM91PArGQr5e6NV4ULjAz61oXFtex32nX11Hbx2umxStK6TMxxsxwNo9K36w/FKEW1hdMcQWl/DNP6BASNx9lJDH0C5rcrzpY4zaITHGT/wkj8/Ymz/x/t/y1+7/AJxV+ID+2rfGP+Rmlz/4ByVveJIJhot/eWXntew2rmBEndVLgErlQwB5rAZopLpJo3uHufsjSxTCXIMJI5D+fjaSF4zzgVvaBpmzSoLm9SX7fd2kQvC8rkltvIwWOMEnpWTZ2N1d6b4i0uzhto4Z7qeBWMhXy90arwoXGBn1rQuLa9jvtOvrqO3jtdNilaV0mZjjZjgbR6Vusyopd2CqoySTgAVh+Dlb+w3nClYbq8ubiBSMfunlZkOO2Qd341tyyRwxPJKwWNASzN0ArgW03VLnxrJqNrJHZ3dxpsjWtvPEGjWNJE2LIMZG4lmOMEbgOxytzeW6eFNct2ljWb+1pP3YP/Tda3fEaGbW9GReTELqdv8AdEJT+ci/nXPL5mn+GPCmo/arKP7EttM6iA7lieIxM7fPyo8zJPHTNdvbxXJNxFe3kNwJMFUiiMZRSMY+8SckHn61ztnY3V3pviLS7OG2jhnup4FYyFfL3RqvChcYGfWtC4tr2O+06+uo7eO102KVpXSZmONmOBtHpW/WH4pQi2sLpjiC0v4Zp/QICRuPspIY+gXNbZAZSrAEEYIPQ1yF3dSyeLr63ku4Eis0gltlmlRPLZlcMVzGxzjjjHU+tQQQxXPjrT0le1uFe0uZZAjRy7mVoQpYiNTxuOP853/EkEw0W/vLLz2vYbVzAiTuqlwCVyoYA81gM0Ul0k0b3D3P2RpYphLkGEkch/PxtJC8Z5wK3/Duntb6dbXl2so1G4tYvtZkkdjvC5IwSQMEnpWxRRRRRRRVSy0yzsIoUghGYUZEduWCsQzDPXBIB/AelVdY0NdYaEPe3MMKyK00MbDZOqnIVgQcDIHIwSMirt1ZQ3jQmcFlhkEqpn5Sw+6T64PI98HsKsUyVXeF1jk8tyCFfGdp9cVmy+HrKVdNQNNGmnSNJGI5CpZijISzDk/fYnnk9afJoVpLd2dy0l0Xs5jNGGuHcFijJyGJ7OaXUdIXUL+xuzcSxGzLsoj4Lbl29agXwzYokaLLdBYrh7lB5x4lYszN+JdvzqbTtI/sxb/yrmR3vbgzl5BkoxRU/H7gNRy+GtMuNLbT54WkRmZ2l3lZWds7m3jBBOTnHbjpxVRfDOowCOK08V6pFBHgCJo7d8KOwYx56e5rfVdqBdxOBjJ6msuw0Sa01u61O41Oa8aaJIYlkjRfKQEnGVA3ZLHnFa1UrPThaahf3fmlzeyI5XGNm1FTHv8Adz+NQR6PKPEX9rTahLOqW7wQwNGgEe9lZjuABP8Aq0xnpg8nNSXujwX+o2t7LJMrWsciKsUhTO/bnJGD/B+tFno0FjZT2sE1wFnmeYuZSXVmOThuv55981Fouh/2RaXMbX1xd3N3KZZ7qXaHdioUHgYGFVQOO1LNoMNxJBJNd3TyW8vmxtvUEPtK54HPDEfjUUXhizggmhgubyFZ5mnlMU2xmkLbiSwGeT7+3StP7LD9oNwUzMU8veTyF64HpnvjrgegrN03w/8A2frV7qkmo3N29yiRRpMQRBGpJ2ggZPLE5PPSr72MWbmSALb3FyoV50UbjgYU+5GeM1QbwxpjyRLJAklrFaC1W2dQybQwYZz15UVDqnhKwv4reO3CWCwuCRbwRjemQSvTIztHIxWhqemrqa2qtKYxb3UdxwM7ihziorzRFv7c291fXckRdX25QcqwZei9iB+VWLawNvdSXBvLqZpFClZZAUGO4UAAHnqOvfoKfZ2UNksgiBLTSGWV2OWdj3P4AD2AA7VYqpqenw6rp01jOzokoA3RnDKQcgg+oIBqj/Y+qjhfE17j/at7cn9IxT9N0N7G/ub+41W8vri5iSJjLsVVVSxAVUUAcs3PXmqx8KRSafq9pNf3Ux1ZsyyybdyLtChRgAcAdetW73w/Z30CRSS3YCTRTD/SnbmORXHDEjGVHatOsqw0Sa01u61O41Oa8aaJIYlkjRfKQEnGVA3ZLHnFa1UrPThaahf3fmlzeyI5XGNm1FTHv93P41BHo8o8Rf2tNqEs6pbvBDA0aAR72VmO4AE/6tMZ6YPJzU82nmW5luEuZIZJUWMvGBkKuSAMggcsecenpVdfDtiiCALi23iSSLkmd853SMcs/IHU/XNTw6TBbaxcalC7o1zGFmiB+R2HR8f3scZ7jHpVM+HpI7u5nstc1GyW6l82SKIQMm8gAkb42IzgcZqO78NXN9aTWl14m1aSCdDHIgW2XcpGCMrCCOPQ1txRiKJI1LMEUKCzFicepPU05lDKVYAgjBB6GorW1is4BBCCsS/cUnIUeg9vQdunSsk+GlMFvB9vmWKLUXvnRVXEjNM0oU5GQAzDoece9Sz6As2uWmo/bJkitpHmFoqoI2lKFN5ON2drN37j0q3faZb6lhLwvLb4+a3JxG/+8B94exJHtVW20PyNbm1GS7aaNrcW8NuYkVYkzkjgDPbr0x3qbS9Gg0h7gWkswt5mDJbM2Y4D3EY/hB646Dtiqp8PSR3dzPZa5qNkt1L5skUQgZN5ABI3xsRnA4zUd34aub60mtLrxNq0kE6GORAtsu5SMEZWEEcehrUm0+3ubRLScPLAoAZHcnzAB0b+8PUHr3zVnpwKKptpqNrkeqmRt8ds1uE7YZlYn6/KKlSws0hkhW2j8uWQyuhUEM5O4k5755pj6fFLeS3MpLtJD5IHTYnU49ycZPsPSsy08H6Xp8Nvb2SvDbRxtFPCW3LdoVK4kz94jgg9RjHQ4p2heGhoF3cPDqN1cW0sUcUUFwd/kKhYhVbqR8565PA54px8PSR3dzPZa5qNkt1L5skUQgZN5ABI3xsRnA4zUd34aub60mtLrxNq0kE6GORAtsu5SMEZWEEcehrbijEUSRqWYIoUFmLE49SeppzKGUqwBBGCD0NRWtrFZwCCEFYl+4pOQo9B7eg7dOlVrXSxbazf6l5xY3qRLs242bAw6987qgTRJP8AhJBrE2ozTrHbvDBbsiBYt7KWOQAT9xcZzjB55q1faZb6lhLwvLb4+a3JxG/+8B94exJHtVW20PyNbm1GS7aaNrcW8NuYkVYkzkjgDPbr0x3qbS9Gg0h7gWkswt5mDJbM2Y4D3EY/hB646DtitCiiiiiikJCgkkADkk9q42TV01bV5dVGoXdppmkb0TyoJGWZtuXkfAwVAxtB929K0dC1efdHDq11I9zfyO9rEbN4xEgXOwtjBIAyT6kgZ4ravVujblrJ1E6fMqv92T/ZJ6gH1HTrz0LNL1GHVtOivYAyrICCjjDIwJDKfcMCD9Kt0UVz3jK9ubfQ5ra0S5We6McEU8JClGkkVBg5BB5zTz4njS7+wpp92ZUu0tCHZPvNCZRzuOflAzn1FXbDVXvNTvLF7N4GtFjYszqd2/d6em39a5OK9vm0Ownjurl3E7yX0z3LqscAlZRk84zgc44VWPapbu9urvwzqGoxG4tYo540tJ47+R/OXeoZxnHyk5APcc9MZ6W61KVtYTSLLyxP5H2iWSVSyxpu2r8oIyWIbuMbT7CrGmS302nxvqVulvdciSON9y8EgEH3GDjtnFW6xI9eebxeNGihU24tJJWnJ5aRHjUqPYb+T68djVS+1OZvEGpafPfXVrZ21pBMGtYNzfOZQ2W2tgYQeh681WsNWiurq7sjr8lrZQQW720juiyyI8ecs0gJPbng89a2rC70y30lVh1gSwI7RC5muRI2/JyCzdSPf+VRi6tAAD4oz7mS35/8cpLa+0631JVfxH9qlvMRw28k0RGQCflCqDnrn8PatqiqWrXk9jpss9ravdXAwsUSKTuYnAzjoozknsAayL28nu5rWaK4hge2m3ny55MSL0ZGHl4IP6ECp9L1y61m+U2SWUunxF0uJ0mckSA4CqCoz3z+GDVPXrrUre+XU4rhbeC0zBbWspI+3TOQOm4dMYXPGSTwADTdRk1y3lbVXuoQtiphhhdGhS7kdwOhfHHyom44LEngEGultUuEhAupo5pcklo4ygxngYJPQcdayfFmuPoGkx3McE8pmuI4C0MXmNGGPLbe+AOPcj6U3RNak1PXdXsXjuYhpjpCokjwsoIzv3dzkHjsMHvxWHiHUR4W13VGW2M2lyXSxqI2CuIc9fmzzt9eM96n16TW5/DkH9j3kdvqkzRFWEAdWyQWGGzgYySeeB61No39rtrOsSXt2s+nGVBYr5QQpgHeM9WGccnuDW1XIWevXPmW2uz28gttWaGCKNrr5LdNrMXIxjOd2T6BaLfWb/StM1DXb2yvp0u7kSQRNIgWOIlY4wAWypIwxGOrGtXxXrc+gaK17bQLPKrZ2NnGxVLueO4RGx74qxqWpm1awhtzGZdQn8mKR+UX5GfJwRnhDgZ5JFQyaneaVHqNzrIg+xWduJ1uYVK7x829SpJwRtXvzupsd1rzW1neG3tgs8kfnWoVvMhRiATvzhiucn5R0Ppyl/qOpW/iSw02GS18q9jmk3PCxZPL2ccOM53+3Sn+JtSvdI0o31mYDtkijKSxs2d8ipnIYYxuz+FaElwLGwkub6aMLAjPLIFKqFHJOMnt71xS60Y/h5qOrjWCl9exy30SNNhoFJJRFU9MKAOmCc+tdFFqbnxFFBDqVtd2VzCx2Ku54pFxjDKNu0jPDYORwT0FO5u3fxHdaZJ4hktLdYEP3oUfzZHIVVJXPAA9T8w5qO/1G9j0vxLcpqFyg0oSCJv3R3kQLJ08vjBfHUniuks45YbKCOeRpZUjVXkbGWYDknFcppuoSSy6iLjUIsx6hPGgl1IxFVDnA27TgDtWn4OuJbnS7qSa4acjULhVYzGUBRIQAGPUAAYqvceJrz7Jquq2sET6dpMrxyIQTJOI/wDWspzhdvzAAg5KnpmujjmjmiSSNwySKGUg9QeQaV5Y44mld1VEBLMTgADqSa5+x8UvPpOvanc2bRx6VNIEiX77xrCkgznox3HjtwO1WBqt7byaY9ybWeHUpBEv2cHMZKM4IJJ3rhSM4Hr7Vt0VHP5/lH7OYxJxjzASP0rl9L1C/j1fXoproOY79VUG3lkVR9nhOFwSFGWJx6knvU3gxtVn0HTbie9ilt2gberxu0rMW4O8t29Mfyqxr13eQ6zo9vay3CrcNMJEg8vcwCZH3+ODVPXrnU7WwhdJtTh3XtrGzv8AZ8bXnjVh8vPIJH410d1cwW0O64uY7YN8qu7hefbPGazRdWgAB8UZ9zJb8/8AjlJbX2nW+pKr+I/tUt5iOG3kmiIyAT8oVQc9c/h7VT1Ka6Pi8wIZZIF05ZDEtxLGA3mEZAjBJOPaqN5qxAuLW1sNQmu44wxjiubwMgbIVvmQDGVPfsa2ZpH0rwciX1yzXCWiwtKWYs8pULnJ5yW9eaydH8SXUlvoVosFyCYCb1p4XlcqsaYZSpOdzSKQxz/FnkHFzwbqxuPD2kQyrfTTTWod7iWKQru6/M7DqcnH0+lS+Lbua0i0sxXHkCTUEjkJmMQZSj5BbBwOB+VZ15eyDVNFjh1BMS6gqyLBqTSll8uQ4K7RxkCuxooooooooprKrqVdQykYIIyDXL2On3Op23iGyF1FFBc3s8T5hLMAyKCQdwHf0q5d2VxaS22q3d5C1vpUMrsiQlWYbMdSxHQVs3FxDaW0lzcSLHDEpZ3Y8KB1NZXhS2mt9HeW4iaB7y6nuhEww0aySM6gjscEZHrmtqs6x1iO+uVhW3mjEiPJC77cSKrBSRgkjlh1A6/UDRrH8QQzO2n3KxGW2srk3FwqsqsQsbhcbiBwxDHn+GuU07VrG8ezvzOsUk/iB55o5v3bxIYJViLBsYzGiEdvSul0e4gufFOtSW80cqeXbDdGwYdH7isfSrGW68HJ58k0tsXm/wBHt4chv3r/AOsGd0g/2QRkHBBqhJbmTwdPc2urTfZ43SKXT1jIiikEqcKJV8yMAY+TOBkY4HOtNpdrc/Ei5GpRiaG60yIwRScxyFHfeCDwxXepx/tZ+k/hmyF3pVzBLNdfZbbULiOzaO5kQmIPgDcpBYA5AzngCtY6W1rBM2nzz/aWjKxm5u5ZEUnvhiR+lYcMdza+PdOt1trdFTSZxgXDMdvnQ5Ykpy3f3yeanNlc6h4j8QfZ7hYUa2gtCxj3ZYK7Hv2Eq/nWLJZGDwP4luA/mRtbi2ikAwJFhiWMtj0Lh8e2K7i/vYdPs3upwzKn3URcs7HgKo7kngD3rmLqLVI7fQH1icSXc2siVo1xtgDRykRggchRxk5yc1rRatPaeIE0XUELfaUaSyulXiQL95GA6OBz6Eeh4qT+3ceKxoLWFyN1oblbogeU2GClR7jcPzrWqG4W5ZFFtLFG2fmMkZcY+gYVgeIxqoGmW/2+BY7q/SGQR27LuUq5Kn5+hxzjH1rUis9Rhktkju7KK1i4eCOzK7lxgBT5mFx9DWTqFrcXXjTSjeS/uPJuTDBGcBCAq793XfhzyMYHA6kmpq1nMdJKXkdzG8GsWcUcn2uVlmjNzCQ4BY4OGwfQqSO1dXaWcFjEYrcMFZy53OzkknJOWJPWp6K8+ltIpPAvjGcvMGWbU+FncLxv/hBx+ld1Y/8AHhb/APXJf5Cp6K4KwtS/hnwkZbiSWJ7mIeQ6pswY3/2c/ma0fEdnc2fh7UI5bnzobjUrY2yHkxK00QKZ7jfuI9AQO1aOowPqmsmzSSJUgs281ZYy4PmkqMAMMHEbj/gVZWkz6ZqPg/SNM15EmMjmxJkOP38O5eucqx8tiCOaoa9p2pDRvEPhy2urjU4Rp63FuJzvljbc37ot1fITjPPXrxXYw6xZ3FjZ3kEgljvdvkhCCW3f4DJPoAazNU/5HrQP+va8/wDaVHjn/kVpf+vm1/8ASiOte9sY79Y452JhSQO8faQjkA+2cHHfA7ZBxPDlmmo/Dy2sXOEubNomPswI/rVnw3rEd3oFo1ywS7iItLmI/eSdflZcfUZ+hBrn75I7LV9TiJllmn1PTZGfYSCTMnfoMAAAE9AK1bjSvOtbyIaZqbJfymSeFrmFQd2A3IY9h09sVY0N3ufDr3N3fzhPtNxIJjJgrEJX2jPpsArn7XUrt9NsJUmlgubvUhvtEbY/kSF2QsG/iZQCW45yOoNdLY6fKNVE8kF1DHEhMbG8yHZj8waMcHsQTnnPTvzkEg07wJ4n0+Yf6TBcXkQj/ikMzM0WB33eYoFWtb0iW30nRhYwpLr+nwAQEKpLIqbZQc9iDgf7RStS1tre70DT10OK3OnMFkaNmMfmKBwDhTzuxuz1wQeprHsL6/srDxldR2kEkkN7K4QOZPnEEXG3aMjue/bFLBocHhnVtEn0i6e4t7uUwNau29MMhYzQjpH93JC4Ug9BxXQf27jxWNBawuRutDcrdEDymwwUqPcbh+da1Q3E0kKKYraS4JOCqMoIHr8xFcnpM6za94hVIryST7YkrpbTgCMeTGm1iGwWzGeBk4IzVjwldXcWj6dYW9pHPFBuiu5hcLmJhnjb1znqDtI96j8ZTyxQ3yz6ekypplzPZXgj3fZ5Vj5DA5AzwQfqMeta5WKLX5LOCwtrq4/s21ltIGgQDzzJJ+9YhcqF2KSR6cDJArp3um0vRkn1GYXM0UahmhjwZpOmEXJ5Y9B71z91FqkdvoD6xOJLubWRK0a42wBo5SIwQOQo4yc5Oa1otWntPECaLqCFvtKNJZXSrxIF+8jAdHA59CPQ8Vh+IwbvWtShVSUntrbTN4bbskkd2Jzg9AYz/wACrElh0681LV4vtdg1vc2sFuJoZYnVWYyrwVh6gsucYxkZPp1ym21vwdHeXFmiGGGR4o924RsqsgIOB2z24zU2h2c39iaZc2ssUcr2MCSNLEXyoQbQMMMclj361W8Dw3v/AAjOjzPeIbcWajyFhxknGCWyTkY+nPSma/P9n1zTrcXDhHka4upJGJW2hClQwx90lmABPbd2BqLT3v72HUGVbm9e3vZo7djdLGuF4UZ6jg4zgnmul0+1WysIbdTMQi4/fSmVx7FiSTVmiiiiiiiismbwzpk11Ncj7bDJO++X7NqE8Ks2AMlUcDOAOcVFN4Q0m4heG4fUpopAVeOXVbplcHqCDJgj2Nan2O2MUMRgQxwYMaY4XHTA9u1T0VBDY2ltNLPBawxSzHMjpGFZz15I69anqrd6fBfMoui0sK4PkE/u2Pqw/i+hyPaiWxsri6juXgjaeBwyyY+ZWCsBk+wkbAP941KlvDHPJOkSrLKAJHA5YDpk+2T+dULLw9pdjarbx24dVLHc5ySSSTn8TS3Xh7Sr23e3ktlCllLbDg5BBHP4CrtzZ2t7GI7q2inQHIWVAwB9cGpERI0WONQiKMKqjAA9BTqqtpmntdi7axtjcg5ExiXeD/vYzQLCJbWWBGkQTMWkdWw7Ennnt6cdB0xgUy80q0vdIk0qSPZaSReUUj+XCYxgY6cVbaNHZWZFZkOVJGSpxjj04rMufDum3mtWuryJIbi0LMgWUiMsRjcV6FgCQD71qYViGwCR0PpUa20KXL3IjHnSKFZ+pwOg+nJ496lorMu9BtbzVrXUpZrrfauXSIXDeUW2lQxTOMgE4xjrzmtOqs1hDNqNtfuX822SREAPGH25z/3yKg1LRbbU57aa4muVFtMkwjSdljcody7l6HDAH1yBWhS0VUXStOS3kt1sLVYZTmSMQrtc+pGMGrEUUcESxRRrHGgwqIMAD0Ap9FZVt4Z0a0is44bCJfsTBoXx8wIBGS3U9T1p194e07UdStr+5jkMts4kVVlZUZh91mUHDEY4J6VdS0to7l7pLeJZ5AA8oQBmA6AnqaiTSdNjhMKafarEzbyghUKWxjOMdcVLbWltZxmO1t4oEJyViQKM+uBTIdOsbe5kuYLO3inl+/KkSqz/AFIGTTZdK02efz5tPtZJf+ejwqW/PFPurCyvQPtlpBcBenmxq+PzqSKOG3iWOJEijH3VQAAZ9Kg0zTodJ02Cwty5igXapc5Yj3qld+F9Outct9ZHnW95C4dmhfas2AVHmL0bAYgHqM9a00toY55Z0iVZJseYwHLYGBn6VFqOnW+qWb2twHCsOHjco6H1VhyDUa6NYrpkGmLDizgVVEO44ZR0Df3h656980mp6JpusLGL+0SZojmOTlXjPqrjDL+BqrZeF7KwvVuorvU5Cn3Yp9RmljH/AAFmIP41pSWVpLdJdSWsLzxjCStGC6/Q9R1pGs7M3P2l7aEzsuzzSg3FfTPXHtS29naWcJhtraGCInJSNAqkn2FNttNsLKRpLSyt7d3+80USqW+pA5og0+ytZWlt7OCGR/vPHEqlu/JAqRbeFLl7kRjzpFCs/U4HQfTk8e9S1DdWwu4DC0ssat94xPsYj0yOR9Rg+9JZ2dtp9sltZwRwQp91I1wBVZNEsYtefW4ozHeSweRKUOFlXIILDuRjAPoSKdPo9hdCVZ4TKs2RIjSMVYHqMZxj2po0LTVlMotsSMgQuJGyVGcDOegyePc1PaadZWNtDb2ttHFFBnykVeI85zj06n86p3PhzTrvW7XV5Uk+0WhLIqyERliMbivQsATg+/0rUKgkEgEjocdKpPo9nIiqysdt0Londy0gOQSe+OBj0AHQVNdWUN3ZvaPvSNhj905Qr6YIwRUNrpNrZ6Kukw+YLdYTFlmyxBGCST1JyTmkh0WzhghhTzwsMSxKBcOPlUYHAOM4psOgaXbm2MVrt+yHMA8xiIjjHyjOBwSPxqzDZQQSzzKm6W4OZHY5LAdB9BngdOT6msmTwXopLG1S60/edxFheS26k+u1GC/pWrp9jFptmlrC80ip/HPK0jsfUsxJNWaKKKKKKKp6tqMWkaRealMCY7SB5mA6kKCcfpWJHqeqaa2iT6ncLMuqyCCeIIFW3lZC6bCBkrlSp3Ek5B46VstrelIbgNqVqDasFnBmX90T0Dc8Z96z7nUbm/8AEo0ayuTbRQ2Yup541VmO5isajcCAPlYk4PQVBZ3+sa9oypaXUdle299Ja3kyxBwPLLAlVb+9hT7bu+Ks6ENTN9e/a9WN/bQkRITAkf7wcvjb1AyB9Q3pW5RWZqs2px3NsLGIfZxve4lKbyABhVCZBJJOc9tvvWNe3LaVdTa5MZUleFYGVLJj5uDlQF8z5nySB35xWxpTaq0Nxd30iyrLh7a2WDynjXb0bLfeJ5wemcZrBitLuDxBNBDqEx1G+U3Woi3VCIo9pWJUdlOCCuAGxn5246VILG50/VVWTV2t7rVBNdXzIqfJGiqoKOyEAJmNecZ3FuOldav3Rzu46+tc/q17rEfia1trbS5riwFpJMZo3Cr54ztVvbjAHq2e3FnwrPf3Xh22udUtZrW+mBaeKZssGzjOOwOMgdhirsGqafc3Bt4L2CWYZ+RJATwcHj2PB9Ky9V06+ufEVrewX19Ba2ttKs8ML4SYsMLhe7A85PAwPU1a8M6fe6V4etLLULyW8uo1PmTTPvc5YkAt3wCBn2qTXtRm0vSmu4ER5BLFGA+cfPIqHp7NXOGbUdD8/wAP2gtmnmtTLFMu4M1xLI2XbP8ACPmc/TA7VfsHudAutD8ORWlutq0Ei7xOzuBGo55UckkVJqesXlp4s020RlFhIfJuPlBJkkVzHz2x5WP+2gqa41FpvEraOb42JFsk0W0JvuCWYNjcCCF2jIAz8w/GC71LVNOtdO06aWGbVNQvHgjlCYVYwXcybfURqOM/ePpWjBbalBqWHv3ubJ4Wz5iIHjkBGMFQAQQT24x71R0a4vp/EGs21xfyzQ2M0aRIyRjIaJXOSFB6sfSjUZ76PxXpljFqE0dveRXEkiBIzgps24JUn+I561F461QWHh57ZWkE2oOtqhjGWRXIV3/4CpP44Heq+ozWenaj4atraO6htra4e3CLBKBt8iTaOnzcqPX1rS0ZJyNQtZ5r6W28zNvJcIY3WNlGVD5DHBzyQDyOT1rH0C503UYjPPeX0skr3Nzagz3AVbdW8sFWzg/KVOck5eiFZrqw8JTTSzrc300U04W5l28QPKRgseNyqOa6DxHn/hGNV25z9imxjr9w1y2o25bwddAR5mOnvgDS5wxbyz/FuxnPeunmv4dF8LvfSqfLsbPzHToflTO361mR6nqmmtok+p3CzLqsggniCBVt5WQumwgZK5UqdxJOQeOlbLa3pSG4Dalag2rBZwZl/dE9A3PGfes/UNciXWf7P+3xWMENqtzcXTMgwHYrGoLfKM7WJyD0HrkNnuNSj8OWvm6rbJdTShTfQorR7Mk7sHj7g57ZzirOgmWWOWZvEEesREhVaJIwqEdRlOp6Vr0VWvIJpk/dXTQKFO4Kind+Yrz8Lcv8K9Mib7UIWtLLrHFs5Mf44/ya7+ztZ7ZpjNfTXXmNuUSqg8sYxgbQOO/Oa5t7kL4t1eKW5jVFS3KpLqL24GVOcBevQc0WkySeONOSOdHX7BdMVi1B7gZ3wAZDdOCf8iugv5rYkW8/2vPD5t0m/wDQkH6ZqiLjSDcm2Eup+eEDmPddbgpJAOPTIPPtVjR5LKEyafZQXyJF+8LXMc21ixJOHk6nPJGe9czZmKFtSmnjsZPM1S4RPPhjLcHOAzyLnvwPeq0N1b67e6ckVtp1rAL9T5myGOVmicnaqiViclCPpzzWx4zv083TdOgRJ7wXkFwsTtgYEgC5ODjJ6HB6H0rN1vUNR1HTdRmuLO4FkbmyiigPlFUcSxmQE5yTuOzuMoa7Ozubm4kmE9hJaqjARtI6N5gxycKTjBz+n4c9qcbP42fcCY/7Nj62sk658x+yEYP1pdGh8vxleS+Xtj/s+FQ4tZIFyZJMjDk5PSrt1f3V54n/ALEs7g2qQWgubiZFVnyzFUQbgQPusTx2HSk0nxJBJo0lzq9zb2ktrdSWc7u4SMyI5XIyeN2AQPfFXNR16w0/T9QujcRytp8DTTRI4LABcgEds9qyo9T1TTW0SfU7hZl1WQQTxBAq28rIXTYQMlcqVO4knIPHSm6nD4kiSaddeEDz3BitLVLSNgMsQmWPJ4+YnsM+ldPGrLGqu+9gACxGNx9adRRRRRRRRRRRRRRRRRRWX4m02TWPDGp6bCQJbq1kjjyeNxU4/XFYM9yPEf8Awjdtbqwmt7qO7vYyMG2EaNlXH8LFyAAevJHApmsXdoniAa5BIj2NnLHb6kFfIlbOUbHcxFgffJ7pirryw6X42l1S4lRLDUtPjRblmHliSNmOC3QblfI9dppfDyz6Z4c1TVZYHD3VzdX6QspDbCSUBHUEqqnHvV3wcH/4Q7SZJN3mz2qTylhgmRxvcn3LMTVfwZJbyWF8LfWL3VNl/KryXgIeJhj92MgfKBgj6/hXRVWntppZd6X88C4xsjWMjPr8yk1gCymfx06tqV0THpqMhIj4JkcHjZjt1xmtuGyuYJZ5hqVxcNIgVEnCeXGR3AVVPfnn8q57TtFSa98SWzSefO08TrPcKJMSeSpDbTwME9AOnFOTS7d/E2jLfaZYxzvpNy1xFHEpQSb7bOOOQCTg11SIsaBEUKqjAUDAAp1UdchurjQdQhsWK3clrKsDA4w5UhefrisDTo7TUotEjS/Al09kkS2ihCSQkRlSsgzlBgkHIHOK62isLxmUHhmUyNtT7Rbbm3bcDz4+c9qp2sOnXfi29t4phdwS6WiSAzmbgyOCMknHHamwRxw+JfDlil8b5rTTbnfOzBmcDyVDNj1Of1qjrTLd+GdU1+2vWb7Pei6jiQoVJgdVUA4z8wj4Ged/vWvqV54e1mVtO1eK3e38mO5gnmOEYMWGVfjawK9jnkVirBe20Wh6vM1xd2ul6jcIJZAWlNq6vGkjdyBlee68111rqttfTEWcsdxbohL3EbgorZGFBHBOMk4PGBnqKxvD97ay+KvEQjuYnMtxCY9rg7wIEBI9cEHp6UatfWkfjnRN91CvlW92smZANhPlYB9M4P5VJ4xtIRo1xeEFpi9vGGJ+6vnocD0yeT64HoMWfFVvcyaSl1ZxNNc6fPHdxxL1k2H5lHuULAe5FTW2q6b4gtxDaXHnw3Fv5haM4whO3B7gnDD1GD0NczoMFxcDTUi00tbrp95CTK2yJg08XG5QxHAbAIGcU/xNYx2+iXMQtbGBo7R4oQt27yxu42IUBAxyce/89bxZGU0nybFN2p3AFtZZJO1j/Fg8EKMsSfSsm2ltrnxabO2ZGMenr5sF1I0bLJvIJKj+LGOnBHTitC+8OfavDGtWCQ2cd9qMEi7rcFQ52kR7snJI4BP8ulVJ7keI/wDhG7a3VhNb3Ud3exkYNsI0bKuP4WLkAA9eSOBTNYu7RPEA1yCRHsbOWO31IK+RK2co2O5iLA++T3TFWZIrOy8fvrF4YxbXunRpb3TkeWrozEjd0BKuCD3AbHeq+nD+z9KVpNMWfT5tbkkh8w7EtYCzES4I+7uyQOOHB4rR0oLc+NNTv7IhrJ7OCKSVOUlmDOSQehIUqCfcDtVrw7quoap/aI1CwS0NrevBEY5N4lQYw2fxwfcEdQa2aztVvpdPt5bmQ2kdpGmXlnmKEH6BT7Y5yTxiuQtdJuJfh/ZxDSfKaCGFd7ownIjK/P5eM8hc4yTz0J4rqdE1ObVlkv1u7CfT3A8k2xYshH3gxOPywCO9Yl1dX8eradb3sibE1kCO6jcKbmL7PKRvA7g8HscDjtUOnX008cwfVDYWtvq9y1xdyygFwLhgkKFuAp+XPbHA5Jxv+IHury3bSNOkaGe5XE1yv/LrEfvPn+8RkKPXnoDWfapbz+Mri2t7t3RNGhQSpNucfvZMHdzk/Xr3zWlol/qEr3tlqsGyexcKLlV2x3KEZVx6HHDDsRXK2zbntpbgtFG7XGqxskUryDzZSiDbGQx+SRaqwm60vTbeaSKcT291PdQfaIJwmWmZfmDPwSkuRx65OevWeKI4wNNlCKHbU7ZS2OSA/Az+Jqr4utBHoL+Teyxx/arbEKiPaCZ48nlc5yc8nrW1Zx26S3Nr/aD3cr4kljllDMgIwMAY2g4PtwfeuQ1C4hiGuXrl4NLS2a3spR9wzIrb3L9R8xCgk4JQ9yM6ljpa6lpentPb6bPbskbz+YzSFxtzkdg2cHJz0/EPlaPR/HE2pXUixWOoafHGLhzhFkjZjtJ6DKvkZ67TVOwjtrXwrqLarCNut308sVrKdjOJXxGvPKkjaSf4c5PSo7e1l1Pwprvhae5WbWUikilmLf8AHwWT93J+W1SOxXHpUs9yPEf/AAjdtbqwmt7qO7vYyMG2EaNlXH8LFyAAevJHArQu55J/iFp1iyN5Fvp890Gx8pkLJGPxCl/++q0NY1U6YsOBbqJWIMlzN5Ua4GcFsHk9h9fTBuWdwbuyguTE0RmjV/LfquRnB9xU1FFFFFFFFFFFFFFFFFFFFFFFRQ28NuH8pAvmOXc92Y9ST/noKlpKo2Oh6Xpl3c3djYw2011t85o1xux046DqenrV+oYbSCC4nnijCyXLBpWyfmIUKP0AqvDo2m22qS6nBZxR3k0flvKowWXOfpycZPU4HoKvUUUUUVFcW8N1F5VxEsse5W2sMjKkMD+BAP4UvkxCcziNPNKhDJtG4qDkDPpkmq9vpOnWl/cX9tZQRXV1jzpkQBpMdMmrlFFFFFQXlnb39sba6jEkTMrFSSMlWDDp7gVPWfa6HpljqlzqdpZxwXd2AJ5I8jzMHOSOmffGavKiooVFCqOgAwBVe70yxv5rea7tIZ5LWTzYGkQExt6j0NTeRF9o+0eWpl2bA5HIXOcD0/8ArD0qtqOjaXq6BNS061vFX7ouIVfH0yOKZpWgaRoYkGladb2fmnL+TGF3fWtCiiiimoiRoEjRUUdFUYAp1QS2VtPcRTzQrJJCcxl+Qh9QOgPv1qeqttptlZ/afs9tHELuUzThRxI5ABJHuAM0o06xAwLO3AHYRL/hS/2fZf8APnB/37H+FTgYGBVOz0fTdPvLq8s7KGCe8YNPJGuDIQMDP+e5q1NDHcQvDKoeORSrKehB6im/ZYPtQuvKXzhH5YfHIXOcfTNQX+lafqnk/brOK48iQSRmRc7GByCPyqW5tLe8EQuIhIIpFlTP8Lr0P4VH/Zenc/6BbcnJ/cr1/KnpYWcauI7WKPepVvLQKSPTIqVIYo4RCkaLEq7QgUBQOmMelY0vgrwvPOJ5PD2nGQNu3C2UEn1OBzW2AFAAAAHAA7UtFFFJS0UUUUUUUUUUUUUUUUUUUUUUUUUUUUUUUUUUUUUUUUUUUUUUUUUUUUUUUUUUUUUUUUUUUUUUUUUUUUUUUUUUUUUUUUUUUUUUUUUUUUUUUUUUUUUUUUUUUUUUUUUUUUUUUUUUUUUUUUUUUUUUUUUUUUUUUUUUUUUUUUUUUUUUUUUUUUUUUUUUUUUUUUUUUUUUUUUUUUUUUUUUUlLSUtFFFFFJS0UUUUUUUUUUUlGKKKKMUUUUUUUUUUUUUYoxRiiiiiiiiijFGKMUUtFFFFFFFFFFFFFFFFFFFFFFFFFFJ7UClpO9LRRRRRRRRRRRRRRRRRSUUtIaTj1o49aOPWjj1o49aOPWjj1o49aOPWjj1o49aOPWjj1o49aOPWjj1o49aOPWjj1o49aOPWjj1o49aOPWjj1o49aOPWl49aTgd6WiiloooooooooooooooooooopCcUZoJpKr3+oW2mWjXd5MsMKkBnboMnA/Wqs/iLS7Z7eOW8VWuJRFGNp+Zj0HSrNzqVpZJI1zcJGIkLtk8hfWoLXXtNvLK3u4bpPLuQpizwTu6cVoijNGaM0tFFFFFFFFFFFFFFJQar3jMsBKnBFZwnmx98/nR58399vzpPPm/vt+dHnzf32/Ojz5v77fnR58399vzpfPm/vt+dJ58399vzpfPm/vt+dJ9om/vt+dL58399vzpPPm/vt+dHnzf32/Ojz5v77fnR58399vzo8+b++350vnzf3z+dHnzf32/Ok8+b++350efN/fb86Xz5v77fnSfaJv77fnS+fN/fb86PPm/vt+dJ58399vzo8+b++350efN/fb86PPm/vt+dO8+XH3z+dakBJhQk8kVIOlLSUtFFFFFFFFFFFFFFFFFJRSEUoFBFGOK5nx2yN4YmhmlEEcsqKZmBKpghhnHQZGM+prkBr6ajd6dLcLKpt5IbpIY98kkxZmQKqlu2Mk+lbnjidb66s9IS1lW3vLiOG/uljG7Y3IjUkck47dKr2kjp4sljWa/az03ylS3SBCZS4IBb5RhVx9fywe/jOUBp2KMUd6WkopaKKKKKKKKKKKSkaq99/x7N+FZgPFJRRmg0maXrSUopD1paTNFLRmjNGaM0YNJS03vTs4ozRmjNJRmnZ4rYt/9Qn0qQdKWkpaKKKKKKKKKKKKKKKKKSg5qMzxhirSICOxYUfaIf8AntH/AN9Cjz4v+esf/fQo8+L/AJ7R/wDfQqjqNhaaohhuLo+Sww8QkG1/rWTb+CtAtJvPt7i4jmEH2dZFufmRMk4U9up/OtO9020v2sWkuz/oM6zp84JdgMDJqPS9ItdMv7+9GoyXMt6yljNIDsC5wo9uTWqJ4v8AnrH/AN9Cjz4v+e0f/fQo+0Q/89o/++hQbiHHEsf/AH0KerBhkUpopaKKKKKSloooopKG6VWvv+PZvwrLHSjNJRRRijkdxQM96DkHg0meMmlGT3oIxRmiiikNKKCT6ijrQTg9RRkdaOT3ooooope1bFv/AKiP/dqUdKWkpaKKKKKKKKKKKKKKKKQ0maUciuJ8OeGtG1dNSutQsIrmY6hKu98k4GMCtj/hBvDHX+xrb8jR/wAIN4Z/6A1t+Ro/4Qbwx/0Brb8jR/wg3hjOf7GtvyNIfAvhg/8AMGtvyNA8DeGR/wAwa2/I0o8DeGf+gNbfkaP+EG8Mf9Aa2/I0f8IN4Z/6A1t+Ro/4Qbwx/wBAa2/I1V1TwZ4bg0i8lj0i3V0gdlIB4IU4NavholvDOmMTkm0iz7naK0yaBS0UUUUUUUUUUUlBqvf/APHs34VkjpRRRQKGOFJ9Kw77xTbWdwsItpZWMEs2MqMCNSx7n0q1pOuW2ruEgjljYxLKPMXaGB9M8n8qoHxjp63l1bNHKHtpTE/GcnAOePrWnoupw6zpUWoQxtHFJu2iTrgd6zovFtq7FhaXRjkuPItnRA3nkfeIH90c81vbt2PWilFFFGKa8ixoWY4A5J9KxLrxRBbSXcQtJZZIdhiCDIn3HAwcce/pWja6paXhnS3lDy2ykyoAeDjOM4wfwrC/4T7Sxpr3phlZVRnKgc4H/wCqugkvYINNN/cHyoVi8xs9hjpWdp3iSG8ltIHsbu3ublDJ5boMInZmOeM8cVtHP+NHSiikp3ati3/1Ef8Au1KOlLSUtFFFFFFFFFFFFFFFFJRigdK5zwUMWWpf9hKb+ldHR3oooxRSYpaKKpa1/wAgO/8A+vaT/wBBNQeGf+RX0v8A69Iv/QRWoaBS0UUUUUUUUUlFFIx4qvfH/Rm/CssdKSgUppBxSdcjHBGCPUd64qWwQeJr+1trXEFtEixhI2bAkVt4JGeo9af4F0uAQ6pMUkSYXklsj72LxRg8KpPSsa4igfWrmAy3Uyxahi3eJlO5vLLEs3G4/K3Fbvh+yjvfBUxlvJZnnhb7QiSAKjAH5QB933FQ6P4dubnSNNvUjtdq6WYljLydXA+bgcEY/Wui8PBYdJjst++Ww/0aYgkguOvJrT5yc0tFJR2prjdCwI4KnP5V5lG13Baq6STqXsBID3P74Akde1dX4etkk8Nzh52gX7TcF5EcK2BI4HJ7VxI+fTDcxeeLpLaXbkL5QjDhTkenI5x3PNdV4j062bwLuiupbuJJI5Ud5tyuWYdcdR6DtUmo+FL2X+0pIxbI1zJE4xLIDEqMCQDjnjNdLZXEF7ZwXNu2Y5Ywyn1FT5PegUtJS9q2Lf8A1Ef+7Uo6UtJS0UUUUUUUUUUUUUUUUlFA6Vzfgv8A48tR/wCwlN/Suk70CiiiiijFLSHpVHWf+QFf/wDXtJ/6Cah8M/8AIsaX/wBekX/oIrUopaKKKKKKKKSlpKKTPrVS+dfJKhhk9qzR0oNFFJTicCqy6fardXNx5QLXShZSedwAwB+tRWOj2Gn2L2NrapHbyMzNH1DEnJzmkOiab59tMLONJLTPkbBt2Z47fU/nU8NjaRPcvHBErXZzcFVx5hxjJ/CqaeHNLhQJHbFFHAAcgAe1W7HTrPTonS0gWHzH3tjqx9Se5qwaKM0UUjLuBBPBGCPWs6Dw9pVuWMdmoL2/2c5yQUznH51LDounW+mx6clpH9ljOViYZGc55z15OadFpNjb38l/HbRx3MqeWzLxlR2pDpGnnTn077JELRySYQMKSTn+fNQf8I9pgG027YPUb2wfwzV61tbeytI7a1iWKKMbURRgAVLRRmgUvati3/1Ef+7Uo6UtFFFFFFFFFFFFFFFFFFFJSZ6fWud8FkfYtS5B/wCJlN0/Cuj70UUUtJS0UlBqlrJzod/2/wBGk/8AQTUHhnjwvpf/AF6R/wDoIrUzRS0lFLRRSUtJRS0hOKQkYznGKp3N5j5U/GqDszHJOfem0UopCOaX2HWgp2pNp9aUqxPy5J+nWuK8V3t9qmoR2ehv5zaURd3exvvFekQPcnnj2rqNL1S11qzS7spA4YfMo+8h7gjqDVwqx9fyo2EdaUjaPm79Kb3paBy2KX73A5NIUNKBkdaRgwy56AHLHovuT2rhrrXLmTxIPEdsXk0KwP2SR1yd4b70gHcKdvNdtbzR3USTW0iTRuoZXjO4YP0p5Rs55/KgIT/+qlBAGOaQdTRRS9q2Lf8A1Ef+7Uo6UtFFFFFFFFFFFFFFFFFFJnmj3rB1jxK9lqKaTptg+pam6eZ5KMFWJP7zseg/nWDomsX3hmO5t9d0K+ia4uXnSS0T7RGd2PlyvIPHeuv0q+m1CwiuprKayaTP7ibG9R2zV3FFFLRRRSUhHHJrlNW8QXmpSX+jaBpf9ovEjQ3E7yiOKJiMbdx6nnoKrab4pn0fSbbS7zw7qi31vCsSRRw70lKjHDjjHHeuxhkaSJGaMoWGSpOSvtT6dRRRRRRSUtFJUc0yQr8x5rNnupJDgfKKgznrQaSilHSmswX5mcKqglmP8IxXMwTar4sLXFteyaTpAbbC0Q/f3H+1n+FfTHNS/wDCHQMcNrWsFh/EbxhR/wAIbbf9BnWP/AxqP+ELtDxLquryofvI162CK2NO06y0e0W1sIFhhU52jufUnqT71n3nhLSLu6a8CTW1zJy8lrM0Rf8A3gOtRDwdZdtR1f8A8Dmo/wCENsx11LV+f+n5qhutM1Xw9A17pOo3N/DEN01hdvv3qOpRuoOOa3bG9h1OwhvrZ90E6CRG9Qf8kVY7VV1K/g0vT5r66ciG3Qu2OvsB7k1iQabrOvRi61TU7jS4JeY7GzO1lXtvfru+lSDwbbn/AJjOsf8Aga1NPgy3/wCgzrH/AIGtR/whOmyfLd3mp3sZ6xTXbFD9R3reSCC3tltIYkS3RdqxhRtA9MViP4M0gSNJaG7st53OttctGpPrgUo8HWR/5iOrfhfNSHwbZA5XUtWDev256rzyal4TeKea/n1LSHcJKbjBltiTgPuHVc9a6fkqDkc9Md6celJS9q2Lf/UR/wC7Uo6UtJS0UUUUUUUUUUUUUUlFHekfp0zXK6i+pXHiKbTtAgjspmRJL3U5odwxjCoo43HHfoKo6LqvjWSK5ZI9P1eOK4eAM7G3kBXjJwCDXV6Uuo/2fEdWMH2zrJ5AOwegGeav0UUUUUlANNf0I4riZJdauI9RbQhHomm2LSN5j226S6kGSxAOMLnv3qTTtR8dXGk27i10u4a5hWRLvzGTZuGfmj5yfoRXXwCTyU84qZMDcV4BPfAqWilooooopKKCeOuKqXF4seVBy1Z7uznLHk0wUYNAzRRijtVPVrWW+0e8s4JRFJPE0ayH+HIwf0qaxt1srCC1jACQxhFAHoKm3Z+tFGeKBgjmjOOlGaNxpcjBBGQRg/Ss7QdL/sbSBYibzUSV2QkYwrHOPwrQGM+nvWbrulPrFtbW4kVIo7mOaQH+NVOdv4kA/hWkevAxgUZooo4PWgHHSlyKaT2qtqtkmp6VdWMhAWeIpuxnbkdafZwtbafbWzSGQwxKhc9WwOtTilxQelbFt/qI/wDdqUdKKKWiiiiiiiiiiiiiikooopB/Wud8F/8AHjqX/YSm/pXR0gp1FFJS0lGKQkg1S1n/AJAV/wD9e0n/AKCah8M/8ivpfH/LpF/6CK1KKWiiiiikzQKbJIsa5bpWdcXjOdq8L61VPJoOTSZxSqrMcDP4VNJbPHGJGwAe1Q9aTnNITSjj+Ggk9cUDpnaaMn0oPPQUmcLnafyoyQeRSk+1B6Z2mgMfSg57CjPy/d60AkHkUbj6UEEAHHWl5HakOfSg5HagfSg5B6UhyMHHWlBPpRye1G4dgQaQE07tWxbj9xH/ALtSjpRRS0UUUUUUUUUUUUUUUlLSUVzngv8A48tS/wCwlN/Suj70g606ikNBopaSg1S1n/kBX/8A17Sf+gmoPDH/ACK+l/8AXpF/6CK1KKWikpaKSjpVa4ulhGBgt6VmyzPIclvwpgzilzilAJOAOasw2DSHMnyir0cCRD5Vx71DqH+pH1rM7U4HjpWBr4nn1jRrGO+uLSK6km80wOVYhVBHP40p8NPn/kP6v+N0aP8AhG2zt/4SDVyev/HzVCXSLlPE1rp41/VfIltZJm/0n5twZQAD+Jq+3ht+2vat1/5+qU+GXX/mPav/AOBVZs+lXKeJrbThr2q+TLaSSt/pPO5SoHP4mtFvDTA869q4/wC3k0f8I03X+3tXwO4uTVCLSLhvE9xpx1/Vfs8Vokqn7RyWJxWh/wAI0Rx/wkGrfX7SaG8NsM/8T/Vwf+vk1nR6Rcv4nudNOv6r5MVpHMuLg5yxIP8AKtD/AIRsjH/E/wBXJ/6+TQvhpyeNf1f/AMCqztO0i5utT1S2l1/VNlpOsaYuMcGNW/ma0f8AhG3bga/q/wD4FU4eGmyAdf1jOe110rN0nSri9bUBNr2q/wCjXjwptucZUAEfzNaJ8NOvXX9WGeh+00Hw0/Gde1j8Lk1m6PpFxfy6ms+v6ri1vJIY9twR8o6ZrTHhtun9v6t/4Enmj/hGWyT/AG/q/wBPtRpPC7zPZ3iTXUtwYL2WNXmbc21WwBmtw0DpWzb/AOoj/wB2pB0paSlooooooooopKKWiiiikNFIOlc94L/48tR/7CU39K6KgUtJmkJ79qgtb61vQ5trhJljkMblDnaw6g+9WKWkoPSqWs/8gK//AOvaT/0E1D4Z/wCRY0v/AK9Iv/QRWmaBS0UlLSUx5FQZY4qjPfF/lT5feqeSTknJNJjmlXcThRk1ahsHk+ZztHoauxW6xDAFTYAoqrqH+oH1rL7UCsTVj/xVHh4erzf+gCl8Ybk8N3EkZferxbQjbSf3ijH64/GjQprfUJZrxi8d5DiKS2YsDbjsCvfPXd3pJx/xXVhnj/QJv/Q1pPGPy6HuTdu+0wqCrFTzIBjI6Z6VF4dd59S1OVDJBbo4i+wyvueGQdXOegIwQATU1wQPHdl/FnT5gT/wOOk1OZrnxXp2kysy2csElwwBx5rKcBc9eBzUli0EXiDULK3hljMcKM+ZNyHO7GAeh4P5Uy3OPHl9zz/Z8X/oVQ6sjP4u0uIQvOslrMWiEpQNgrycU/whNLJY3lrcvJ59reSI0Mp3NADghC38WOoNPthnx5fjPH9nw/8AoTUvi/jw5IysykSxcoxU/wCsXuK2QqqgC8AAViaGc63r+T/y9p/6KSqPiKdbbxHFI1pcXaLp0sjwwyEZIIw2ARnHtzWz4dWRdCtTLeLeZXck6nIKE5XnvgYGe+Kq+Gv9brPYDVJOf+ArTYH/ALU8XX1ldBmhsYYmhiJIDF+S/HXnj8Km0OeOUX8cEUsSQXbRlZJN43YXO0+nIqPw3zPrgB5/tOWqN3FLceK7+CO1mu1bT42WJLgx/MWcDHOAeK0PCV0954ZtJJrl554wY5WdcMGU8qfcevemeFv9RqQ/6iM//oVbhpf4a2Lb/UR/7tSjpS0lLRRRRRRRSUUtFFFFFFJRQOlc54K/48tS/wCwlN/SujoFLSdqaP8AOazdDiniiuhcWFrZbrl2Rbds+YueGb0Y960xS0tIapaz/wAgO/8A+vaT/wBBNQ+Gf+RY0v8A69Iv/QRWmaBS0UlGar3F0kfAJJ9qzpZ3lPzHiozQMk4Az9Ksw2LycvgL+tX44I4hgL+JqTGKdSUVV1D/AFH41l9qcF4zWBrLxp4l8Os7qg8yflmwPuCr1/HpepWhtrq6jMZYMQJwvQ5Hf1AqI2mkHU01L7Yguli8vzEuANy+jc81TuLq1/4TewcXURUWEoLbxjO5eK0NRi0vUoRb3V1E0W4NhJwuSDkd/Wgw6UuonURcxC5MYR2WcfvAOm7nk1QuLq1/4Tiyf7VDtFhKM7xjO+PitC9TStQ8oy3EG+Ft0UizBWQ+oOeKS2j0y2uJ7lL2OSedVV5ZJwzMBnA69sn86oQXNr/wm96xuodp0+MBvMGM7vWrs9vpV1fR3kl8qzRKyRvHc7NoPXv3wPyp9kulafE0VvPAu5y7sZQWdj1JOeTWdb3Vv/wnN65uoQv9nxAHeME72yK0NQj0zUbU21zdxGMkMQs4XkHI5z64qwl3aBQgu4WwO8orH0W6tF1rXWN1DhrpCvzgZHlL/hWgY9LfUk1BruL7RHGY1Pn8bD1GM4osIdK0yNobS5iSNmLeX54Krk5OBnj1qh4du7VZdY3XMIB1GQjLgZG1eavXUWl3N4l4bqKO4RdominCtt9Mg8inWa6ZZJItvdwgzSGR2aUEuxxyfyFZ3hy5to5tZY3UK7tSlYZcDI7H6ValtNJmvJbw35SeaMRs0d1tyo6Dr7n86tWQ0ywtUt7WaCOKPoiyL+JrP8KlTbakyurqdRn2lTkEbzW6RQfu1sW3+oj/AN2pRRS0UUUUUUUUlFLRRRRRSUA5ooHSuc8Ff8eWpf8AYSm/pXR0UUUm2qenaZbaYs62wYCeZpXDOW+YnJ61dAopaSqWs/8AIDv/APr2k/8AQTUPhn/kWNL/AOvSP/0EVpmgUtJTWIUZY4FUbi9/hj596pliep5NIcg8DNWIbOSTkjaKvRWyRj7oz61PjHSjFFLRSGquoDMI+tZYFLuxxVS802x1FAl9aRXKIcosq5ANVT4X8P5/5Allj/rkKT/hFvD5/wCYJZf9+hS/8Iv4ePP9i2WR/wBMRQPC3h/P/IEsv+/Qpv8Awivh4ddEsv8Av0Kd/wAIv4fxn+xLIfSIUDwt4fH/ADBLLP8A1yFH/CL+H/8AoC2X/foUHwt4ePP9iWXp/qRSf8It4f7aJZf9+hR/wivh7/oCWX/foUp8LeH8ZOiWXP8A0yFA8LeH+2i2X/foUg8LeHh/zBLLP/XIUp8LeHv+gLZE/wDXIUf8Ir4exj+xLL/v0KQ+F/D4/wCYJZf9+hSnwt4exxotl/35FIPCvh/tolkP+2Qo/wCEW0DP/IFsv+/QpT4W8PD/AJgtkf8AtiKT/hFvD/8A0BLL/v0KD4W8Pg5/sSy/79Cr1rZWthCIbO2jt4sk7I1AGT3qcHmlPStm3H7iP6VJRS0UUUUUUUUUUUUUUUUlUrS4vpL68iuLIQwRMogmDg+cCMk47YPFXaK5zwX/AMeWpf8AYSm/pXR0d6WiikxzS0UUlUtZ/wCQHf8A/XtJ/wCgmoPDP/IsaX/16Rf+gitWko7VDNcpCuScn0rNnuHnOeg9KhCn05qxDZySdeBV6Gzjj5IyferAGOlLRRRRSZoPSqt+rNDhRk56Vn/ZZwM+U35Uv2WUjPlt+VIbeU4xE35UfZ5T/wAsm/KnNbS9PLYfhTfs8v8Azyb8qX7NN/zyb8qPs0pGRE35Un2aYnAib8qPs8ucCJiR2xR9nlOP3TA+mKU202MeUw/Ck+zTDjy2z6YpTbTY/wBUaQ283TyjQLWb/nmaDazf88jS/Zpv+eZo+yzf88zQbWb/AJ5Gk+zTf88jSi2mx/qjR9mm/wCeZpPs03/PM0otZv8AnkaQ203/ADyNL9mmx/qjR9mm/wCeRpfs82P9Wa1IARCgIxgVIOlLRRRRRRRSUtFFFJRRS0lJ3rG0n7L/AG7q4h+3eaHQS+eT5X3ePLzx9cVtUVzngv8A48tR/wCwlN/Suj70mDS0UUUUYooNUtZ/5AV//wBe0n/oJqDwz/yK+l/9ekX/AKCK1M4pM4GSaqXF6Fyicn1rPdy7ZJzUkNtJIeAQPU1oQ2iR8nBNWMY6UUtFFFFFIaQ1ieIbzVobjTbTSDCj3czLJLNGzrGoQtnAI7jFXoI9TGnMlxPbtfFTiVIyI89uM5/Wo9LTVoY2Gq3VtcSZG028RQAe+SaSwh1uO8la/vLSa3OfLWGFkYemSWIpDFrh1bzFvLMafn/UmBvNxj+9ux19qXUYdakuom027s4YR/rVnhZ2Y+xBGKfqkWqyQINKube3lz87XERcEewBFOli1L+zfLgnt1vtozI0ZMee525z+tFjHqUdgy31xbyXfOHijKp7cEk/rUemRaxCsh1W5tbgkjZ9nhKbfXOSc9qbaQ64uou93d2clmc7I4oWVx6ZJbH6Uk0GuHVFe3vbNLHI3RtAxkPr827H6U7U4takkjOk3VpAoH7wXELOWPtgjFVLy51u28S6fCrQS6dcllkAibfHhepbOME+1bowwzRsFLtFG0UbRRgUYFG0UYFG0UbRRgUm0Uu0UbRSbRS9KKKKWiiiiikpaKSilooopKMGkxjuaUUA5Fc54K/48tS/7CU39K6PnNFFHNFFFHNFBzVLWf8AkBX/AP17Sf8AoJqDwz/yK+l/9ekX/oIrQlmSNcsazbi6eXocL7U2KCSbgDHuavQWKR8tyas4AGAMUtApaKKKKKKSg1nX+ppZajp1o0bM19I0akdFIUtz+VReIdXk0PTftUVt9qleVIo4i4XczHA5NWBcagdK882Kfbtv/Hv5oxn03Umm3Ooz2jSahYLaTAnbEsocEfUVFpl3q1zNKuoaWtkg+4yziTf+XSiG81ZtWaCTS0jsQTtufPBLeny02/vNYgv447LSkurdsb5WuAhXnnjHNSarc6napG2nael7Ix+dWmEe0fU1Jc3F/HpfnQWKS3m0H7OZQoz3G6i1uL+XTTPc2SQXWDiAShgT2+ao9KutTuUkOo6clk6n5Aswk3D8OlNsLvVpr6SO80tLa2XdsmWcMX54+XHGRTYNXkm8S3ejvbbBDAsyTBs7wTjp2qS91RbHVNPsCjO18zqGz93aAf61pAjHFFApaKKKKKKKKKKKKSilpKWiiiiiiiiikzzRRnmjmijPNFFHNJjGPrXB+H/FWmaSupWt0bjzP7RmP7uBmGPl7gVrnx/of968/wDAV/8ACk/4T/Q/715/4Cv/AIUv/Cf6H/evP/AV/wDCj/hP9D/vXn/gK/8AhR/wnuh/3rz/AMBX/wAKP+E+0P8AvXn/AICv/hR/wn2hAcvd/wDgM/8AhR/wn+h/3rz/AMBX/wAKT/hP9D/vXn/gK/8AhS/8J9of968/8BX/AMKq6p460SbSLyJTd7nt5FGbZ+pU+1amh3aw+GdLQcsLSL8PlFS7Zrt843VbgsUHLncfSrYAA2gcUopaKKSiilooopKQmqV3PYxXtlHchftEzsLbIydwUk49OM0apfWmn28ct6CY2lWMfLu+YnA4+tWLieO0tpriZtscSl3PoAMmqVzrlrbabDfLFcTwzgFPIhLsQehwKmbUoxpf28wz7Nm7y/KPmfTb1z7U3T9Ui1Gza5jguI1UkbZoijnHoDTNK1uHVnmSG2u4fJOCbiAxg/TPWm22uQXWpvYJa3iSJnLyW5VDj0bpRda7Ba6klg1reu7gHzIoC0Yz6tS6rrUOltEslteTGTp9ngMmPrjpUt/qUen2AupILmRMj5IYS78/7IqPSNbs9ct5pLUTJ5MhikWWMoysADjB9iKfHe2h1iSxUZvI4RI52/wE4HP1pbq6sodQsoLnb9omZhb5XJyBzg9uMVdyCKXtRS0lFLRRRRRRRRRRSUtFFFFFFFFFFJWdc6zZ218tk5kNy6GRUSJmJUdTx9ab/wAJDpjWUN3DciZLiTyohGCWkf8AugevB69KQ6/p7Wsc8cpkErMqIqktlDh8j/Z71JPrlhBHG5mLrJGZQY1LYjHVzjoBmrqOjoJFberDII7iqT6xZRXn2ZpcMrBGbHyq55Ck9Mkf09RS/wBsWX242okO8P5edp27+u3PTNLBrFncXf2eOTLEsqnHDspwwB74PWktdYs7vUZrKFpWli+8TC4T8HI2n8Cav5rivDUjLBqQDEf8TKbuf9mtoyP/AHj+ZpvmP/eP5mlEj/3j+Zqne6ulpIsOJZJWjaUqhyVRerHnpVqK58+BJopN0bqGVgx5B/GqU2vQ291JE5lKwsiTSA/JEzdATn6fnUUviMRaktm1nf8AzSiITBB5ZbGeuc9j27Vq+azZO4/mab5j5+8fzNKZHx94/maq6pK/9j3vzHIt5Ocn+6as+GrNX8O6bJIck2sZ/wDHRW2AsaZwAB36VWtNV06/kaOyv7a5dPvLDMrlfqAatAYp1FJRRRRRRRRS001Su7K0nvbGa4IE1s7NB82MkqQfrxml1SCxuII1v9nlCVWXe2BvB+WprtIZ7SaK4wIXjZZcnA2kc/pSWUNvBZQw2xBhjQLHg5G0DjmpgMHpRtBOaXbk80gXHegDB9qULj6UHAGTVGw0+Cyku5IGZmu5zNLk5w21VwPwUUJYWq61JqKt/pTwCJl3fwg5Bx9aS6tbObUbKa5I+0QFjb5bBJIG7A78Yq+MMOOlLRRS0lFFFFFFLSUUtJS0UUUUUUUUUUlB5Fcjq0mzxzZEXi2hGnzKZWAIB3Lxzx/+quft7QyeHILKTfbkavJ5OsICpBwSJ8dPmPy+hrQ0bzrS80y7vokSKKO6t2kj+5LJuz5o/wCug59zUel2tzpMMj6gjBbrSpEiBHQ+Y7bPqQ68e1dBYWy2VhoFtqElwLqJAqCIttZ9vO/HGPrWRcQTCDVtM2s11darFPF6tHmJt30ARh+FIttcGH+y9zfbv7dFwxHXyw4Yv9NopNNgmEGg2eCLjTrqaS7z1VV3Ak/72QR61o+HbaC21iRtFvJLjSpoWaSNpN6RTbhjaexILZFdSB0J9a4rw3/qtSHpqUx/9BrZPXpSZ9qPesO/jlttde+ETyR3GntbrsUnD5YgY9Du/SsWawn0y2sZEWaX7LbpHqUSEnzUZuNn+0p9OwNWbywuJbXWdOiikP8AalxFLbvtOApxnJ7YxjmugkRptahBDCC2Qycjhnbgfpu/OroOe3PejHtQfpVXVD/xJb7j/l2k/wDQTWp4ZOfDGl/9ekX/AKCK0nGRtIyD1HrXIarpljpfjPw5LYWkNs88s0crRLtLr5ZODjrzzXYDvmloooBzRmignFFFGaAc0UGs7UNMF9qWm3hlKGwkeQKP49yFcfrS6xpUWr2scE8rRqk6Sgr3KnIFWL62W9sLi0ZiqzxNGzDtkYzTdPs1sdOt7NXLiCNUDEdcDGatAYFHelpKKM1Fch2tpBHw+07frjivO/hn4l1PXtc1mC5gESQzGS4I/wCehCoFHoP3bn8aj03xDqc3xcudIeACVY/Kebt5SndkD1PSk8deINW0vx1o9lBbpL5x3Wrn+EvhGB9cYz+NeloCiKjckAAkd6fnjpRn2oz7UZ9qM0ZozRn2oz7UZ9qM0bvajPtRn2ozRRRS0UUUUUUUlLSY5pjRqTuIGR0NKVGPUHjBpuwYIJwDTgAByOBRgfiKQAD8KCueN3NBQEZHXvTgBnINHp9a850fWUsm1OFrDUJiNRmO+C33r1XvmtL/AISWM/8AMJ1j/wAA/wD7Kk/4SRP+gTrH/gH/APZUHxIn/QJ1j/wD/wDsqX/hJUx/yCtX4/6dP/sqQ+JoyMjSdYB/69P/ALKl/wCEmjIyNJ1cY4/48/8A7KkPiWPtpGr49rT/AOypP+EkTtpOsf8AgH/9lSjxKn/QJ1j/AMA//sqU+JEx/wAgnWP/AAD/APsqral4hjk0m8T+y9WXMEgy9rgD5T3zXVeGePDOlj/pzi/9BFahOK5XxTIkPinwvPI4SNbmVWdjgAmI4ya6WW4ggVTNNHGG6F2Az+dK88UaeY8qIn95mAH50LPE8XmrKhj/AL4YEfnRFcwzgmKWOQDujA/ypI7mCRykc8bsOoVwSKBcw+d5XnR7/wC5vG78qJLqCJ1WSeJC3QO4BNLLcQwANLNHGp6F2Az+dK00Sxea0qLHjO8sAPzpEnikj8xJUZP7ysCPzohuIJwTFNHJjrsYNj8qSO5gkkKJPG7DqquCR+FBuoFmERniEh6IXG78qJbqCFgJZo4s9N7gZ/OsXW53j8QeHY45GCS3MoYA8MBEx5/Grev6dc6nZQw2s3lOlxHKWzjKqckVa1KGS5066t4W2SywsiN/dJGAabpdvLaaZa20775YYlR2zncQOTVyilpDQKzNa8Q6R4fijl1W+js0lbajPnk+nArJ/wCFmeCzx/wkFtx7N/hWD4b8T+CdAvdYmTxBa51G7MynDcLtHt/eLfnTbfxP4Kh8eXXiL/hIbUrPZrABhuGB69PSn6z4o8E6t4h0XVD4gtR/ZkkjkEN82VAHbsa3P+Fl+C8f8jDb8+zf4Uv/AAszwX/0MNv+Tf4Uf8LM8F/9DDb/AJN/hR/wszwX/wBDDbfk3+FH/Cy/Bf8A0MNt+Tf4Uf8ACzPBf/Qw235N/hR/wszwX/0MNt+Tf4Uf8LM8F/8AQw235N/hR/wsvwX/ANDDbfk3+FH/AAszwX/0MNt+Tf4Uf8LM8F/9DDb/AJN/hR/wszwX/wBDDb/k3+FH/Cy/Bf8A0MNt+Tf4Uf8ACzPBf/Qw235N/hR/wsvwX/0MNv8Ak3+FH/Cy/Bn/AEMNt+Tf4Vu6XqtjrNit7p1ytzbuSFkXODjr1q51oxRmlooooooopKKyrrW47XVY9NFtPNPLE0yiMDBVTg9/cVDH4q06ezt7qAvKbmc28cSrhzKM5U5xgjB60q+I7WaGJ4Y5JZZXkQQgAMDGcPnPHBp0niOyjiSSPfOrwNcHyxkpGvVj9PTrwa04p0lhSVGDo6hgw6EGqEuvWsV49uVcrHKsUswxtR2GQp/MfmKBrlt9s+zhW2ib7P5+Bs83+59e1Fvr1pcXKRRhwsrukUhxtkZThgPp/npT4dYtrjWbnSkJM9rGskhxxz2rQ9MVzngs5sdR5/5iU39K6P8AGj8aPxrO1DWIbC4SEq8srI0pRD0RerGrsE8V1bx3ELho5FDIw7g9KrS6nFHfrYRq01wV3sifwL6se3t61F/bKSXU1ta28109tgTGPACHGQOSMnGOB6irVjex6hZR3cQdUlGQrqVYexFWBz3pfxqjrP8AyA7/AJ4+zSf+gmofDGP+EX0v/r0i/wDQRWpzXIeNbWLVNU0HRrtd9jeXLmeMcF9qEqM9QM10F5omm6hBDDeWcc8UA/dq4J28Y/lUlxplneWQs7m2SW3GAI26cdKIdKsbfTjp8NsiWpBXyh0wetNsNI0/So2isLVLdHOWVO5plnoem6dPJc2dlHDNLne6Dk5pf7D0z+0f7R+xx/a/+e3O6kvdD0zUp0nvbKKeWMYV2ByOc0++0mw1WFIb+1juI4zlVcZwadNpdlcaeNPmt1e1ChfKOcYHQUWumWVnZmyt7ZIrY5zGvTnrTNP0bTtJV1sLSO3Ehy4TvTbbQtLsrt7y2s44p5AQ0i5yc8+tEmh6ZLqK6jJZRPdrjEpHzDFLfaJpuqPHJf2cdw8f3C/8Pep2tYXeN2iVng/1ZI5TjHH4VT17+0fsUJ0zImFxGXxj7mfm/SrOotcLpl0bQE3AifycDPzYO39cUmlPdNplqbwH7QYl83I6NjmrlFFFJ3NeUfHs7dG0v/r4b/0E14eGAbkZXPIrtj4Utm8a2Nimn3BsJ44Xc7ifvRhjzj1Nc1DpU1/eXKWibIo5du5jwuThRmtDT9EWGPxBa6lbEXWn2pdAWwUcOo/EYNV72xtY/Cel30UZS4nnmjlbPDBduP51BNoV9BZzXDopFvt85FYF4g33Sw7f0rL5NGR6UZ9qM+1H4UfgaM+1Gfak/Cl/CjPtR+BoH0NLuIPSvpH4P5Pw7sz/ANNJP/Qq7gdKWm0tLRRRRRRSUdq5PVQo8bWcsks0MSWEqtLGDgEsuBn14rDg0qaTw1Fp11ayx2f9qOyXwj2TxoPmSbjoxbjd6Vd0i2vrCbTb+8hZ4reG4tQyJjeN2Y5CvYuOvvTdO0y90WGR7qCRzd6Y8aooztk3uwQ/UOB+Fbllp6WNjoNreQTT3NsgVJIwSsbBcEt7Vlz6fdLHqmmCGRprvU4rmJ8cGMNGSSe2PLYfl600abdCI6R5chm/toXfm7eDEHD7vyGPrSWmnX32bRrCKJhc6bcyySu4+UDDBST3Dbgas6HZalbeMbt7m1iSM2Eal48kM2455PeuuXNc74LA+xaj/wBhKb+ldHikxS4rmdXhmtvEEt8YnkiuNNa2TaM4kBYgfjuA/CsObT7zR7OwnH2iX7LbpDqsEZPzxs2Rs/2lPXHUZFTXlheJf6rcWpnGoXNzBLYSpnaYwqjafYc5Bq/oU8fh+61PTtR8yN5r2S5hn2ErMj4xgjuMYx7CupgbzIlfyzGCM7WGCKkxzRiqWsj/AIkV/wD9e0n/AKCag8MDHhfS/wDr0j/9BFahrl/EnPjDwsMj/j4nOP8Atka6cdKWijvRmiijvR3o70d6KKM0GszXtRn0uzhmt4RK73EcRBB4VjgmrWoXLWmnXVyib3giaRV9SBnFM026e80y1umTY08auy+hIzVyjFFAo715L8fP+QNpn/Xw3/oJrxBCA3zZxnnHWupPiaxPjGy1rybgQ26RK0ZYbjsQJ198VBpOt2Fsmo2V7HdfZbtxLHLbOFlicHI68EHoahtNatrYawDFKy39uYI8sCy/MpBYnr93n61XuNWhl8N2GmLG4ltZ5JS5xtO7HH6Vf1HxNBcyand20MkdxqqBbhGIKKerEfU9PSuazRRRRRRRRRRRRzRzX0n8Hf8Akndn/wBdJP8A0Ku4ooopaKKKKKSiikpcHtSYJOc4pevTik70EelL39qQZ70vQUdhXH+FL2W3g1JE067nX+0pjvj8vH8PqwrdbVrjP/IFv/8AyF/8XTf7VuP+gLqH/kL/AOLp39rXHQaNf/8AkL/4uj+1bnH/ACBtQH/fr/4uj+1rkf8AMF1D/wAhf/F0HVrjH/IF1D/yF/8AF0DVrnr/AGLf4+sX/wAXR/a1x/0Bb/8A8hf/ABdJ/a1xn/kDah/5C/8Ai6Dq1x/0BdQ/8hf/ABdVNW1O5fRL4f2PfLm2k5YxYHynr89W/DAx4Y0r/r0i/wDQRWm3QisbT/C2nWOqPqSiee6YtiS4naTZnqFB4UfStqiiijFFFLSUUUUUhFB4FUNY1SLR7aO4lVnWSZIcL2LHFWL26js7Ge5kBKQRs7ADsBk0lheR31jBdRKQk6B1B7AirNFLSUeteS/Hz/kDaZ/18N/6Ca8O5o7daKXt1pOtFFFFFFFFFFFFFGaO9fSXwe/5J3Z/9dJP/Qq7mjFFLRRRRRRRRSGsa81i4h12HSYLRZHmtnnV2fA+UgbfrzVFPGcM+mWt0lu0T3F4bPbK2EjkBwct3HHBHWpYPEzXcdukFoPtU5mzGz/LtjOGYHuCelB8UrcQo+n2/nH7K1zKrNgoqnG365DD8K1odStJ4LWZJ1C3YBhycF+M8VnT+I1juZ2WDNpa3CW00ueQ7Y6D0BZQf972oXxGpuf9UDZ/bPsfnE8+Z06emcCktvEiXE1uTHttb2SSK2kDcsyEj8jgkfSptN1S9uNUubK808W+yMSRusgcMucYOOhrXAwBXOeC/wDjx1Hj/mJTf0rpPwpPwpetZGo62bO7a0it/OlitzcyjONkeSM/U4b8quW+oWtzbRzxzoUkRXHPIU9M+lZ03iSKG8mXys2tvOtvNPu4R29vQZ5pH12/i1iKzk0OZbeaYxJc+cnzYBOdvXHymtxW3DNL+FH4VS1k/wDEjv8Aj/l2k/8AQTUHhn/kV9L/AOvSL/0EVpOwVCzHAHJPtWVpnijRNYvGtdP1KGedM7o1PPHWtfFFLRRRSUtFFFFJRSHpVLVbuzsreOS/AMTSoigrn5yflqa7lhhs55bnHkpGxlz0245/SkspLeaygktceQ6AxYGBt7VZFFLSd6O5ryX4+f8AIG0z/r4b/wBBNeHmkoooooooooooooooooo719J/B7/knVn/ANdJP/Qq7gUtJS0UUUUUlLRSVzGq2E03i61u30+4ntI7KWNmiYD5mYYH3gegNZMPh3UF8Ppp13Z+ZpbX7yPZ5BlW2I+Vd3dg3J7471Z0vRdT0o2N46SXP2WOe3SNmBkWEtmLPuBwT/Oiy8PX+jxsYY/Pe5sHgbYRhJC7Muc/w/Ocn26Vs2envpdno9itnHdC2Ty2nZgDBhfvDIzz04IrMm0K8K3+nRxZhvr+O7WfPCKChYHvnMf60g0K52f2X5B+zDVBe+fnjywwfb1zuyMfjSWeh3kKaTZyQkx6TPJKHBGJevlgc+jc571padp7tr76ylvNZCe38u4hkb77hgVbAJHAyM+9b1c54L/48tR/7CU39K6OkzR71zmp2N3HrF5eW9u0y31gLX5cfI4LEZ9vn/Ssm50G4097C6tbFrk2EUUF7CAMXiccj1KH5hn6VNdaFeypqWnLE3lajfLcibjaiEgsD7gjGK6JoJZ9eW4dMQ28OIyf4mc8/kF/8erRUYpc80VS1r/kB3//AF7Sf+gmofDP/IsaX/16Rf8AoIrSYZrlfEMMUXjPwu6RIjGaddyqAceWTjPpXVdc0tFLSUUUUUUUtJRSNVHVLaxuraNNQKiJZkZSzY+cH5f1qxeRwz2U8NwcQyRsshJx8pHP6U2yhht7KCCA5ijQLGc5yAOOasilopKO5ryX4+f8gbTP+vhv/QTXhxooooooooozRRRS0lFFFFHevpL4Pf8AJO7P/rpJ/wChV3IoopaKKKKKSilpKTg0YXGMcUYApcCkKgnJHSggUuB6UgAHQUUp4xXDeG9V1S0TUorXQZ71P7RmPmJPEoz8vZmBrZOva5/0KV5/4FQf/F0n9v65/wBCld/+BUH/AMXQdf1z/oUrv/wKg/8Ai6T+39bH/Mo3f/gVB/8AF0v9u64R/wAild/+BUH/AMXSf2/rgH/Io3f/AIFQf/F0o17XP+hRu/8AwKg/+Lo/t/XP+hSu/wDwKg/+Lo/t/XP+hSvP/AqD/wCLpTr+uAZ/4RK8/wDAqD/4uqmq67rT6NehvCt1GDbyAsbmE4G088Nmtfwz/wAixpf/AF6Rf+gitQnFcl4unjsvEHhu/uXEVpDcyLJM33ULRkLk9s8iuhudUsbIJ9pvbeASDKGWQLuHtnrUk17a29uLma5iihOMSO4CnPTmgX9o1p9sW5ia2xnzg42Y9c9KS11C0vY2ktbqG4RerROGA/Km2up2N7IyWl7b3BT7yxyBiPriganYteG0W9gNwOsIkG8fh1on1SztbhYLm8t4JGxtSSQKWz0wDS3eo2dgqNd3cNsrnCmVwu4+2adNfWtvbi5nuYooCMiV3AUj1zSx3trNbfaoriOSDGfMVgVx9abaajaXwZrS6huFXqYnDY+uKbb6nY3c7wW17BPKn3o45AzL9QKU6nYi8Fmb23FwekJkG/8ALrSXOqWFlKkd3ewW7v8AdWWQKW+metOur+0skWW7uobeNuA0rhQfzrF1nV/Dd/bQQ3GqQSj7TGUW3mDMXz8vA7ZrbvrZb2wubQsUE0bRlvTIxmmabafYdOtrPf5nkRhN3rgdat0tFIKPWvJfj5/yBtM/6+G/9BNeHHrRRRRRRil7UYIGeKMcZpDSgDHakIx6UUUUUUUd6+kvg9/yTuz/AOukn/oVdyKKKWiiiiikopaSse61m4g1yPSobESvNA86uZQowpAx0PPNUo/Gdtcafa3MduyPc3hstkrBVSQZzlumOOPWpIfE7XSW8dvaE3c7SgQu3ygRnDMD3BPT1pT4qjmiR7K3MxFq11KpbGxFOCPdsggfStWLUrWaG1mSdNt2AYgTgvxnj1rOm8RpFczgQl7a2uEtppt33ZGx0Hp8y/n7UDxGhuSPJH2UXf2Pz93/AC16Yx6ZwM0kHiVJ5YD5JFvdySRW0meZGTPGO2cHFPsNcuZdaOlX+nG0laA3ETLIHV0DBSDxwQWHHvWyD/Oud8F/8eWpf9hKb+ldHRRWPqWtNaXr2sEAmeC2N1Pk42x5IGPUna35Vat9Xs7m3WeO5iCtEsuGYAqrdCfT0qD+2o5tZfS7cozwgGd2bAUkZCgdzjn2qCPxEbnxDJpVpHbypb8XDtPtdDjPCYyw6cg962xyM0tBqlrP/IDv/wDr2k/9BNQeGcf8IxpeB/y6Rf8AoIrT5zXJ+MLeK/13w7pt0gms7m5kM0LfdkKxkrkd8Hmujm0vT7lUE9lBKsQwgeMEKPb0p8tlaz24t57eOSEYxG6gqMexpFsbRLM2i20YtyMeUFG3H0pbextLONo7W2ihRjkrGoUH8qbb6dZWjM9raQws/wB4xoFJ/KkGm2IuvtQtIRcf89dg3fnRNptjcTLPPaQyypja7oCwx6E065sLS8RFu7aKcIcqJEDYPtmlksrWe2+zTW8ckOAPLdQVwPaiOytYrY20VvGkByPLVcLg+1FtY2lmhW0tooFJyRGgUH8qbb6bY2sjS21pDFI+SzIgBOfU0HT7I3Qujawm4HSUoN350T6dZXTK9zawzOn3WkQMR9M0txYWl5Esd1bRzopyFkUMB+dQpomlRyLJHp1qrqcqwiUEfTin6jDLPp1zFbsVlkhdI2zjDEEA/nSaVBNbaXbW9w++aOJVkbOckDrVyilpKPWvJfj5/wAgbTP+vhv/AEE14caKKKKKK6Lwzo1rqdlq7zxNJJawK8eGIwd2D068VZvtFsLbwjPfG2K3Qu44kPmNgKVYn5c89BWfZ6TJNHGg0y4uJHPBjcANnoMetPutJZtKlkh0toDbPullluATg8BQv+etdJpHg3StSsYpEid5orWCa5G9gUzLiTI7YTkCsnxl4at9DFo1tGQJA3msH3qp3HYM+6YP41yjDaSKSiiiijvX0n8Hv+Sd2f8A10k/9CruKKKWiiiiikpaKbnJxXL6tZPL4vtbqWxnmtI7GSJmiODuZhxwQegrLg8PX58Px6ZeWZfS3vndrTKmWO2x8q7gfvb+cg5x3zVjS9J1TTWsLuSKW4+zRz20ceV3iInMW7kDIHBosdBvtFiJihNw9zYPAwUj5JC7OM5PT5yM+1bVnYtp1lo9iLKO7+zr5bTkjMGF+8Mjv04rLl0O8A1DTkjJhvdQju1nyMKoKFge+cx/+PUg0G68s6WYW8gaqLzztwwY927HrnI9KWz0S7iTS7SSBvK0m5ln8wY/e/eCAc9SG59MVf0i4nudSlurrSbu3nkTaHm2bEQHhVwxPPU8Ct8Guc8Fj/QtS5/5iU39K6T8aT8aOnNc9qem3n9q3N7axecL2w+yMAwGxgWKscnp8/b0rKvPDl1af2fc2VkJ5dMjjhljO3F8nG4cn+EjcM96dc+G7mSS/gSHD3l+t5Fd7gDD0JB75GMDHBFa01idQ1u1vDphtJbKZm+0tszKm0jAwc4JIPOOlbqnC+lO/Gj8apa1/wAgK/5/5dpP/QTUHhgf8UvpX/XpF/6CK0z61y3iGRZPGfhiIMpdZp2KA5IHl9fpXUg5yKXGaMUUYxRigjNGKMUUUAYoxRQaMcVV1Jp49MuntRmdYXMQ/wBrBx+tN0t7iTS7VrsHzzEpl/3sc1cHHWlopKPWvJfj5/yBtM/6+G/9BNeHmkooooFLjvXbeA7uw06YS6i8axs6vFIJQCrDIIdc8r7EVf1+90u40WKK2uLKe6awRJXkfAiKMSQgHVznqegGO9U/CV5bLc6dpNnNbxL9pju7+5uWEe/achFJ6AfgSayL7U9MvtKnjuoT/aNvcZtriNQPNiJOVc+o7H3rs9LvtBudLtLGS9Wyikjinlxet5pm8wL8zEdAmSB79K53xpqem32k6Y8Mds99OrPdSwSucEMQMqeASAD0HWuMzkUdKSiigUd6+k/g9/yTuz/66Sf+hV3FLSUtFFFFFFJS0mKMU0jOf5ilwDyDSDIFKAAeBQR6GjpSYxxml6nGelL6Vwnh278QQLqSafpVvcwf2jNh5LkKc8dq1zqPi/8A6ANn/wCBlH9o+L/+gBZ/+Bgpf7R8X/8AQBs//Awf4Un9oeL85/sKz/8AAug6h4vwf+JBZ/8AgZR/aHi//oA2f/gZR/aHi/GP7Bsv/Ayj+0fF+P8AkAWf/gZR/aPi/wD6AFn/AOBgoOo+L/8AoAWf/gYKq6pqHiw6ReiXQ7RE+zybmF3nA2ntW14Y/wCRY0vr/wAekX/oIrTYZUj1rM0/w1o2l3sl7Z2EMVzKSXlxljk5PNaneloooooooooooopDRVbULlrLTri5VPMaGJpAv94gE4pumXb32m2126eW00SuU/ukjOKt0tFJRXkvx8/5A2mf9fDf+gmvDjRRRRRRmnByBjAo3HOetIGIPFBPQ96Xd7ZoLZ7U2iiiiijvX0n8Hv8Akndn/wBdJP8A0Ku4FFFLRRRRRSUUtJWJfateReIYNLgjg/fWzzB5CQBtIGP161mjxnv0W0vPs4tvPvTZySStmKIg43FuMqT0PHWrFv4jubxbSCK2jS6uBM+HztKRnG4d8N2pI/FL3kStp8KuyWbXUyufu4JXaPclW59q1odYspobKUTAC/GbdT1fjP8AKs6bxE4uLiWOJTZ2l0lrK+fm3tt5HsC6j86UeI2+0CUon2E3v2IPn5t/Td6YzxSWfiVriazkkiVbXUJpIbdx97Kk7Sf94An2q3pGqS3+oanaywpH9hmEalTneCM5rWHSub8FjFlqX/YSm/mK6TPOMUn4UvWsbUtalt76S0tYleS3tTdTFj0TJAA9ztb8qnt9e065tUnW6jGYklZSwyit0yPrxWfP4m8m4upBGhsrO5S2mfPzbj1I9gTiny6nrkWtwW0lhZraTzFEcTkybQpJYrtx29e4rfBzR+FH4VS1n/kB35x/y7Sf+gmoPDHHhfSv+vSL/wBBFaTk7Tj72OM+tczBrGvWXiGzsNagsTBfmRYJLYtuVlG7DA+3cV1AOaKKWiiikoooopaKQ0dqr3s8drZT3E4LRRRs7gDPygZNJp9zDd2FvcQjbHNGHQYxwRxVkUtFJR615L8fP+QNpn/Xw3/oJrw49aKKKKKKKWkoFHeiiiiiiiivpL4Pf8k7s/8ArpJ/6FXciiilooooopKWikJxXNanpdxceKre/bT/ALVax2ckLfOoOWIPQkccVnW/hjUY9GSxlhilsDfSSvpm8MotyDtiDHjhvmqbTvD1/pP2O6jJuGtVnhSF3BZIWbMa7jwdo4PrS23hi80mEiy2TS3Fi1tId2AjlmYPz1ALt71s2ljNpdrplhaxRSw26+XK8h+ZAB1X8azbjw9cv9usERfsl9epdmUt9zaUJUjryUH501fDlwM6fsU2f9pC+83dztDBtmOucjrS2Hh25hbTLOTaLbSp5JY5AQfMBzsGO2AxzV7RLC5tNY1meePbHdzrJEdwOQFxW0K53wWf9C1H/sJTf0ro+9GaTIB61g6npV22p3N7aIshvbH7I4LAeWQWIb3Hznj2rLufDV5bCwuNOtke40tI4QGZQLuPjeD6Y6rnvip7jw3c3C31jtX7LqF4t07lhmMZBZT75HFbn2eR9bN3IP3cMOyIe7H5j/46v61fBzS5oJqlrJ/4kV//ANe0n/oJqDwxz4X0v/r0i/8AQRWmeTiuX8RjHjDwtz0nn/8ARRrp8naSKUHigHJoJ5oJozRnPSgE0Z5zRnnNBPNGaCT+FKDSZoJzUF55H2Gb7XjyDGwlz0245/Six+z/AGGAWmDb7B5W3ptxxVgcUUtJR3NeS/Hz/kDaZ/18N/6Ca8OPWiiiiiiiiiiiiiiiiiijvX0l8Hv+Sd2f/XST/wBCruRRRS0UUUUUUlFBxSEf/WpOAc5oG00oIpDjOT1FBxxnrSjGfejI5zxikGMn1p3pXC+HLnxBCmpJp2nWlxB/aM2HluShzx2xWwb7xf8A9AXT/wDwNP8A8TSfbvF//QF07/wNP/xNH27xh/0BdO/8DT/8TR9u8YAf8gXTj9L0/wDxNH2/xf30TTv/AANP/wATR9u8Ydf7F07/AMDT/wDE0C+8Yc/8SXT/APwNP/xNH27xh20XTv8AwNb/AOJo+3eL++i6f/4Gn/4ml+3eL/8AoC6f/wCBp/8Aiaqare+LDo975uj2Cp9nkyReEkDaf9mtnwzj/hGNLx/z6Rf+gitQnFcd46lntr7Qruwi+06jFdsLe16CUFCGyewA5/Cty8n11XtxY2VpIjLmbzJipQ+gwOam1SXVYrdDpltBcSk/Ms0pQAexxTpH1NdK8yO3ga/2j90ZCI89xmksZNUksGa/t7eK752pFIWT25pmly6xMkn9q2ttbkEbBBKXz65yKbaTa2+oyR3lnax2YzskjlLOfTIxRNNra6oscNnatYkjdI0xDj14xRqkutRSRDS7W2uFP+sM0pTb9MDmpdQk1OKxDadbwTXRIyk0hRQO/IpQ+p/2SJPIg+37f9XvPl59M9cU3TZNUksmbUra3huOdqQyF1PpyRUemS6zLJKNUtLaBB/qzBKXLfXI4ogl1s6s8c1parp4J2yrKTIR2+XGKS7m1xNQjS0tLWS0ON8jzFXHrgY5p+qS6vCI/wCyrW2uGYnf58pTb9MDmn3j6lHpwezt4JbzAzHJIVT35qC8g1G88N3ELRQrfz27RlN58tWII61Z0i0kstItLSUgvBCqMVPGQMVcAxRS0lHc15L8fP8AkDaZ/wBfDf8AoJrw80lFFFFFFFFFFFFFFFFFHevpP4Pf8k7s/wDrpJ/6FXcClpO9LRRRRRRRSUd65nVdTuIPFFvYG+Ntay2ckxITJ3KQP5GspfFWonwnaavcYW3N4Yri5tlyxhDYEirzgk4yOT1+lW7DWNQ1E6fY/aUD3cU1wLiLB3RA4i/Ejk0y08Q3usxkW8ogltrBp3IHDyB2VR/u/I2fqK27HWftun6XcpbTP/aCBtyLlY+M5Y9hWVPrt2BqGoJLiCxv0tBFt4YEoGJPrmTj6Ug8Q3JH9qGXFr/agsRABwULbd3ruyc/hUaeJrmGzs9Ynbfb3zzAQHgIqhmQj3wvP19qt6Vq94b3S0upBINVtnmC4x5bABgB7bc/jXSj+RrnvBePsOpf9hKb+ldH7UmBRweK53U9Tuzq11Z2svlCysftZOM72JYBT7fKc/X2p9n4ts7lIEkWRbmW2SdYwv8ArA2Advrgnn0HWo9Y1i6t9a0m1tCBBNdCO4Yjrlc7R71QtvEGoTeK5NKeUR3aXbA27ABGtdmQ6nu27AP16V2XJGaOKXiqWtYOhX//AF7Sf+gmoPDP/IsaX/16Rf8AoIrSY47Vy/iP/kcfCpP/AD3nx/36NdSAMUpxR1FFAxQMZzSY5zQQOtKcEUUdqBSY5zS8ZzSEDrS8Ec0h5FKvSloopBR615L8fD/xJtM/6+G/9BNeHnrSUUUUUUUUUUUZooooooo719J/B7/kndn/ANdJP/Qq7iiilooooooopKKxbvSLuXxHb6tBLBiG2eERyKf4iDnI+lUbbwjJaxIy3aPcfbnvXDJiJyy7Su0fw4P580+z8KHT1gltJ0jniec/dOwLKdxUDsAelOTwoLWOOOynEebRrWUlc7gSSWH+1knH1rTj0+a0jsLaynENtbDbJGUDeYoGAMnpVKbw35s9wvn4tLq5S5lix829cdD6Eop/CgeGwLgoZR9i+2fbfKxz5mc49Nu7BqO38LRqIIJpN9navK0EWMEbwRgn0AZgPrU2m+HjZ3NrLNOJRYwNBbgLjCkjk++BitoeornPBX/HjqXP/MSm/pXScUnB70cCsfUdEe7vXurecQvPbG2mBGdyZJBHuNzfnVO/8LSzJaGxuUt59M2fYJSpPlgDDhv7wYcU6+8I215qVlfqxilt7n7RKAxxIe+BnjmmDwiWvYpJbhXjhvmvEkK/vckEbN393n9BXSgY70vfrRkVS1nB0S/HrbSf+gmoPDP/ACK+l/8AXpF/6CK0z90kDNckU1TXfFmnXD6RNYWmlSSs007DMxK7QFA7d8112DigUUUUUUUUUUUtFJRRRS0UUlGeteS/Hz/kDaXx1uG/9BNeHgdTikwaKPwo/Ciiiiiiiiiiij8KPwoxRg19J/B7j4d2f/XST/0Ku4paSlooooooopKKKKKWkoo70UtN6dK5Sw0/xRpL3kVnDpssE1y8yNLO6thscEBT6Vb87xn/AM+Oj/8AgTJ/8RSed4z/AOfHR/8AwJk/+IpfO8Z/8+Oj/wDgTJ/8RR53jL/nx0j/AMCZP/iKBN4y/wCfHR//AAJk/wDiKBN4y5/0HSP/AAJk/wDiKBP4z72Oj/8AgTJ/8RR53jP/AJ8dH/8AAmT/AOIpPO8Z5/48dH/8CZP/AIilM3jI/wDLjo//AIEyf/EVDdp4xurKe2NnpAEsbR5+0ycZGM/c962tHtH0/R7OzlIL28CRsR0JAxxV2kHelFLSUUUUUUUUUtFFJRRS0lLSUUY61yvjnwTH40tLa3lvGthBIXDKm7ORj1rjD8A7M/8AMcl/78D/ABoHwCs/+g5L/wCA4/8AiqP+FA2f/Qcm/wDAcf8AxVJ/woKz/wCg5L/4Dj/4qj/hQVn/ANByX/wHH/xVH/CgrP8A6Dkv/gOP/iqP+FBWf/Qcl/8AAcf/ABVH/CgrP/oOS/8AgOP/AIqj/hQVn/0HJf8AwHH/AMVS/wDCgrP/AKDkv/gOP/iqP+FBWf8A0HJf/Acf/FUf8KCs/wDoOS/+A4/+KpP+FBWf/Qcl/wDAcf8AxVH/AAoKz/6Dkv8A4Dj/AOKo/wCFBWf/AEHJf/Acf/FUf8KCs/8AoOS/+A4/+Ko/4UFZ/wDQcl/8Bx/8VR/woKz/AOg5L/4Dj/4qj/hQVn/0HJf/AAHH/wAVS/8ACg7P/oOy8f8ATuP/AIqvQvCfh5PCugw6VHObhY2YhyMdTmtujNGKWiiiiiiikpaKTFGKKKKKKWkNFHNHNHNGT6UZPpRzRz6Uc+lHNHNHOaCKM0UtFFFFFFFFFFFFFFFFFJS0lFFGKKKKKWiiiiiiiiiiikpaKSiijFLRRRRRRRRRRRRRRRRRRRRRRRRRRRRRRRRRRRRRRRRRRRRRRRRRRRRRRRRRRRRRRRRRRRRRRRRRRRRRRRRRRRRRRRRRRRRRRRRRRRRRRRRRRRRRRRRRRRRRRRRRRRRRRRRRRRRRRRRRRRRRRRRRRRRRRRRRRRRRRRRRRRRRRRRRRRRRRRRRRRRRRRRRRRRRRRRRRRRRRRRRRRRRRRRRRRRRRRRRRRRRRRRRRRRRRRRRRRRRRRRRRRRRRRRRRRRRRRRXNf8ACXFdOs72WzijjvLg28Qa5wdwLAk/LgABGP0FPu/FJgsbq5t4rO7+yMizJDe7ipcgDOF981tXV9b2ewTOQ0hIREUu7464VQScfSlsr221G0ju7OZZoJM7XXocHB+hBBBHbFT1XN/ajUV04zr9reEziLvsBClvplgP/wBRqxRUVzcQ2ltJc3EgjhiUu7t0UDqazL3xDbW01qIJILmKWXy5ik6hogRw+O4BGD9c1ZXW9Le+hsUv4HuZ1Zo41fJYLjPT0yKq6l4jh03V4rJ4WaLyjLdXADFbcZwmcA8sc46fdJqKfxVbw6jFAbedbfymkuZ5IZFMHzbYwV25+Y7sZxwM+lbFtcpdw+aiSopJGJYmjbg46MAaxV8UH/hH9S1t7Fvs1nLKsO2QE3EaNtLjjgEg49cZ71pLq1v/AGv/AGVIksVy0RljDp8sqDAYqw44JAI4PPTHNV59dkjvpLCHSrua6SIyqgaIBl3bQcl+Mnpnng8U248Qpbw38v2G4f8As9WM4WSElMLu5G/IyuDz61o21w1xYRXPkOjSRCTyiRuBIzt64z261Rj1wy6lPp6aZeGeCKOWQZiwFcsF539fkapdF1dNbsWvI7aaCPzpI083blwjFdwwTwSDipZtUsLe5a2mvIY5lUOUdwCAc4P6GqWneIba5gkN5JBayxStHjz1KuAeHU+hHPPTpVqLWtOn0Y6xFdJJY+WZfOXptHU/pWdZeLLeXThcX9tcWU6R+ZcQGGRvs42lhvbaAMgfnwM1PpHiBNQigjuLWe2vnC+fbiGRhASu4BmKgDj9fWkvtfFnrY0zZbKTbCfzLi58oH5iuB8p54ps3iHyYXl8zSm2KWwNR5OB/uVat9Ua48ORat5ARpLQXPlFs4ym7bnH4dKZaa7bzWmlST/uptUjDQxJlxnZvIyB0A7nFSaFqbazodnqTQiA3UQk8sPu2598DP5VoUUUUUUUUUUUUUUUUUUUUUUUUUUUUUUUUUUUUUUUUUUUUUUUUUUUVwWmwy3XhiM2lrO91EZhHclDstf3zNvUdZGyAcKCDtwSM813upo/B1xbNp88ouHWd9UQqY7h/NUMzBsOjZ42FeMYHArYkm1K4+I15BZ+Sn2fTIdss6l1jDyOWwoIJLFVHUfd+gq7oupXl1pjpaabZpPaXUtvcRCYxRh1bllwhyGzu5x171eN/e2sE1zqVpbwQQxly0NyZGJHbBRev1rnbG4tV+IFpPLe20lzc6ZP5pSVWAYyw7UB9gMD1wT1JrtKKo6tFZXFmINQhkmheRTsRHfJU7hkJzjI78VjarqcdhHbrFJqkst1cCCPfHIoUkE5PycgY6Dmp9H8nTZI4ZptT1C7umYNdT2cgCdW2524RM9AT36mqWryi91qDQbCIiG6aWe9m42TlAMwljnIOVDcHCjbj0Zq13LNoUv2S2sglzqEFtdjzy5JeeON0cNH/dO3noMY4xW3eDVp9Na1Aihurl2jE0DErBGf48kD5gOB6tjtnHOWGkz3/wAKltIby4G/THiSIbCCdrAclSfTvXQ6TGuo2un6x/aF1MJIBJGCyqhDqDyFAB7delYEt1qKa/ql8JntmN5p9skYVTmBpQuGyCQTvc8YxuHcVZ1DTtROk+I7U28cZ1aZwkrzqqhWjSJc+hwo/MVvaPqP9qWTT/ZzAEnlgClgc+XIyE8e6muftZmbVdT1dp3hs9Ruf7PSZCMxhFCI4J4/1vmqPdlq14UimjlnitbySXRrKNLO0WRU/eOmQ7hgoJAOF9yrH0q20enJeXE8Iv4ZppMzvFBMfMKjaOdp4AHGOPzrIt5xrd27m71aCys7l4mhWGRjclTtO47ThOvy9fpityS+sJ9KS5ktLjy0kxDbSW7Ru7qflAjYDPTIzxwDxjIwdHuJbiztNV1GG3km1eVZE+0TFBGwLGKEbUIIUcjJ5YkgA4q9o8uqT6/rEjw2eIr2O3djISyxCCNwqkIM4aVm5P8AER71U1+7ez8Q6jcQ7DNDo8flq0hTc7SvtXIIPOw9xWBfTPcX2rxNKLwRWUUkFvPdFozIfN7facc7Vz1+g79jq3n6l4ZSSwvYfK2b5pIzuEiKpJVSCerAA8njNZOhaJY2trpl7JFcpGbNGiS2804kdE8xvk+6DsTjjnee9P8AA8Vm2j6K4tr8zpZcTuZfKXOMrycc9eBjj6V2NFFFFFFFFFFFFFFFFFFFFFFFFFFFFFFFFFFFFFFFFFFFFFFFFFFFc3pWiX8egRafepaYV5G2kMWXc7EEMpGDg9RUV34d1UeHp9LgvRdLJMrp9pkd2Rd6naHYkkDB65Na13pDyavHq1nci3uxCYJN8fmJLHncARkHIOSCD3PXNTaVpkel2rxI5kkmleeaRhgvI5yTjsOwHYAVdrJk0i5fxNDrIvYgsVu9uIfIJyjMrH5t3XKDt+Fa1FFYOsW2q32s6VHFZw/Ybe6FxJc/aPmXajDGzb3LcYJ6c4rerLu7KeTxFpl3Gg8i3hnWRsgYLbNvH/ATVPXNMupXhg07T4PKudQtrq7n87aymOSNixXHzZWILwc9OK6CsrwxZXGm+G7Gzu0CTwxbXUMDg59RWVDpet6JqNvY6asdxocl15pHmbJbRTklAD95NxBGOQMjBGKvXHhqG81O5u7meTbLNbyokbkAGIhgGHQgkenSpNQ0eGKyZtM0fTZZ0GUhmiCK/tuA+X64NMsdMv7Lw1Dp4lC3LKzXE0J5VmJZ9me+WIBOMdT0wWzaHLf6aukyrFZaUIxE1tCd0kif3Sx+6MdcZPowpuk6frWizw6bG9pd6PGu2KRyY54FA4UgAq/pn5T656nauGnWBmto45JQPlSSQop+pAOPyNZfhe0vrXTZn1G3W2uLm7muGhWQSeWHckDcODxWxgZzjkVi6PpLw+FbCwvrWKSe2RG8t2yokQhlORnoQDkZp3h62v4pNVutQtktpL2+81Ykl8wBRFHGDnA6+WT06EVWu9Cubm6N6Qnny6hBKwLf6uCI/KPc8s31cjtST+HLuJJ7yDVLu51FxF80jxwhvLYsq/LHwPmYdDndzU+l6bd2vg1dPmRBdm2cMitkB2ycZ78nGam02HVLLSrK08i2Jgtoo2LTMDuCgHop4yPWodF07VtJ03TtODWbQ2qCOV8sWkUDHyjACnODzn0963KKKKKKKKKKKKKKKKKKKKKKKKKKKKKKKKKKKKKKKKKKKKKKKKKKKKKKKKKKKKKKKKKKKKKKKKKKKKKKKKKKKKKKKKKKKKKKKKKKKKKKKKKKKKKKKKKKKKKKKKKKKKKKKKKKKKKKKKKKKKKKKKKKKKKKKKKKKKKKKKKKKKKKKKKKKKKKKKKKKKKKKKKKKKKKKKKKKKKKKKKKKKKKKKKKKKKK/9k=;" parent="1" vertex="1">
          <mxGeometry x="-260" y="800" width="351.27" height="260" as="geometry" />
        </mxCell>
        <mxCell id="CCDfUm1BeuJQhzfp21ur-51" value="" style="shape=image;verticalLabelPosition=bottom;labelBackgroundColor=default;verticalAlign=top;aspect=fixed;imageAspect=0;image=data:image/jpeg,/9j/4AAQSkZJRgABAQAAAQABAAD//gAXR2VuZXJhdGVkIGJ5IFNuaXBhc3Rl/9sAQwAKBwcIBwYKCAgICwoKCw4YEA4NDQ4dFRYRGCMfJSQiHyIhJis3LyYpNCkhIjBBMTQ5Oz4+PiUuRElDPEg3PT47/8AACwgC0AKdAQERAP/EANIAAAEFAQEBAQEBAAAAAAAAAAABAgMEBQYHCAkKCxAAAgEDAwIEAwUFBAQAAAF9AQIDAAQRBRIhMUEGE1FhByJxFDKBkaEII0KxwRVS0fAkM2JyggkKFhcYGRolJicoKSo0NTY3ODk6Q0RFRkdISUpTVFVWV1hZWmNkZWZnaGlqc3R1dnd4eXqDhIWGh4iJipKTlJWWl5iZmqKjpKWmp6ipqrKztLW2t7i5usLDxMXGx8jJytLT1NXW19jZ2uHi4+Tl5ufo6erx8vP09fb3+Pn6/9oACAEBAAA/APZqKKKKKKKKKKKKKKKKKKKKKKKKKKKKKKKKKKKKKKKKKKKKKKKKKKKKKKKKKKKKKKKKKKKKKKKKKKKKKKKKKKKKKKw9S8QR2uuabp8NzaATvL9pMjjMaIvbkYO4qOferi67pMjKqajbuWjEi7ZAQVJIBBHUZVh+FVtT1+OLwzcazpjxXKxg7Cc7WIbafTvmqs+v3dvrcunPJAVgtxNLMlrI4Qk/dIUntyfQFfWltNeuru+0YxPDJZ6nHLIGNu8b4VQQQGPfPp0q5f8AiKzsFuZGinmisyBcywoGWEnBweck4IJCgkA1rUVQ0zWLPVzefY3ZxZ3JtpGIwC4VWOPUfMOfrVKy1XU9YgS5sLa1gtxcSRO1xIzMRHIyNhVGOdpwSfwptrqur61pkN5pdtZ26Sk/NdSM5GGIPyqB6HB3fhWxO1wsQNvFHJJkZWSQoMd+Qp/lUPm6p/z52n/gU3/xun2LXrW2dQjgjn3H5beRnXbnjkgHOOvFWaKp3uqW1hPbQTFzLdMyxpGhdjtGScDnA9fcVTTVbkatIr28rWDRBo3FrKHWTOCpG3kYwc/UVa0/V7fUprqOCO4UWrhGeWFkVjjJ2k9cdD6GsmDxNdtdys+nSSWlzKY9MaPYpuNqEsSWcAZwxXgZVc85otvEt21zIZNOlkgu5WXTPL2KZgqZJLM4HJDFeB8ozzV7XdXOnWRjtyn9ozxt9likUsCwKgltvYFgT7ZqlqXimKOyt/7NuLaW5mvltGaYMiIRzKSDg8KD36kda2LTVbC/nngtLuKeS32+asbZ2bhkZ+uKzZPELR63facwsoxaiNlee68ovuBPTaemKLfxBLceIrXTFWxeOa2mnd4LoyldjRgD7o6+Z+lbFw1wsebaKOR8/dkkKDH1AP8AKoPN1T/nztP/AAKb/wCN0+xa9a2zqEcEc+4/LbyM67c8ckA5x14rGstcvbya+UskQtruSBQthNLkKeCWU4zTLzX7y3urK1hmimnuLmOMwtYTRt5Zb52GW7Lk/hV7xHq7aNa2s4khjSS7iileb7qxscMeoxgd+1VdW8TGCK9TT4w8tpJaqZpBuiPnSKMDBBJCtn8RW8ssbu6JIrNGcOAclTjOD6cEH8afVVr5DqAsolMkqqHlIOBEpzjJ9Tg4HselRatrFpotqLm883yywUGOJn5JCgEgYGSQOcVNqF/b6ZYTXt0+2GFdzEdT6AepJwAPU1QvdVuUmtWsreaSPzdtyklrKD5ZH3lO3qDjjuM1Out2z6nDp6w3ZllRn3G2dVQD+8SOM9vXBqpr/iIaXo15d28MzzW6kqJLWUISDjrtHHvmkuvEfk67p9ikMxhuIZnkLWku/KbMbRj/AGjng9q0rO9kvrD7SlpNbyHOIbpdjAg8ZxnAPqM9aWwv4r+J2QMkkTmOaJ/vRuOqn8CD6EEEcGrVZfiDVpNJ04SW0IuLyeRYLWAnHmSMeBnsAMsT2CmpmvZItWitJ9ix3EJMWM8yKfmXPfgggYzwx7VdbO07cZxxnpXOXHiO7aLS/ItPs09zqn2K4iuFJ2hVcuVIIyMJkN0x27V0eQPxrJ1bVr7SNNu9Qlsbd4bZWfC3J3Mo9tmAfbNC6tftrD6YLG381LdZy32ptu1mZQPudcqasxXdzbaabnVY4o5FJLC1LyqFzwfug9OvFUbbxA/257S8tZVeW4K2hSJgZosKS5DdNpYg/TOMGmWPid746Vs0yZRqQZgfMU+WirlmPPQHaP8AgQq34g1aTSdOEltCLi8nkWC1gJx5kjHgZ7ADLE9gpqZr2SLVorSfYsdxCTFjPMin5lz34IIGM8Me1XqKKxNW1x7HVoraPy/It7aW8v2ZSzJCowoUA/eZs49kamXfiC8e6isNL0tpbm4gaeF7uQRRFFKgk43N1deNtbi7igLgBscgHIB+tUtM1iz1c3n2N2cWdybaRiMAuFVjj1HzDn61Tt9d363qMVxPawWFsyQRPI21pZtu6TBJwQAyDgdc+lNsPE9obJ5NUurS1kjnaHInUrIN21XUZyA3Bwen61pXup2thLbxTs3mXLFY0jQuxwpYnAycADr7iqaavMNUkje2mNiYgySC0mDh8kFSNvIxg547irOn6vaanNdRW3nbrRxHIZIXQbiAcAsBnrz6U3Vb25gsrs6fEs95bRCYQNn96OflBHQnawB7HtUEWvrLrVnpYsp1luLI3km7A+zrkAKw9SSRx/dP4O1/VzptoYrZkOoTo32WN1ZlZgVGTj+EFgT7VR1LxTFHZW/9m3FtLczXy2jNMGREI5lJBweFB79SOtbFpqthfzzwWl3FPJb7fNWNs7NwyM/XFZ17rV1B4ibTI0XyxaLPv8iSRsl2Uj5Og4FGnaxd3XiKfTpVj8mK0ScN5EkbFmdlxhu2F9K3KKKKKKKK5PV9QtdM8Q3+oXJji+waUTAr4Bmd2ZnCg/eOIo+nrS+GLBtL1eOwf79vodnG/uwebJ/PNU5jj4WXRxnmbj/tu1L4lsJr1EQwm3QSGQwQFZriXcefNXcN0RxhkUkkAYIxirYk1V/FGipqlna27Ri5VGtpy6yDYvOCo2j25/xy9GbWY/DOtanBqCwTW19eyrAYlZZGWVyRISM9sDaRgYPPSuqhm1TUbW3vbO4tIIbiFJFjmtmdl3KDyQ6+vpTb2TUIrNbe4k8x7iTY09nbOPKjxycAsd3YH1IPas7wbLALzX7eCKSNF1M7FMLIqqIIQByAB9OtY9hp5uNFsriPS4yI9ZkuZLo7ARGLmRixPXAH8qfpViyaV4XtpJbuOPUmlNxGtzIm5GikkAwGG3nHTHSui8QSQaXpbXmLqaZEWG2t47qRTNIeEXhuST1JzxknpVBFuv8AhJJbRvtJ2aXFP9lW/kwJS7hsOSM8AAZwOO1aehHS7vzdR0+W4d3/AHMyzXEjNGyHlGRmO1gSe3f3q3p+q6fqonawu4rkW8phlMbZ2OOoNXKz76OOScB9KluWEZUTJ5YKgnlQxYMOgPHtXO38K6lrD6GdJu4rY2qzTGOZBK4LFdud+ApxyQc/TrW/aSCOCWzk0me2soIQFaVkkEgwcrhWZj+PXNYEUt9e6rrOpXEAjNgiwQ2rKZf3JQO2UDKN7ZHc9APczNNfah4g0l7PVYPIudLuZoZI7dtmN0AVtpfBOHOM9Mnjmrep/aU8VaJ5axTTC1ug29jGp/1WTwG/Ks7SY7yAXGpwWwuLhdWlgkhDbtkTzYcocDkfKxJ6hMe9aeic+KPEjelxAv8A5AQ/1rON9GdbFzYXVxHPqGoJY3luwRTblIZGzyrZOFyOcEHg0lrfmTVbXUJRd3l6tzd6dBbo0f8AqhMoklbCrgDylPXuB1IrY8Rzw6fp8l+y3M0+BFb28Nw6edIThFAUjkk9ew57VnIt1/wkkto32k7NLin+yrfyYEpdw2HJGeAAM4HHatPQjpd35uo6fLcO7/uZlmuJGaNkPKMjMdrAk9u/vXLRObhzBCqSedql5NKjQeYTCHZMj92+PnVe1UtB26dbWl7sS3gh1Gc3UgtMny/MlUDIgBHzbRw34DoOl8VWBfUNMvpJ2ZBeW8CwEDaMyZZvcnCj8KzvEOj2um6DNGujiRmvLZvPVItuPOjVUXLbsKgVBwOldTpUCQm4ZdIi07c4xs2ZlGOC23oc5GOfrzWhWH4bDLPrQl/1/wDaUhfPXbtTZ/45sqPxz/yKdx/12t//AEela18EaFVksGvV3g7AEO0jkN8xA4IH41z2symzS0jttGnWS8ulg3ySoduQxJA8zk8cA8Ve0e1GiiKzs9HvvLnkZ57maeNiGPJZvnJ5PZRgZ6CtC800Xu9ZbqbyXABh2xsnHsymuSuZr+b4Ztr76ncf2gumvIsyrGpUkZOCFyM4HT0FdyowoGScDqeprBsv+R71byT+6+w2wnx083dLj8dm3PttrfrA1mB7FLrxBcXah7G3kaJTHuWNcZOB/ebABP0A75zNZt9Sv7Pw9Z6jd+XPf3SCbyI9jwuIJJCUbJKkMnB/PIJB6Kz06ZdLWz1S8OoyA/NM0YjLc8cLxWBf6dBqPiuKGws4ZBpELTSh2Ko0zjaiEjODsLk8HG5eOagWay1PXvDjxadJZyx3dyZoJlwyNHEykehGXBBHB4qHWrKPUtS1/T1giluryW1hhLoG2AoC7ewCgn8AO4qNTEdRudTuPDkcdu8MOnusSK/kz7nLN05TLopYdCORwcbOnXX9l/DXT75WVIrXS4ppR5XmbkEQLADcvP41Ugs59O1DS7JBNbyGE2trI8EbiFFG9v8Alqx+YKoPB6DGKf4amjsrDw/LMAwvYDaRt3jfDScezBDn3Va0NZgexS68QXF2oext5GiUx7ljXGTgf3mwAT9AO+czWbfUr+z8PWeo3flz390gm8iPY8LiCSQlGySpDJwfzyCQeht2fRNFaXWdVFwLdS0t3LGsQ2j1A46fnVu1uoL61iurWVZoJkDxyIchlPIIqauH1iwW11LxDMzeZPcaFK8khHuwCj0AAA/M9SauSQXNtregXL37BZraW0VvKXAZlSQD8fJNat41zbadDZm4ubh5W8uW6SHLovUnEY4OOBgdSD2rK8KTKsniOCwhKOuot5KyQuiKBBCADkcY9OuKraZHLoHh/wASy2bNNPZ3r3DM/wB6dljjd8+7fN9N1axnfVfEmly2s8qWkNk91IqsVEnmbViDDuMCQ/UCn+KZoNM019bZG8+zXCGMIHYOwXYGZTgE46egqq91dQeKJbCbUb8wCxjmVY4FkIcu4OSsZ7KK1tEjjTTlaI3m2V2kxeAiRSzEkEEAjnPHvxxUGvytpsK62gyLEMbhR/HAfv49xgMP90jvVTwqP7Sa88TP11QqLYd0tkyIx7Eks5H+1jtT9WMy+LtGNvHHI/2a64kcoMZi7gH+VZmkx3kAuNTgthcXC6tLBJCG3bInmw5Q4HI+ViT1CY960tH3HxL4lZMbhPAoz0z5CH+tZt9O513VLgx77vTdNRpmimkjj25dwmVYHdwTyMYIp1pLmeC/sry3jvr+KKIeb51wFUEvtPzcdWGSQM4+h6+loooooorK1DR/7aYQ6oI5LBG3fZAMiUjoXJ6gddoGMjkmoLHwra2F2ZUurxoxbrAiNcOCqq8jj5gQSB5m0A9AopLrw3nwlNoVncEbwQssxyRl9xz69TU2paBHq9qbbUZluoj/AAywIce444PuKZHoM0ep6Zcfbmkh0+OSMJIuWIZQo56np1NPm8OWcrXirNcRQX7brq3jYCOYkYYnjIyAAdpGa1VVUUIqhVUYAAwAKUjIIzj3FZVlojaZ9vktL2eSa+kMzefsKiQqF3YVR2UcdOPxpZdEjbSINGibZYqgjmBOXkjA+7n/AGv4j6Z9ciS+0x7rU9KukdUSwleRlx94NGyAD0+9n8KsSWMMt6l5JueSJSsWekZPUgepHGfTjuc5mmaNqNv4jvtU1C/iuVlhS3tlSLYVRSzHdzgnLHp2FaNtplnZ313e28QSa9KtOQeHKjAOPXFR6VpFtpK3JgRBJdztcTsqBQznA6DpwAP1OSSav0lY2n6ZqcfiK71PULm1lR7dLeBYImQ7QzMSwLHnLY4Patqs+w0+W11TU7t3QpeSxugGcqFjVTn8QarRaXfDxNHqE0tr9jtrSS3t44o2VxvaMndkkYAiXGMdTwMVNf6TJeaxY38d49v9limQhFUlt+z+8CBjZ6UadpMunWN1BHfO0s9xJOJmjXKlmzgjof0/CodC0i906C+mvryK41C/nM0ssURRFIRUUBSTwFQd/WmT+HXuLyC8a7jSeK4FwXjtwPMcRtGN3PICuf0qO08MzWCXP2TVGhluZ2mecQKz5aQuVG7IC5Y8Y7nvzWu9hDLex3cuXliUrFnpGT1ZR6kcZOeOO5zmaZo2o2/iO+1TUL+K5WWFLe2VIthVFLMd3OCcsenYVdXS4bWe/vLBEhvL4KZHbJUuq7VYj6fniqCeFoY54VS4mS3hsvs37uVo5WO8OW3qQQTjnHXJqrqvg2OaGCLS5EtgrkSmZpJCyM6u+CW6krnnPJzWvrGnSaklmscip9nvIrht3cIckD3qHUtIvNUs2tbi/iWMyJJlLcg/I4derHuozVy2t72O6kluL4TRsoCwrCECEdwck857nsOne3VV7CM363sbNFNtCSFekqjoGHfGTg9R9CQYNb0aLXbH7FPc3EMJZWYQFQWKsGHJB6EDpir0SNHEqNK8rDq7gZP1wAP0rI1TS9Tv9Y06Rbm1XT7W4+0OhibzdwVgAG3YIJY54GMd62qK5218H6fL4b0/StYtobx7SNFLgEZKnOAeDtz26HuK6CQM0bKj7GIwGxnHvUFjYQafC0cIJMjmSSRzlpHPVmPc/wAgABgACrNZ97pz6lOiXbr9jidXEC/8tWByC59AcHaO4GTjiq0uk3914ltr+6u4GsrIO9tCkRWTzGUqSzZIICk4wB97npzpXa3MkBS1kSJ24MjDdsHqB3P14+vQxWOmwabZG2tSylizPKx3O7nq7E9ST/nFZtno2qP4k/tXVr62uEtonhso4ITHtDlSzPljlvlA44x9at2WlNba3qWoOyN9sMYTA+ZQqAHJ9yP0p2pWV22kva6PNb2kuwqnmxF05HcAg/j+hqvPoHmeC38Opcbc6f8AYhOVzj93s3Yz+OM1K+il9Usr43s7/ZC5CSYIbcu32xVTRvCdnYJp09yglvrGIorrI3lgkEFgvTOCRnGcGr97pz6lOiXbr9jidXEC/wDLVgcgufQHB2juBk44qtLpN/deJba/uruBrKyDvbQpEVk8xlKks2SCApOMAfe56c6N/aC+sJ7RioWdCjbkDjB4PB4P48fWixsrfTbC3sbWPy4LeNYo19FAwKsVj6hoTahqF5JJNsgutOazO0fOpJbLenQ1TPhEPbS2Mt9NLayRxlZnP+kRTocrIr/kQOgPA4OK0tE0+703TTb3t99tuDLI7XAjEZbcxI+XkDAOPwo0vRU0qe8mju7mY3kxmlWXZjfhVyMKMcKBjpxUFtpF7byagVuLUx3t08zJLAZPlKIoH3h/dOevWnf2XqStcvDqNvDLOqqJFtCTGFGAFBcjAyTyDyTU15prajNardur29uyytGF/wBbIPu5HZQfmxzzj05y38OarZaq+oaNq0K74VgEF9bmZUQMzAKyspAyx67q1NNXW0hlOqzWE0uf3S2sTxrj3LMx/IfnTJNIbUJkl1WUTxxsGjtUGIgRyC3dyO2eOh2g81nXXhrULK/a98M6klh50m+5s7iIy20hJ5cKCCjdztIB7+taN5pM15qthfC9aBrSGVG8pBly+zpuyAPkPr1pdO0mXTrG6gjvnaWe4knEzRrlSzZwR0P6fhUOhaTfabb3097dQ3Wo305mkdIzHGCEVFUDJOAEH61FN4Utp9PuIXup0u7ou095EQruXGGBByCuAAFOcBR3Gaii03xZZxQ21trOlSQRBUBm09w4UcdRLgnHsK6JQQoDHcQOTjGaWiiiiiisXWb/AFI2lzFpVtIl9F80RlaLy3weAwL5CtgjOM/lUVzqd+bmC/EUtvpVvA007h4CJsjj5i/yqoBbI68dga1dOu5b6yS4ltHtWfJEbujnHY5QkEEc9a5bTfEOqXFjFNcTAPLK8afuWG/DMBjCEE4XPFavhzUNQvbzVUvmJS3nRIQYimAY1Y9QCeSah8T6xIs0WiadqMFlfzgSSXEjqPs0IPLYPVm+6B7k9qS38TH+1Zkub/Sl023jxJcGcKzSnHC5OCoHU+pwOhrpKWisrUdWuNNkiE1vBsuJvJgxLIzO20t91YzjhT+VULPWL6zFtZXiiea5neOCSVZoy3DOqk+TjIRTz325rdtGu2hJvY4Y5NxwIZC67c8ckDnHXiqWh67DrovngiZI7S6NurMf9aAiNvHoDv49ue9UtP1p7nW9Vla4kksbeVbOGGGAyYkQZkZiqkjlgvOPumpLHWbi3s2XU4bqaZZ2SNobKUtJHuwrMNvBwRnHp+FXb/V4rK+s7ERSXFzdlykUZG4KoyWOSBjO0df4qgS51VdUkkNlcNZPEAsR8nckgJyQd/QjHB7irGm6lJqEt0rafc2qW8nlq823EpxztwT0ORTNVmu3t7q201xHqEcImt94BWQ5Pyn2JGD6BgfSq0GtXkviO20hrOND/Z/2q8PmZ8liwVUGBg5If04Gfq7xDqM8ES6dYeauoXsb/Z5EQMI9pUM5B4OA4OO+Kz7/AMRTXdvb2ulG5hunvvIld7fe6xxEGV9oByDwmcdXHStqx1i11G9u7SBZhJZ7BL5kTIPmGRjPtWdeX+o/8JU2n25lMC2KTbYljJDF2BJLkcYA/KjTb7UX8VXNjcyTCCOxjlWOVIwdzO4JyhPZR3q3qWsxWV7FaC8s1nkTcIJHJlYZwCqLkkdefaudj8TajFpWl3k90mZ9cubWUyBY1MamcIpLD5eY056/ia39F1j+0Li6tpruwmuItsmyyk3iONshQWPU5VucDqOKzr3W9Qg8QalbCUJaWsUThjESF3AlskKfQHmls9W1SbxJYWruTazQTO/7kgErs28lR/ePStXXtah0PTjcSFGmkYRW0TOF82Q9Fyeg7k9gCawrfWdTsIdPsH1jStRu3bddTySBFSPOWPB687VGMnqehrqrW7tr23W4tJ454WztkicMpwcHke4NTUVma9rUOh6cbiQo00jCK2iZwvmyHouT0HcnsATWFb6zqdhDp9g+saVqN27brqeSQIqR5yx4PXnaoxk9T0NdVbXdvfWwuLO4inibIWSNgynBweR7iuau9bvp4XkhvTBbrHN5ksNlukhkjOGjO5iAx7cEHHHbNyG81m6srK2tUWK5VUN7c3ADrGRjcg27Q7nkHGAOe+Adi4u4rUoJBKS+cCOF36f7oOKxbfXp18SXNjKsktobdZ4mFtIJYyWK7WXbypwSGwOhHNa1nfx34nEMVxGYn2ZuLZ4gxx1XcBuHuKwLjxJeR3NpBFPFL5t89nKw06bClUkYlcOc8oOPQ+1R2/iHUL/y7f7WtrNPqEtpEyabIQfLLtyWbAysbZ7j9R0t5qFrp/k/apdhnk8qIbSS7bS2AB7Kx/CsdNeB8WT2pnk+yLYxyLH5DffMjgn7uegHtV/+27aewvrmxP2hrEssiMGj+ZVDFckehHY1TtvErtDpM95YiCDV9ggeObzNjshdVcFRjIBGRnmt6iqWqammmwxExtNNcSiGCFTgyOcnGewABJPYA02yvrma+uLO6sxA8KI4dJN6SBtw4OAeNvOR3FX6KyJ9Yu18QnSLeyikb7L9pEj3BQEbtuMBDzmi21KXXNCuJtOLWl4jSwBZQG8qZGKkHqCNw7dQe1FzeXraR5ahodSe2DCSGBpYlkI9cHK5/HHpSafr6X0yWyW1xLKjGK6lSFlihkVQSCWwec8Yz74qC68ULbW15f8A2QtYWNwYLiTfiRSCAzBMcqM+ucA4B4zL4q1Gaw0bZaXCQXt7NHaWsjYwsjtjdzwcDLY9qS71K5SexNkLiSNZdl2stnKN0e0/MCE+8GA6cEE+xGhZ6hFfPMsUVwgiIG6aB4w+RnKlgMjtVW01W4Blh1GzkhmidwDCpkWRAV2uAMkA7unYq3PGao+HvEUdxp1gl9NcPdXk8sUbNbOoYqXIGQoHCIfyrTv9Xisr60sRFJcXN2XKRRkbgqjJY5IGM7R1/iqBLnVV1SSQ2Vw1k8QCxHydySAnJB39CMcHuKsabqUmoS3Stp9zapbyeWrzbcSnHO3BPQ5FX6KxvEd9c2H9mNbu6+bqEcciooYuhViV5+g96qXuu3cfiHToEtLxIZI7jdB5SFpyoj2kHPAG5hklffjFa2nXN7JbSyanDb2rq5ISObfsTtvJAG71xx71l6trssTpZxtax/bXeGC5ju8mNtpZWYbDjofUcYJ5plp4juPMkiu5dPjhsCq3V49zhJfkyxQYGMEjOeOo9cdGrK6h0YMrDIIOQRTqKKKKKK4/VVRvF+pbkjbGk22N9k0+P3lx/d+7+P8ASsa4VR4XUAAf8UZJ/wCgLXoMltHc28aSNKoGCPLlaM9PVSDj2riw7TwsmpfaHZNSaCNBI0m1xKTDn98CG2hGyQOoNbHh+xlu57i81ATu1tdkWTPO5ATy1BOA7A/MXHfvSyRPbeN1Nlbws0mnu0m+Qpk+YvOQDk/0qG40PVm0G+01I7Rjd3Mk+7z2G3fLvxjZzjOPety81a0sdKudTmZjb2ocyFELH5CQ2APcGpNN1C31XTbbULRi0FzEssZIwSpGRxVmuQ167kmvrsXCo0GlXFtJAqI3mGSUGPORIo43mnLDO/iGwtJomjnRJbuCSYMyqUCxngTnJxNjp3qzYXmoa34Q0i5mg85tQt45bv7PtT5WXcVAZu+Qp56Z6cVD4Ye4mufEsUUEls7ak22R9hEZ8mEYwGOSOvp71Vs7ZtL8O+Jo9LyklldvLBk5LOkUTjce+4jn1ya01Qaz4m0y8eJkWxsTcbG4KyTYVc+4VJB+NTeLrs6foE17GhkniZFhjEjoHd2CgHYQTy1Z+zHi2WCNb26tzpsUoSG8baGMkgLfM46gD8q3NGtkttPVUsWsS7M7wNIHKsTycgkHJ5/Gqnieb+zrBdYjZRNYHcqE489TgNEPduMD+8Fqt4NZL+1u9dd1NzqU5aRM826p8qQt6Mo6j+8zVJqyzN4u0YW8kcb/AGe65kQuMfuuwI/nWfo9pfCC6vLFomvV1eRZtw2rJD5xDryTtwGLDHOQOvSr+jAv4k8TFW2n7RCgbGcH7Oh/9mrIv5BNrOtFltrifS9PUmeaFW3Nhn8sKR0AKkkH+Me1WbK2aSO1uLRbmzuLxIllntbCNAij5udwxtySOATz+I0/F9zPp/hXUb20k8m5ihykoxkYPvWayxG2a3N3p5hZi5jN1FtLEkk48jqSSc+pq34IgjfwPpcjAeZdWUbzSIAjOzLknK45569apaj51rrl1aGS5+xpZJOg+0u7NguJThpVJAAj6A/e96i0vT/t93bWHlz/ANinTy3lea6KOU8tcCU4G3dwcdK0/FFuqLpk8USvOt/bojSMem7pnkj39cCrCWepprk2p+TaHzbaODy/PbjaztnOzvv6Y7U/w5byafpcWmXBT7VAheRUOQA7uRzgZ6H8qs2uq2d5cGCF3LYZlLRMocA4JUkYYAkdPUeoq7XP+KoVH9m3EcSPcDUIFUuccbs4zg4H0HYVOlnqaa5Nqfk2h822jg8vz242s7Zzs77+mO1L4ftZbHR00qeRUu4oy7+UdwUO74IJGD0PbtXJ3t1d/wDCZpeeZc3Om21lc+W0cURlYpJB5sijZhgCQAOvyMRnIB1NXMH9jW/9qXtxeWUgH2WygYtPqB6qGIAJ7HaAAOrEiuoeS5+yo8FuvmEAmKeXZtHcEqG5H5e9c9FJqP8Awnt2fsttv/suDI+0tjHmy99n9K37Y34sM3SW7XYB+WJmEZPbkjI7etcbqdqYddsrFPIt5TdPqM0kmpSBQG3KVX5QAzFiBgEgBvbNqxt2vZJJ9H02Evp167xSzalMYZZirLIw+U5x5jgnH3s+hrS8SmYXvhwxxo0v9p8KzkLn7NPnnB/lUEUmo/8ACc3J+y22/wDsyHI+0tjHmy99n9KZphkOk+KDKqq/2u4yFbcB+6Tvgfyqh4fjY3Xhu31GeSe3Olx3OnqwUKk6oFfOANxCONuenzdTyOtbVbKPU00yScR3Uiloo3BXzQOu0nhsdwOR3q5XOeIN0finwxcPxALmeInsHaFtn54YfjV221W6m8UXukvbxLDbW8U4lEhLNvLgDbjjGw9+4q1Y6rZajJPFbThprZts0LAq8Z7blPIz2PQ9s1crmLqCS4+IOyK7mtT/AGQfniCE/wCt/wBpSP0qLw4tlPomo2N3bW7ppV9PC0si5EjD5zKd2fmO/k5656dKh06QL4F0K300OdUOnQG2WAgbSUXLP2EeeuRzjjLYq74Rnez8/Qb+Fo9Tty1xNJ1S6EjEmVD6EkgqeV6dMGovFF1baj4c1DULW98+DSTI1xasMRTvCdzRucbuq44OM9Qw4K+I7ZLz+yNTlB+W9tPIiYY8stKpYn/axge3Pqasz6rPpmu6tHKjyWiWC3yNg4VhuVk/EKpA9d1W/DultonhqzsAA00MIMnOA8p5Y592JrM07VbqeHVtbn8i0jgmkhdZTv8ALjhyOoIH3vMP4gVQ0XT9WudP0y3M9tZ3ul4uhHLCzn97E4G4BhwGkcfVDW14ru307w7Je7PNuoiixIskiK8jMEA+U5Iy3TmqOzHi2WCNb26tzpsUoSG8baGMkgLfM46gD8q3NGtkttPVUsWsS7M7wNIHKsTycgkHJ5/Go9G1+w14XhsHkb7FctbTB4yhDr169ua06xPEdouoLaQC5vLWS3nW5WW2tjL0yMZKlQeT1/Ksa5IufFENtDdanamxs/NS4WFpJWMjFWDCRGG392pGAOc4rW0K3dL7URPLql0ZtmZb6FEjcBcYRVVce+RzWRezLb+J9QjuHljt2a3it1EcxXeynhfLIHOBS6W63PiS0uonmfTktLsSyMsyxCRZIlG7zDjIxJ+RrswAAABgDtS0UUUUUVl3WjNPd393DeyW015aR2wZEU+XsaQhhuBBz5p49qq6h4VhvdBi0iG9uLSNLZbR5I1QvJDgKyEkHqM8jGCc1sXNv9oh8oTSwqepibaSPTPUfUYPvWVP4ZgaWwW0mNpaWlwLh7aOJcSuMkEtjdnJyTk5/WrX9i2660uqwPLbzFSs6RNiO44wC69CR2br26UzUNE+238V/BqN5YXEcTRb7fyzvQkHBEiMOo6gVH/Ymof9DVq3/fq0/wDjFS2GhxWGlS6et3dyiZ5JJJpJB5hZ2LNggALkk/dAxnjmr8EEVtBHBBGscUShERRgKoGAB+FSVmPoVpPdX0t0ouI70xF4nHyjy+V+vPNE+h22TNp6x6feCNo0uYIUyoOCQQRgjKqfw6iptI01NJ0Sy0tJGkS0t0gDngsFUDPHTpSWGj2WmTTy2iSI9y++UtM772wBuIYnnAAz6CobfRntpruWHUbiL7VctO6oqYyVVcfMp6bPbqaH0VnFwP7UvkNz/rHQxq3THBCZHA7YqxLpyXFzay3EjSrafNGjAYMmCN7epAJx2GSfTGXP4TRNQkv9K1W90ueRAjLDskjK5JwEkVgoyScLjqav6bYahZwyrd6zLqErn5HmgjQJ+CBc/iadHpMTXaXl27XdxHzG0n3Yv9xegPvy2OM1n6l4UiutS/tTTb+60i+YjzpbUrtnA7OjAqxx0JGR79KvXejQ3t/Z3k08++0jkjXZIU3b9uSSuP7nbjmls9GgsbKe1gmuAs8zzFzKS6sxycN1/PPvmotG0Q6PZ3Kfbpru6u5TNNdThdzPtCg4AAwFVRj2pJfDWmXGltp88LSIzM7S7ysrO2dzbxggnJzjtx04qovhnUYBHFaeK9UigjwBE0du+FHYMY89Pc1o6zpQ1jRLjTDO0QnQIZCu4jkc449Km1G1ubuyeG0v5LGYj5JkRH2n3DAgj8vrTNL0yPStEtdLt5X2WtusCSHG7CrgHpjPHpVK88ORzWV0lpcvbXl0hSS9ZFlkYEEYO4fd5PAwB2xT7rw5aXNjaW6yTQTWSKtvdwttlQLgYz3BxyDwfSrOraXHq1osDzzW7RypLHLAQHR1OQRuBH4EGqv9iah/0NWrf9+rT/4xUmnaH9h1GfUJtTvb64miWEtcMgUKpJACoqr1Y84zzVi20uzs7hp4I2DkEDdIzBATkhQThQSBwMdB6CrlUdW0uPVrRYHnmt2jlSWOWAgOjqcgjcCPwINVf7E1D/oatW/79Wn/AMYpbPw+tteXN3canf3s9zCsDNM6IAikkACNVAOWPOM89aml0hDqFreW8n2drS2kto0VBtCu0ZPHt5QA7c1JaaVbWlw11hprpxta4mO5yPQdlHsoA9qkntppZd6X9xAuMbI1jI+vzKTn8aproW3U31EanefaJIVgZsRY2KzMBjZ6sasW1hNbTXE39o3Nw0wGFuNpSMgY+UKF/HmoLrRn1FGi1G/mlgcYe3hxFGw9yPn/AA3YquvhPTbW5guNK83S2hdSY7N9kUqg8q0f3Tkd8Z96u6npSanJYyNPLC1lcfaEMeMk+W6Y5HTDn8qjGhxLfNfC7uvtDxCJn3jlASQMYx1Y/nRaaHb21rfWzyzTpfTNLKXfB+YAEArg4wtPGh6ctvZW4gITT2DWv7xt0RAK8NnOMEjGcY4qS+0uy1J7WS7hEj2c4ngbJBRxkA8fU8VcqC7s7e/tzb3USyxkg4PYg5BB6gggEEcg0y1060spJJYIsSygCSV2LyOB0BZiSQMnAzxk01dLsl1dtWWEC8eAQNICfmQHIBHTr3q5VCbRbGfUDqDpMLkx+V5iXEiHZnOOGAAzzTW0DSntre2NlH5FvN58cYyF8zk7iP4jkk855561DdeHYZZZJrO/vdMklbdIbOQBWPqUYMufcDJ71FY+Hrq1v0urjxFqd6qDiGbylU/XYik/TOKuS6Fps0jtJbZEknmSR72Ebv8A3mTO0ngdR2p+p6aupxQRtK0YhuYrgFRnJRgwH44qObSZLiHyZtUvJEyCQViGcEEZwnqKmtrF7e6kuHvrq4MihdkrLsXHcAAAHnr3/AVTj8OWcbOmW+yvctdG3ydrys24sxJ5G7kDgD0PGH6tov8AaM9vd217NYXtucLcQgEshI3IynhlOO/Q4IqxPp6XV3bTzuXW1O+OPHHmYI3n1IBOB0GSeuMZc/hNE1CS/wBK1W90ueRAjLDskjK5JwEkVgoyScLjqa0NKsb6yjkF9q8+pOzZVpIo4wg9AEUfrVizsobJZBECWmkMsrscs7HufwAHsAB2qxRVFNNC69LqvmkmS1S38vHA2szZz/wL9KuNuKEIQGxwSMgH6VnjSTPqEN7f3JuHtiWgiVdkUbEEbtvJLYJGSTjJwBWdJ4Vuv7NutMg1yeCzuTNlBChdBKzMwDY9WODXQxqUjVC7OVABZsZb3OKdRRRRRRXLeI9WmjktYLbVzbLPeLbymCAb0Ug5+Zgwzx6VUgvZ01DWrS01mbzooLY2slyDIu4K2dy46MV+YgAn61utr0UHhZtbnU4jg8x4wjKS4GNoDANy3AyOcisjRrq/mttJsYNQlmuvs0OoT3Mwyk0bsQ6YPzDgkrxxgZ7g6lze6na6/ptm81q8F4024LAysAq5GDvIz07VU1PV5bTxPA/lXUtpCq2uyBlCvcSkEbgWGdqqPXHmVdj1m7a+jsJNLZLk23nuqzqQvzFcZ4z0B/Go01eDVPDX2q4uV0g3QkSN2nAMbAsAQeAT8ucVn6jq95FY6bcw3sFxKsIuUa3lb/iYKqDzAEClRksMc8Ej3qbRry7fW7mIzW8007C4uIzdSHyIsFUEaGML/DzyMnJ9AOmoqtfl0tWlW5NusQLu4QN8oBzxWSurxP8AY8ardYvnCW7GwYK5KlhyUx0BNJpz6je63qEUupSLFpl2sYjSJAJlaCN/nOM8Fz0x0FT/AGy8bxhcWCzgQLpscqIUBAkMjjce54UcZrM1XWdQuPBr3Jim029S+htnCnv9pSNih7qwJwfQ10eo30Ol6ZdahcbvJtYXmk2jJ2qCTgfQVh67qk4uNF8m3vYlk1BQ4UhfMXy5DtOG5GQDg+lakWsxy6uumNa3MUzQNOC6rt2hgvUHrlqydY1uOHVBP9tZLTSwxlhgYF7udhtSEL3xnp/eZfQ1ck1jU49Ss7BtNtklvIZZVLXbHZs2cEBOvzjoexrUs/tX2SP7b5P2nb+8MOdhPtnnFY1rqF1eabf65FIBGFkWzibJTYhI3kAjJYqTnsu33zFbeIL+O10G7vI7eSHWDGhEKsjQu8ZcdSdw4IPTHWr1pdS2mvzaTPI0iTRG6tXc5O0MBIhPfaWUj2fHateiorq5hsrSa6uH2QwIZJGwTtUDJPHtXMaTqst7c3CwzXdxNeobpjA6FbJBgRRjf8u5gDnryGPTmpL68v7TU9F865vre3lvHWc3DW4QotvM+CU90B9OK29W1KPSdIuNRdTIsMZZUU8yH+FR7kkD8aoTXl1pFlZW0ji71XUZ/LUMx2BypZyB2RVU4HfA5yc1ahGozz3llfbBD5SGK5tg0ZJbcGHJOCuAevcUmh6hLe288F0Qbyxna3uCBgMwAKsB23KytjtnHatOiqupTtaWEt0LiK3SBTJLJLEXVUUEtwCD0rlZdVudOXxDdzarFKizwgItvIdnmRRKgUFwBljnAJ65PXFaGhz3O+w09vEFtdS2tqpuI44i5m4C7jKWPIIz688jkVf1q9mjez020fy7nUJSgkA5ijUFnf6gDA/2mXtVeS+1BPEo0W2kt0hWxFwrzRvI+Q2zBO8Z9c1FDqd9q/h+W/tY/Kv7C4mQwo5Mc7xOyMue6tg4OOCR6VtWF7DqWn299bNuhuYlljPqrDI/nUXl6oc/6TaDnp9nY/8As9Mlh1hvL8q/s48OC+bRm3L3A/ecE+vP0qr4jnuIjpaQXEkHn6gkTmMjJUq+Rz9BWbBqNxfTRT2098tojTRyq0sG53V9gxlhgZVjyOeOK0vDk8VxaXd0jXYBupUf7VOJMFDtJGCQB8vQcVjSaumravLqo1C7tNM0jeieVBIyzNty8j4GCoGNoPu3pWjoWrz7o4dWupHub+R3tYjZvGIkC52FsYJAGSfUkDPFamr382mWL3kdus0UKl5suwKqOpACsWxycdeOM9K52LWLk+J7m/32xsho0NwD9sfydheU+Z9zGSB1x0HWtnTb6+v9Ee+u4fsfmoZIUQHzY025AYOMbhz2xXIDxbfzXcu641NdPeMtG0aWwmAMdsynkYzmc5+q+hrptfe8sdIlvLbV7gss8aj5IiADKqkfc9CRV/V9Sk002PlxLJ9qvEt23NjaGzyPcYqvFPM3ja7tzM5gTTYHWLd8oYySgtj1woH4VY0PUZdV01rqWNI2FxPEApJGI5WQH8duaxr671O28XaaktzGqPYXLGOKKVkJDwAEqDyQGOCemT603SptXvNd1r7PfQqqT2/yzQSFQvlgsFUsNufX8eat+NL8W+jxWC3TW02qXEdnHKhIZA7AMwxyDtyAfUr61S1XX4GmisYpZopLHVoLdwspaSVdqseFO5hhgDnrz1roNN1WDVDdeTHMn2WcwP5qbSW2q2QOuMMOuK52w1UX9tDcarqd/Cx1GS3jjt4WSN2WdkQFlTnIUZ+bHXIpthqdvq+gxXer+JWtGy5kiguEgxtYjqBv6DkZ/CulmnuQgngktTa+Xv8ANkc9OucjjGOc1zPh/V57qW91qfU7JI71x9nt5bkgRRKMK23PBblvXBA7Vvabd3d1BLqD3tjLYzRrJavCjYUY5LEn5h37YrnTrd0dXkaLXLGNJSInkdcwhVAIljHmHJYyKmMj7p67eVl1WVtPvNTkm1d9NjsWk2JLAkp2F/Mbhgw4CgYrb1/W/wCx9OhjhBe/uisNsjqXIY8bn25OB1OOvQckVj2z3unmw0ax1i+leHE13Nc2MkjmPceMFc/O2QOwAPoK6rT9QttUskvLR2eGQkKWRkJwSDwQD1BqzRRRRRRRRRXH+IH1u5vdNWaG2sbVdVRYnSQyyycNhsYCrx2+aqeqSfafFr6XBesLXVLeK0u708YaNpGMSsAF8xlcjA6AHviuo1CK1u9KmUEyJaq4CkkjeqkDOepH8+eorD8Lf8hPTf8AsXbb/wBCNamrf8jXoH1uP/RYqj4ks5JL7TrWzknmna7N40KyKoVIwSSOODuKKM9261W0XUtMPiFLqG9maGawfm7cmRX847kO7kEMCMdu3FWtHu7eDwCsksyIsizImT99mdwqj1JPQDk1ngFpPCwXzQ0WmzRyeWspKMBACp8v5gQQQQe4rS0GORfFmpOwmKNYWwDyLKMkST5A8znuOnHNaP8AbuPFY0FrC5G60Nyt0QPKbDBSo9xuH51rVV1NGk0q8RFLs0DhVAySdp4rn4NP1eWx8MRyWUSLYyxPNiclkAgdOVKjuwHBNXtC/wCQ94l/6/4v/SWGs+9vrm1+Ibw2lhLczXGlxBW+7EmJZMl37AZHAyTnpSeJLqSeSx0hFe/mt7iK9v8AyE/1cUbeYPlz1ZlUKuSSAeuKueJL611L4eaxe2c6T282l3DRyIeGHltVbXI9R8zw/uurY51FNuLZhg+TJ1+fmrEa3K+PIvtMsUh/suTHlxFMfvU9WNVrm1Nv4jkuZ7XS7G3WTdbyPKA08pXmQoAC7clQCwxyecjF28bf4w0NuebO7PKle8PY8it0EHoc1y+hL5Hw/lsH4m0+3mtZlPUMgIz+Iww9mBrP8Owx2d74aa5LzQ3mkoLXzZGcQXCxgttBOAXjY/ghA6mtu4U3fjqy8vldPsZmmYdjKyBF/KNz+Aq9rGsQaHafbbuKY2iH99NGu4Qj+8w67fUgHH05q7HIk0SSxOHR1DKynIIPQikuH8q2kcvGm1Cd0h+VeOp9q4mNornSGhudS0+4v7tjLDPBaGUSXGByhYnzFAGDtGAoxkYzVe3gto9c1CC7jtbG0n1NFWZraNisgghPk5OVXfk469GA5INdN4ttXk8K3KW0W42/lTrEg+8IpFk2ge4TGKq67In9teGdZR1eyWd42lByoE0RCNn0LbRn/aFW7TUb2bxhqOmvNC1rbWsMyqseHDSFxgnPbYD0/ipnhxTPqGuakv8Aqbq+2xH+8I40jLf99Iw+gFXLnXLWx1e3068SSBrs7baZhmOVsZKZHRvY4z2zWlVTVbJdT0i9sHcot1byQll6gMpGR+dcPa6rH+91uew82Oa0t9WEBn4QGMRKPu/Mw2k+nPqBXR+GTLHf61aMHSK1ukRIjcGVY90SOQhIBC/OOOg5xgU7WFMHifQr9/8AUgz2jN2VpApUn6mPb9WA71WurWK8+IPlStKo/sg/6qZ4z/rfVSDTPDOqR2Ph7VXl2/YNKu54reVVA82JMHjHBOSy57le5rU8K2M2meFdLsrkbZobWNZF/utjkfgeKtvYs8rP9tulDHO1XAC/TiovsEVvcpfzX11+4Rh+8nxHg9dy8A9Op6VU8QDzb7RIQeft/mt/sqkUhJPtnaP+BCufsyIks47F7mS3utTmjEr28IE6sk026LcCcbgFDMcEZI4INbnhc6d9jvLC3uWnkiuZHuYZ4gkkRkYttZMdOTgjg4yOKqWOn3Op23iGyF1FFBc3s8T5hLMAyKCQdwHf0q5d2VxaS22q3d5C1vpUMrsiQlWYbMdSxHQVd1UWNvBJfX088caLg+XPIoPPACqeWJOAMZPArhLTSb1fEN5NdW9w6rY286aWk7ZigEkgWIENywCh8ZxuyBgc112mvo17ZXepaTdvc+dEVkLXMkhXAPBV2OwjnjANck+jyL4E0u+CyxPHbws8iyqfNWQw5DAqeMRoBgggKOetdDo1jpR0TULy+soJRFqN9K7tGC3yXMjZz7Yq/r5jl1HRLKaCOWO4vG5YsDGVidwykEc/Lj8apw6ba/8ACc3iYk2jTLc/65+vmzd8+1WvDsiwWmpWttabY7G+mjjjSQs0hOJCcsepZz3x9KztUu9/jTSRLBcRStZ3MaQRzKJG3NE275W4UCNhkkckdaSxubux1nWY7SzM95OYpIre5ulR9oQKSScnHBwQCO3FWfFdoj29nfSgmX7fYxqrYIjBuoiwHuSBn/dFUFsyLm+hsrYBYvEULBI0wqKIISTgdBW34etrm0k1Fb4wrd3N0100cLFlRG+ROSBnIjz0rBsrSX/hEbXUri8EVrBePqWzysl0MzyKAc8lgwx9asWlhLpi+DbS4AWdJZDKB2c28pYfmTWz4hsDqGm3UdxJ/oiwOzQr/wAtSAeGP93279+Mg5eifb/+EX0/b/am37FHjb9lxjYOmecfXmrHh9gnw00x2OAujREn/tiKorJJpmn6LNdM6R2kUEeZSyorFApVEX5pZCCQM/KOT1BBxri0lWxutPmVYrldEubRd7AKJrh2MaFuikhR1I+8PUV1fidG8jTTHsSVtRtxuZc/xd+Rnv3qyul3y6rJqQvoPOkgSAr9mO3arMw/j65c/pRoMA0y2XRnlEs9tEJXdV2gh3fGBk/3TUtjrEd9crCtvNGJEeSF324kVWCkjBJHLDqB1+oGjRRRRRRRRWbf6DY6lf215dCZ2tiWWPzmETHBGWTOCQCcHHep7vS7C+05tPubSKS0ZQvklcKAOmMdMdsdKg07QrXS9Nm0+CS4eGZnY+dMZGG7qNx5P45p9no1lYTRTW6MHhtUtEyxOI1OQPrz1pv9hWP9tpq+2U3KIyKDMxjXd1ITOATjqBVmGyhguJrlQWmmxvkY5OB0UegGTgD1J6kkkdhaQ3TXUVuiTMpUsoxkFix/NiSaSLTrKCGGKO2jCQOXiBXOxjnJGeh+Y8+5qre+H9Nv52uJI5oZ2xultbiSB2x0yY2BP41FZ+GbOyvUulvNUmZPupcajNKn/fLMQa01toUuXuRGPOkUKz9TgdB9OTx71LRTJI0mjaORQ6MMMpGQRVPSdFsdEhmisY3UTzNNIXkZyzEAdSScAAAewFWLi2+0qFaaaNP4hE+zd+I5H4EUlpY2thEYrSBIVZizbRyzHqSepPueahk0awk0e40gQCOzuUkSSOM7eJM78emSx/OmtoenSeXvty/lNuTdIx2nGMjng4J/OnQaPZW+ofb4o3E/lGHcZGb5SQSME+oFKmj6bHc3N1HZQpcXYxNMq4dxjGN3WmnQ9NMiSm0UyRghXJJZQcZwc98D8qnsrG1063+z2cCQRBi2xBgZJyT+J5pj6ZaPcTTPCrfaECTIwykmOhZTwSBxn0+gw7+z7IQRQfY7fyYW3RR+Uu1G9QMcHk9PWltbKGz80xAlppDJI7HLOx9T7AAD0AA7VLLFHPC8MyLJHIpV0YZDA8EEelEUUcEKQxIsccahURRgKBwABSyRpNG0UqK6OCrKwyGB6gimtbxPjMYyqlFYcFQeoBHI6Dp6Cs618Oabbafc2MkTXkF3MZpheOZjIxxjJbOQAqgZ7KK00RY0VEUKqjAUDAA9Kr2+nWttaPaJEDbOWPkv8yqD1UA/w9eOgzjpxSiwtks5LW3jFtFICCLcCMjPUjHQ+9SwQRWtvHbwRrHFEoVEUYCgdAKbPa2915f2iCOXyZBJHvUHY46MPQjPWpqhubaO6RUkaVQpz+7laM/iVIyPasoeD9DFuLcWsvlCBbbZ9qlx5S/dT73QVYi8PabDffbY0nE/m+aWN1KQz7AmSC2D8oA57Vdu7WC9tZLa4QPFIMMM4/EEcgg8gjkGoH0jTpXEs9lbzzbQrTSwqzsB6nFST6fbXCQRyR/uoHV0iXhMr93I7gHkD1APYVNLFHNE0UqK6OMMrDIIqr/Y+lj/AJhtp/34X/Cmy6Fo88Zjl0qykRuqvboQfwxUkumWUxHm26Ooi8oIR8oTIO0Dpg4GR3wPSmT6NY3GqWupSwk3Npu8pg5ABKlclc4JwSAT0yasrbQJcyXKxIJ5VVHkA+ZlXO0E+24/nWdN4Z0ya6muR9thknffL9m1CeFWbAGSqOBnAHOKim8IaTcQvDcPqU0UgKvHLqt0yuD1BBkwR7GtIafaLJDIIVzbqFhB+7GMY+UdAccZ644pq6bAusSaqC/nyW6W5Gfl2qzMOPXLn9KRdJ0+Oe5uIrOCKe7XbPNHGFeQe56mqn/CLaL/AGbFYf2fCIolRVIQB8LjHzdc8Dmm3HhTSLn7QJI7pY7pmaaKO9njjct97KK4XnvxzVyfSLG4W1EkJ/0P/UFXZTH8pXgg+hIpg0SwE7TiOQSsoQyefJuKgkgZz0BJ49zT7HSrfTY7lLUyJ9plaZ2Zy53EAZBOfQUtlpdpYPLLDHmac5lmc7pJD7secDsOg7AVHqeiWOrS2c11GfOsZ1nglQ7XRgckZ9D0I7ipr/T4NShjhn3bY54pxtOPmjcOv4ZUVUl8PWcl5PdRz3tvJcsHlEF06K7BQucA4zhVH4UkHhyyt5ricS3ck1xCIJJJbp3Plgk4GTgdTyOeTV2Wxt5hAjp+6t2DJEOEyPukj26jsDg9QMJc6fBdXlpdShjJZuzxYOACylTn14Y1NcQrc28sDkhZUKNjrgjFVJtHt5dGXSlluYIUiESPBM0cigDAIYf14qSLTLWHSI9KjjItIoVgWPOf3YG3aT9BikOl2xuTdEMbnBCzsdzRg9duchfwHNI2kWD6dPp726vb3IYTK5LGTcMEsTyT7n2pLrR7K902PT7mN3gi2FMSsrqVxtIdSGBGOoOaq/8ACL6f/wA/Grf+Di7/APjlTafoGnaZdy3lvHM1zKgjea4uZJ3Kg5C7pGJAyTwKtw2NpbTSzwWsMUsxzI6RhWc9eSOvWp6KKKKKKKKKKKKKKKKKKKKKKKKKKKKKKKKKKKKKKKKKKKKKKKKKKKKKKKKKKKKKKKKKKKKKKKKKKKKKKKKKKKKKKKKKKKKKKKKKKKKKKKKKKKKKKKKKKKKKKKKKKKKKKKKKKKKKKKKKKKKKKKKKKKKKKKKKKKKKKKKKKKKKKKKKKKKKKKKKKKKKKKKKKKKKKKKKKKKKKKKKKKKKKKKKKKKKKKKKKKKKKKKKKKKKKKKKKKKKKKKKKKKKKKKKKKKKKKKKKKKKKKKKKKKKKKKKKKKKKKKKKKKKKKKKKKKKKKKKKKKKKKKKKKKKKKKKKKKKKKKKKKKKKKKKKKKKKKKKKKKKKKKKKKKKKKKKKKKKKKKKKKKKKKKKKKKKKKKKKKKKKKKKKKKKKKKKKKKKKKKKKKKKKKKKKKKKKKKKKKKKKKKKKKKKKKKKKKKKKKKKKKKKKKKKKKKKKKKKKKKKKKKKKKKKKKKKKKKKKKKKKKKKKKKKKKKKKKKKKKKKKKKKKKKKKKKKKKKKKKKKKKKKKKKKKKKKKKKKKKKKKKKKKKKKKKKKKKKKKKKKKKKKKKKKKKKKKKKKKKKKKKKKKKKKKKKKKKKKKKKKKKKKKKKKKKKKKKKKKKKKKKKKKKKKKKKKKKKKKKKKKKKKKKKKKKKKKKKKKKKKKKKKKKKKKKKKKKKKKKKKKKKKKKKKKKKKKKKKKKKKKKKKKKKKKKKKKKKKKKKKKKKKKKKKKKKKKKKKKKKKKKKKKKKKKKKKKKKKKKKKKKKKKKKKKKKKKKKKKKKKKKKKKKKKKKKKKKKKKKKKKKKKKKKKKKKKKKKKKKKKKKKKKKKKKKKKKKKKKKKKKKKKKKKKKKKKKKKKKKKKKKKKKKKKKKKKKKKKKKKKKKKKKKKKKKKKKKKKKKKKKKKKKKKKKKKKKKKKKKKKKKKKKKKKKKKKKKKKKKKKKKKKKKKKKKKKKKKKKKKKKKKKKKKKKKKKKKKKKKKKKKKKKKKKKKKKKKKKKKKKKKKKKKKKKKKKKKKKKKKKKKKKKKKKKKKKKKKKKKKKKKKKKKKKKKKKKKKKKKKKKKKKKKKKKKKKKKKKKKKKKKKKKKKKKKKKKKKKKKKKKKKKKKKKKKKKKKKKKKKKKKKKKKKKKKKKKKKKKKKKKKKKKKKKKKKKKKKKKKKKKKKKKKKKKKKKKKKKKKKKKKKKKKKKKKKKKKKKKKKKKKKKKKKKKKKKKKKKKKKKKKKKKKKKKKKKKKKKKKKKKKKKKKKKKKKKKKKKKKKKKKKKZ50X/PVP++hR50X/AD1T/voUedF/z1T/AL6FHnRf89U/76FHnRf89U/76FHnRf8APVP++hR50X/PVP8AvoUedF/z1T/voUedF/z1T/voUedF/wA9U/76FHnRf89U/wC+hR50X/PVP++hR50X/PVP++hR50X/AD1T/voUedF/z1T/AL6FHnRf89U/76FHnRf89U/76FHnRf8APVP++hR50X/PVP8AvoUedF/z1T/voUedF/z1T/voUedF/wA9U/76FHnRf89U/wC+hR50X/PVP++hR50X/PVP++hR50X/AD1T/voUedF/z1T/AL6FHnRf89U/76FHnRf89U/76FHnRf8APVP++hR50X/PVP8AvoUedF/z1T/voUedF/z1T/voUedF/wA9U/76FHnRf89U/wC+hR50X/PVP++hR50X/PVP++hR50X/AD1T/voUedF/z1T/AL6FHnRf89U/76FHnRf89U/76FHnRf8APVP++hR50X/PVP8AvoUedF/z1T/voUedF/z1T/voUedF/wA9U/76FHnRf89U/wC+hR50X/PVP++hR50X/PVP++hR50X/AD1T/voUedF/z1T/AL6FHnRf89U/76FHnRf89U/76FHnRf8APVP++hR50X/PVP8AvoUedF/z1T/voUedF/z1T/voUedF/wA9U/76FHnRf89U/wC+hR50X/PVP++hR50X/PVP++hR50X/AD1T/voUedF/z1T/AL6FHnRf89U/76FHnRf89U/76FHnRf8APVP++hR50X/PVP8AvoUedF/z1T/voUedF/z1T/voUedF/wA9U/76FHnRf89U/wC+hR50X/PVP++hR50X/PVP++hR50X/AD1T/voUedF/z1T/AL6FHnRf89U/76FHnRf89U/76FHnRf8APVP++hR50X/PVP8AvoUedF/z1T/voUedF/z1T/voUedF/wA9U/76FHnRf89U/wC+hR50X/PVP++hWZto20baNtG2jbRto20baNtG2jbRto20baNtG2jbRto20baNtG2jbRto20baNtG2jbRto20baNtG2jbRto20baNtG2jbRto20baNtG2jbRto20baNtG2jbRto20baNtG2jbRto20baNtG2jbRto20baNtG2jbRto20baNtG2jbRto20baNtG2jbVn7HL/eT8zR9jl/vJ+Zo+xy/3k/M0fY5f7yfmaPscv95PzNH2OX+8n5mj7HL/AHk/M0fY5f7yfmaPscv95PzNH2OX+8n5mj7HL/eT8zR9jl/vJ+Zo+xy/3k/M0fY5f7yfmaPscv8AeT8zR9jl/vJ+Zo+xy/3k/M0fY5f7yfmaPscv95PzNH2OX+8n5mj7HL/eT8zR9jl/vJ+Zo+xy/wB5PzNH2OX+8n5mj7HL/eT8zR9jl/vJ+Zo+xy/3k/M0fY5f7yfmaPscv95PzNH2OX+8n5mj7HL/AHk/M0fY5f7yfmaPscv95PzNH2OX+8n5mj7HL/eT8zR9jl/vJ+Zo+xy/3k/M0fY5f7yfmaPscv8AeT8zR9jl/vJ+Zo+xy/3k/M0fY5f7yfmaPscv95PzNH2OX+8n5mj7HL/eT8zR9jl/vJ+Zo+xy/wB5PzNH2OX+8n5mj7HL/eT8zR9jl/vJ+Zo+xy/3k/M0fY5f7yfmaPscv95PzNH2OX+8n5mj7HL/AHk/M0fY5f7yfmaPscv95PzNH2OX+8n5mj7HL/eT8zR9jl/vJ+Zo+xy/3k/M0fY5f7yfmaPscv8AeT8zR9jl/vJ+Zo+xy/3k/M0fY5f7yfmaPscv95PzNH2OX+8n5mj7HL/eT8zR9jl/vJ+Zo+xy/wB5PzNH2OX+8n5mj7HL/eT8zR9jl/vJ+Zo+xy/3k/M0fY5f7yfmaPscv95PzNH2OX+8n5mj7HL/AHk/M0fY5f7yfmaPscv95PzNH2OX+8n5mj7HL/eT8zR9jl/vJ+Zq7RRRRRRRRRRRRRRRRRRRRRRRRRRRRRRRRRRRRRRRRRRRRRRRRRRRRRRRRRRRRRRRRRRRRRRRRRRRRRRRRRRRRRRRRRRRRRRRRRRRRRRRRRRRRRRRRRRRRRRRRRRRRRRRRRRRRRRRRRRRRRRRRRRRRRRRRRRRRRRRRRRRRRRRRRRRRRRRRRRRRRRRRRRRRRRRRRRRRRRRRRRRRRRRRRRRRRRRRRRRRRRRRRRRRRRRRRRRRRRRRRRRRRRRRRRRRRRRRRRRRRRRRRRRRRRRRRRRRRRRRRRRRRRRRRRRRRRRRRRRRRRRRRRRRRRRRRRRRRRRRRRRRRRRRRRRRRRRRRRRRRRRRRRRRRRRRRRRRRRRRRRRRRRRRRRRRRRRRRRRRRRRRRRRRRRRRRRRRRRRRRRRRRRRRRRRRRRRRRRRRRRRRRRRRRRRRRRRRRRRRRRRRRRRRRRRRRRRRRRRRRRRRRRRRRRRRRRRRRRRRRRRRRRRRRRRRRRRRRRRRRRRRRRRRRRRRRRRRRRRRRRRRRRRRRRRRRRRRRRRRRRRRRRRRRRRRRRRRRRRRRRRRRRRRRRRRRRRRRRRRRRRRRRRRRRRRRRRRRRRRRRRRRRRRRRRRRRRRRRRRRRRRRRRRRRRRRRRRRRRRRRRRRRRRRRRRRRRRRRRRRRRRRRRRRRRRRRRRRRRRRRRRRRRRRRRRRRRRRRRRRRRRRRRRRRRRRRRRRRRRRRRRRRRRRRRRRRRRRRRRRRRRRRRRRRRRRRRRRRRRRRRRRRRRRRRRRRRRRRRRRRRRRRRRRRRRRRRRRRRRRRRRRRRRRRRRRRRRRRRRRRRRRRRRRRRRRRRRRRRRRRRRRRRRRRRRRRRRRRRRRRRRRRRRRRRRRRRRRRRRRRRRRRRRRRRRRRRRRRRRRRRRRRRRRRRRRRRRRRRRRRRRRRRTZJEijaSR1REBZmY4CgdSTVdtT09IzI99bKijJYyqAB69asI6yIrowZGGVZTkEeopkdxBLLLFHMjyQkCRFYEoSMjI7cc1JUc9zBaor3E8cKswQNIwUFicAc9yalpiyRuzqjqzIcMAclTjOD6UwXVu129os8ZuEQSNEGG8KSQCR1wSDz7U+KWOeJZYZFkjcZVlOQR7Gn0UVHLNFBBJPNIqRRqWd2OAoHUmlhmiuIUmhkSWKRQyOjAqwPQgjqKfRRUUVzbzySxwzRyPC2yVVYEo2M4I7HBB/GpaKjinhuIRNDKksZzh0YMDj3FEFxDdQJPbypNE4yrxsGVh7EU+ozcwLcratPGJ3UusRYbmUcEgdSBkfnUhOBk0kciSxrJG6ujDKspyCPY06ikqK3u7a7837PcRzeTIY5NjA7HHVT6H2qaiiomubdblLVpoxO6l0iLDcyjqQO4GR+dE9xBaxebcTJDGCAXdgoBJwOT6kgVLSVHFcwXDypDPHI0LbJFRgSjYzg+hwRTpJI4l3SOqLkDLHAyTgCn0UUVFNcQWwVp5o4gzbVLsFyeuBnvwfyqP+0rAOifbbfdI2xF81cs3oOeTVmoZbu3gnhglmSOSckRKzYLkDJA9TjnH1qaioYLq3uvM8iZJPKcxyBTkow6g+hqaq8d/ZywtPHdwvEkhiZ1kBVXDbSpPrnjHrViiik6VFcXdtaeX9puI4fNkEcfmMF3OeijPc46VNRRSMwRSzEAAZJPamQTw3UCT28qTQyLuSSNgysPUEdakpruka7nYKMgZJwOeBSSSJEhkldUQdWY4ApjXdskzwtcRLJHH5roXAKpyNxHpwefapEdZEV0YMrDKspyCPWmXN1BZ273FzMkMMYy8jnCqPUnsKkBBAIOQehpah+1W/2v7J5yfaNnmeVn5iucZx6ZqaiiiiiiiiiiuH0y8+332oaD/adyt0+oTMG+1Pvit4yvC89y2PoSecYrovEHlr4a1C0VwZHspUjRnyznYQByckmudvo5ZfCVzaJ9raZ7Bowm60wWMZGOOev411WlXlpPbLbQXEMktqiJNHG4YxHaCAcdOK5S3lht/AN14nu0W61AWMitJNk+bsdzGrYxn5sD196u+JdOtk8O2crWtusxvrHeYl4ybiLOPbk0njLVMT2em28HnXKXVrcYLbQD56hVJ7Zw3/fNZWqX72ia8+o6jb3F9ZWlugjZykTSYZmPlbuchx+VdXpR8OWb3EGk/wBmwOqCW4W1CLxzhm2/jyaxPD99NcvrGtt5dk0+oLCTcRFz5QRBEMBl2/fyc5wWPSrRjutFvbbR7K6iSTU55rkMtmXVMEPJkGX5VJbHHdq6iikPTjrXGeKIbyz0bXNQS3aI39kbc2/ngoZWyivjH3juVeOuBWpfardeH/DEt4unRyxWNruVVuPvhV4AO3vTJrifVfFp0h5ZYLazsUuJ1glZGeWRmCjcMHChGPGMkjPSsv8Atq7m0OBLm6lE1prn2C4mjYq0qLIVydvqpUnHerWi6jMmoarGl6rQvqXkW/2yWRjnyIm2Ln1JY4+tS+HV1L+2NbO+1EI1Q+euxizf6PDjac8duoP4Voayuj6XZT6hdadbyuTwqwK0k8hOFUccsTgVzfhBLC00Oa517T7WG4l1G4S4mKq8UbiTaFzj5F42jtx1ya3fE3/Ep8JXTaXtsihQoYFC7cuuSBjHeoNUt7LSbzSLC0srYnUdRkMiygkAMjySMOeCSo9uelLLZWtt4+0ryII486ddk7VxzvgH9T+dZ8mo3Wq+OIhpOyIw288DTyjcu1Jod5C8ZyQyDn3zxiqNjeaXeQ6Kl9PZ3kWoXFy1wt3KJQE/eOgAY4X+EdOldtpUmmPYKukG2+yRsyKLbaEUg8gAcDmrtFY+pWV1dala3MMDRvZybllScL5qEfMjDH3Scde6gisvwZPdyaNNeRWcbre3txcg+fj5XkYr2/u7a1tH1GbX9Ga52tYs08sSmNw5ASRk3fMuOdvoetZ+hXt3dfDuK9uLmSS6ezkdpicMWw3PHT8Ky7DU5Ev9Jnjv5Sv9iyXF19pllMe4NBlyD6Bm57ZNXro6nN4xsXtZrESPpdwY5CrOm3zYOcAjP51b19Dd61pOlzsWs76O5juoB92VfLHB/P602BbW48W3elCztmt7OxgdmYEyb2LgDk9AqDt3qLRZLTSbrxZcsqwwW16HbaOii1hJ/r+dc+99qMmj+JLxJFsLWW4IfJ/eebJFAoAbjbtJ69ye2K1Fm8My67qa6n/ZU9tZRQyQy3RWVgWD7juYnP3R0rskdZEV0YMrDIYHIIp1IRkEHPPocVzuhI58S67G9xcyR2k8SwpJcOyoGhVjwTzySeaTxYRcDS0hYu8Ooo8giZNyKEcE/Nx3HX1qlfKZtR0eQGZo4L4SymZrYKiiOQZ+TnqRXSiay1TT454bsSW0pBSaCcqG5wMMp9eK5qC2ub1We+iuEe3vJvIDxXL4VZHVHB80clMHI9a0PD9pLK7Xuo/aEuYriaK3DyzIGizwTG7kHIGcn/69Vrs3UvivVkiMrxwadbOqi7eJUYtPk4XgkhV/IVi2N2z2mhTWzxG81WWJrwx6k++Y+QxO4D7v3VGe2MV08s8vh7wmWW0VbqNCsVsk7TBpSTtUO+CRk5JPQZ7Cs7SLH7R4S0/RzPbxwajp25o5IGd33KDISwYAkl89B1PpWhpd1eSa1PpoulaDS0SOYfZiPMLIGXDmQnIGM8fxflvUVFctIsDGKETN02FguR35NcXe2lzY32gaSI96DUpLuNZbgHy41R8IDj7oaRAPwFdDdazd2mp6ZZSaen+nztFuE+dgWNnJxt5+7j8awmvtQv8AQdd8Qw3c0ctlNcfYolciPZASMMvRt5Vsk5IBGMYqzcaol3rdtI9zcxWtxpH2hI45HUbiwwTt74NL4ev7258LWMLXVvLcNpcMziZ3aVg0Y+c565Oeat+ClvR4W0o3DwGA6fb+SsaEMv7sZ3EnB7dAPxp00ekzXmpWC6XCJ7aBZnlMKYO/fjB65yh7elZ2hnwxceGdFivo9OuJ7m2gUrJGkjNIUB+bg85HU9/etnVUvZJmQBU01LSQzH5WMjcYTaQeNobJ9xXIvJp1v4fOoK989t/ZkUXkNLbHfCgLKh+Yk53EHOcjg12Wn2d/BcXP2m9EloyolvAsaoYwBycrjkk4x2AHrWNeW0s+p3FgFuZdMezjZZGNxMsrOZA65EgGNoTj/aotbCW41N7S7+1LpsVskiuHubfEgfgZMh4AAOKt+JmnOo6BDA0n76+dXRJmi3qLeZsFl5xkKfwFc5eXhhh1+6meJb7TTNHaNJqT74lMKPgA8tlsfXAHaur0GzmgM1xPAI2nWM+YLySYyYXqQwwpz6Z4rYooooooooorgfsF1FZ6lq1rYXAv7PWnvbdPs7K1xG2FZRxyGTcPYgE9K3PEpbU9KWwsEKX+op5ccjIVe3jP35DkZXAzj/aKisWfULKw8VhtQeLR0TT1hL30YKO4cn5ZCQrcYOc59QDxXR+H9Q027jljstZs9UkVizyWxjO0E8KdnHHQZ5+vWsfwzp8mreFtLgnKrYROZpEzlp2WRmVT6KCAT6kY6ZzV8QWcWiyG0TUoltr7ULCS005nG6NxcoZPLHXYQAcDgEHpW34kt59UvdM020mMUiT/AGuSUKGESop2kg9cyFeO4Delc54k1G/fw5qEurXVtaJPZi3ht0GBd3GRudS3zY/hUdxk8jBrroZL59Yu9NvrUT2LxCWC428EE4aJx0JHUeoPPIJOJizu7DxTplzeW9u17dzRJ50gXkwRjI+hI6VZttQsLfUXv77U4JTY2KW4lDAl2PzSsqjJOcR9O4Iq34gu9XT+yzocluxnvIxMsili8B+8VI6YHOT/ADIB3KSsCVH8R6rbMo/4lNhKJt/a6mX7u31RT82e7AY4BrB8Tx6ZbteabYakBdatLBB/ZQb+MyjfKqdVG3cWIGDjPWt24gl0vxg+seRNLaXlksEphjaRo5I2ZlJVQTgh2GQOCBnrWXHo2pQaNbSC0JvLrXP7QlhLcRK0hYBiM9F2gnnmtK00fzY9ZOuWsawz6kl3GFk3DCRw7WyMEfNGew6elL4Ture+n166tJkngk1Q7JI23K2IIQcHvyCPwrUGmLJqIv7t/PliJ+zrjCQg8Egd2I4LH6DAJzl+FY4rjTNUhlRZI31S9R0YZDAzOCCKqa9pUeh/Dy406GaWWGFlEZlbcyqZgVXPooIUewFak2hpqt9LdatGkqeU0EFvnIiRiCzE/wB8lV5H3dowepOHpAe38YaZps+rJqd1ZWF6sj7w0ioZofLEn+1tAGT1INWr37fJ4kutZsJEENhFFalJELCfL7plXHO4DYBjPzAgiqPn3MviPRbS8v411Bri5mFrGE3WURgcIuMc445OQSTjitr+0NafwxfyTQw2Wp23mRo7ozRSMv3ZFAySrcYHJzxz30tHe/k0ayfVERL5oENwqdA+BuH51drE1ye4v1fRNMcrPMNtzcr0tYz1Of75H3R75PA5p6tDoGgy6feS6kmjfYUVFO/Ys8KqR5TA8P6gckHp15n8IB7DwRp8l1FKrtD50iLGzOC5L42gE5+aqnhuK4Hw7WyktLmG6is3jaGWFkbcQ2AMjn8Kfo2mamuo6RNeWcccFto720mJdx3sYSFIIHZG6ZHFR6d/Zlv4zsNL0uRDHp2kzxNEr7jCPMh2hs8jOD19Kt64zr4q0AxIHkxc7VLbQT5Y6nsKivvC7SaVdXC3wt9ZeQ3K6gvy+VIAAB/1zCqFKnOQMnnmjwte21xd+JL2O6hmt/7QUmeNwYzttoQxBzjAIP5Vn2ia7a2s9xarG51mSeeOCaMh7d2YeU5/2RGAWB5yABycUywu7t9S1650a9i1S6tLa0VmIXFy6CTeh2/dY57dCRnjIOh4jFjdS+G7zUNMv3cX0TReU2Ps0jYwZBnoDgH8fx6mkJwCTnj0Ga53QnYeJddke3uY47ueJoXkt3VXCwqp5I45BHNR6tFLfa/bfYLYywaa5nvBEQhnkK7Viz0YgEsQTjhAevGLpmraTCuqQXWt2ejSy3szpHeQpFKiseGAkx+oxXVG20vxBpdqyXcd1ZxSrNut2XypmTn5scFd2Dj1ArHtbNNRh1e/hit1tY5mWx2WkRDosa5YEryDIHwaj0bUPDEkWgXskunTapNGkaGIxhlkdMsdq9DxjpxnHGTnWggt2u9Z1G8l8m3mkSESGUxjZEuCdwIx87SD8Peual1GD7daW13eXWm6ZbShxqcs0yR3e37qKW+VM5+YnAIGFyCcdlPPZ3+lyXdvNDcxrG5jljcOoO0g4I4z1H41z1obO70Lwuy6ra20+nrbzuHlAbaYSrLjPcP3rR0TUdNhUlryI3WqXckoRWyxzwgOPukRqg57jFSrcay3jRrdWt30dbLc4CHzEm3DAJ6HIycD05xkZ26iubmGzt3uLiQRxoMlj/nk+3esSz09tQurzWdYtsJNAbeC0lXcYrfOTuH95zgkdgFHUGsbSzZy+K9L07TdWOqRaat1PIxl8w2wbaiRs3JyNzgZ5wKkax1Cw0HXPDsFpNJLezXH2KVUJj2TknLN0XYXbIOCQoxnNXjpl7Za5bpY2yy28GkfZhJI5QZDDAyAecCkt7Ow0PwxpN3rRitLvTtMFqZZJMBCUQOuc4PKD+laHhZhD4L0ZpTsCadAWLcbcRrnNZkd/aHxDrkwuI/KmsbdY33cOR52QD3IyPzFT6HrWn6b4Q0oXVwFeGygSSNVLurbFBBUAng9eOKueJJbkWFqtnI6me8gicogfMbOA/BBGNpPashtOit/FF7E9xO0MelwEpHbxOdvmSjAQRnIGOgGa0vDzXOqeFFa6urrfdedtnZRHKEZ22MBgYO3aRx6VRGmWZ1610fTYLdLOysm+0sLeOQh8oIlLMD820SE9+hPas8TeHUt9bttek05vsV222GVYonaNUR1GAASCc/Xp04roZFj1LXNLnhwYLW3e5yOgLgIn5qZPyrntcvo7Vri30trm5hn4lvY5Z5YrI8KzPtJD8c46g/ewvI6fQL7S7jTobfTNXj1NYI1Uyi5Ezn3Yg5yag8NXGs3Kag2rNbui3rrZyQIVDwjGDz75Ge+O4wTt0UUUUUUUVGZohOIDIglZSwQt8xA6kD05H51XsNQs9Ra5a0be1vM1vMShXDoeRkjnGe3HNWyAwIIBB6g0yKCGAEQxJGGOSEUDJpyIkSCONVRQOFUYAqrPc2Lanb2E4V7oo1xCrRlsBcKWBxgEbwPxqW4ntbGGS7uJI4IxjzJXIUDsMn8arS6no0qgTX1i6qQw3yoQCOQevUVbtbqC9tYrq1lSaCZA8ciHIZT0IqK7ubXSrKe9lXy4YwZJmRMkDuxA5OByfYVYMiCPzCwCAbixPGPWnVVj1C3k1GbTwzC5hRZGRlIyjZAYHoRkEfhU7COZXjYK6/ddTgjp0I+hpwAAwOBTGghedJ2iRpYwQkhUblB6gHtnAqSqyX9tJqM2no5NxBGksi7TgK5YKc9OSjflU6urlgrBtpwcHofSkjjjiUrGioCSxCjGSTkn8TzT6akaRghEVQSWIUYySck/nTZ/KELtOF8pRubeMgAc5/DFVZtYsINEbWWnBsVg8/zQCcpjOQOvTtU8H2a4CX0KITNEuJdmGZOoGeuOc496lRFjUKihVHQAYFV7W4sr93ubYpK8DvbtJswVZWw65Iz1H04qeWWOCJpZnWONBlmY4AHvVX+19N/5/oP+/gpLbWdMvb6Sxtb6Ca5iQSPEjgsqk4B/wA+3qKW71DTtJs7i5uJ4oIYFaWXHYDljgck9T602W90y6mksbho3aKFLp0mT5VQk7WORgcofcYq3DNFcQJPBIksUihkdDlWB5BB7iqcOuabcRiSG6DoSRkK3UHB7eoqWz1Ozv5Z4rWcSPbMFlG0jaSMjr7GmapqOn6JaS6pfMsSKFR5AmWbLYVeOTy3A96kS7sLi5REuLeSfYWRQwLheMkDrjkZ/CrPSsuHVNCa+Ok29zaPcSlpGgiw3PVi2OAT155NatVLq5sdJt5Lu4MdtEzgyy7cDJwoLEfgMmi5vbKG/s7Sdgbm4Lm3XYWPyj5jkDjAPU46471brPh1zTbiMSQ3QdCSMhW6g4Pb1FS2ep2d/LPFaziR7Zgso2kbSRkdfY03U9TsdC06S+vXENvGwyVUkks2AABySSe1P+1afeSC2863mdlLiIsrEgYycenI/OpHtLaWFYZLeJ41+6jICo+gqOy1G0vrVrm2k3Qo7xlypUZRirdewIPPSm6bdWOpWMGo2O14LhA8cmwqWU9+QDUV7caNYsst5JZxPCBsL7dy+gUdfXAFEmtaSbITz3sCQyIDtmO0kEZwVbnOD0IzU2nT2V7psclkgFq6kInlGMY6Y2kAj8qSbULKxvLLT3bZLd7lt41QnIQZPQcAD14q2WAYKSMnoPWoWvbRWKtdQgg4IMg4pPt9n/z9wf8AfwUltdWWpwpc2s0F1ErnZJGwcBhkHBHfqKjg1ixudMk1KKYm0jDlpSjAYQnLDjkcHBHB7VLbfZGzPbLGDcBZWZVAaQY4J7nj1pLjULW1urW2mk2zXblIUCkliAWPToAB1NCX9vJqM2nq5NxBGksi7TgKxYKc9OSjce1TOkc0TRyKskbjDKwyGB7EdxTugwKWiimCKITGYRoJWUKX2jcVGSBn05P5mlZVdCjqGVhggjIIpIoYoIxHDGkaDoqKAB+AoaGJ23NGjH1Kg02W1t51KzQRSKxyQ6AgnpnmpFUKoVQAAMADtTI7eGFnaKFI2kO5yqgFj6n1qSiiiiiiiiisnU9NlvbqC4kNsq2UvnQOdwZTtIOSCOME5HQ1jeC57qbSWeO4sxNeTS3xiZW3hJZGZGxnoVIwa1dAvLjXtBM99tUyTzIPszPH8iSsqnIOckKDwe9Z3h13k+GMLySPI7WMhZ3YlmOG5JPU1laeUh1DRrmC3ktnj0GWWR1gDNJhrfJAz8xxn35rQYTan4p06ay1kmO40md4rmGJD8pkgPGQRz7itXxbGbjw5cWayRrNOFWPzDgEhgf5A0yXWTIJLYXth5pjzsy+QDkA49Mg/lUvhdY/+EVsLJiJDa2yWswKMFLIoVsbgMjjg4wRWHcNpr64/wBm+xf2b9kj2fZ/sgHm73Dg7xnpspbM6Qmq3Z1JrD+zmggSIXP2U5lZ3DD5B6GMc+tavigWaaRcQRCzTUjZzfYBMIxhgoAxv+XAYr14rGvIrM2Fx9ma3F0YWEZLWX3sHH8PrW/4f/siNHgsXsWvVjjN4bYR7mbGAX2dehrZorL1dEnKR/YVnkT5leS1EyKD1H3hzx61yenLFc+LtWENlayCO3giIGnAqHRpC4A34yN6ZwT1AOMVoW+rwaR4R1fULG0Q/ZIZJhdJDFHHdSAHtGTyCApzjpS6ZJpqXuizTRX0NxIrLFfOAqXzshLBzncc4LKGAHAx2rdbXbJWKmO+yDjiwnP/ALJVe5s1utSOp38kL6QtkMQXMZHlvuLM5DcD5cDkZGD0yaxoE1IeCEhnt5XtrieXzBNMEeCyLuyhix/557VPcBvapY4tW1YK9/aTLpzzxzLZIigoigGNDnBOSA7Z6fKuPvYu6edZtNVaGLTW/smWU4E8qLJbkjJK7S25Cc4BwQemVxiSd7i38Yee0N09qdPCZjVmTf5hPQcZx/OufN1LL4G8RQWttePcSXF/5QigctuMr4xgdc13gACgDoBWT4gv7qy/s2G0ZEa9vVtndlyUUo5JXtu+XjOR7VdsdOtNOjZbaEIZG3SOeXkb+8zHlj7muX8U2VxPaXunXN3brNq0c8NmlvYnJOw48xvnJ46kAdOKreIg1vqg1kQQzwyQW9m8F7ZTMocSsEYcYPMuORnjiuosF1DT9LjS8jW8uPMbIs1CKiliQAHYcAYHX8K5C2igtLKOKzYzsl04n8wWy8eY3mAfMTuU565ztxxnI1/Dbxw6jfHT4JrmO4ulFzIzQqLciJQBhT82fl6Dv7U69hvdS8ZW8E5t0tra3a4t4pYzIN+4JvYBgM4JwOcZJ6nih5l3bWeqeJIhp5vYZ3tUZ7VjtRJNmF+fgHlj7nrwMdheRGa2ZNsDdyJ13Lj6V5xpmvfbNF8Qxxz2tqLua6eKJ4XUzxi3GDGcgZICtjkgHpzmuiitLeHW/C8kcSq728zMwHJPlryfzNLrM1q2q6hpV0I3gNmk7rc6hKiyeY0qlAoOMfu/1qjNqKR6M2pLbSLfN4fbUBJ9tmKqVUMExuzty2evauqtIBpOmQw21vcXPPIExdsnknMr5xntk9a422igtLKOKzYzsl04n8wWy8eY3mAfMTuU565ztxxnI1/Dbxw6jfHT4JrmO4ulFzIzQqLciJQBhT82fl6Dv7U69hvdS8ZW8E5t0tra3a4t4pYzIN+4JvYBgM4JwOcZJ6nih5l3bWeqeJIhp5vYZ3tUZ7VjtRJNmF+fgHlj7nrwMb/iu5ltPD8k0U7QMJ4AZFbaVUzIG5+hNc7eIhvbvStO1GZ9OGlqs3lTeYIYy7b2UDJL7VwMc855rUV2g1/w9BY6nNLYT28zqi7PLdFRNmNqjj5sj8KhnmmtPF2vXUE1tG0em2rYmjLbsGc4GGGOlUNO1u6tH1vX5LSGfFlaTz7ZDHz5O4hRg+vc11kgMlg8utJBAsLs+Yp2KhR0JOF7dR0rkNKltL/XNQ1SeG2g8h/sltBeXrQyRoAGLFcEguSDz0CgYyDW1oK2OraheXT2Fp5ul3XkW88Uxl6xI7EMQMffxx6VZuZpj4mXTLeOzjje0a5Z5IC7Fg4Xsw9axr64kv8AwrNLdR23mRa3FbgxRbAVS9RBwSecCtjxaVtvDNy6zS20SsnmGBV3MpcBl+bjkH2rAvGjv7mW0i1CaMw6XcF5JJrcQmMrsCv5fAALBgT02n1NaWjR3MN5YvHocsU0iBbu8uLiGRmiCHAQq7Hbv2nAAFQzTSaj4yvGlhRrS00xxbFs5Zt43sMEYGVC/wDAT2POS+YNGuvEqLE091p0LeQ+mz+WhUM33t3I/eHnpxXoFpaw2VrFa28SRQxKFRI1wqj0A7CpqKKKKKKKKKKKKKKKKKKKKw9XSfXQ+kWpaOzf5b26HGU/ijQ92PQnooz36QeJH0bTBY319aXSnT3BtZLS3dyCRt8v5AcBuBg4B4qfwva3Wk+DrCG4tne7SAPLChUNvY7mHJA4JPftVbw/p+oW3gVdJurNoLuK1eLaZEZWYg4wQT6jrin6Romo2t/pd1dz27JZ6W1oyRoVYOTEfUgj92eeO3HpFaGA+OLe1s7OW3h0/S5Y2Bt2jjTdJFsCnGDkI3T0ravrpEBt/Mu4XIDCS3tmkwM+uxl7dOtc/Gsw8WT3RudVEDWEUYm+xdWEkhK/6rsCD071t6VdIS9kp1CUwKG+0XcDJ5mSeAxUAkfT0rn9H07UZrHRpIUcQRJdCaM3LwZLSAp90ZPANQapDcWFrcW14JTLqGuWUlqgeWdQivb5G8jA5jkODiuk1CSw0+6k1HyvO1E2/lRxx5aWRckhVX0LdT+ZwOMa5stR0rw1pEk91qE13BLa/bmilkkLAFfMO1ckjrnA6VraZqlrearcwWdpOqGNZnuHtZIg7klcEsBkgBfwo0sauL9/tpl8ra+/zDHsLbhs8vb823bnO7n7vfNbFZurw31xazJBdG1iEZLPCu6ZuOinov1wT6YPNcxodjNq/grSVs7OS1mtrRD5lwDEtwxUeajAfMVc5JbucEbq1UB8R6DqGg3Gi3Wjg27W7B0TylyuB5ZU4YDrwB07UjWGqapFo1tfWgtm0+4jnuJhIrJIUUgCPBzyxB+YDAzXS1z+ttqz6pEkWjNf2ESiQBblIw8uT94MeQuAQOmTnsKi1FbzUNAU6vpt+ssl2GW006ZS6gN8m58gY4BJzwT7VWuYZo9Z0dJ7G48tlnJiF087kbVxuJPY+5FXNFhVPFerOltNAn2W1CiTPJ3TZxyR6U+JntPF+qXEttcmGW1tljdIWdWZTLuxge61UsJJLPQNVhntLtHmuLyVB9nc5V5HZTwO4IrZ8PB18N6YJd4kFnFu353Z2DOc85rI8Q3yz6/oWmJb3JnW/wDPJ8htnlrG4Zt+NvVl4znkV1Fc14ltvtfiDw9DtibM05PmxeYv+pbqMis3xRaRWqWNoIbY3M+oWvlC301lJ2zozfvASFwqsTnsDXY3NwLaLf5UspJwqRJuLH09B9SQPeuNaG50x7Kycz21xf6oZFgt5ZmAidmkkDN9zOSxO3GPfqdrTFk0jV5rCSxnKX8rTreI7SozBVBV88ocKMZJBx1zxVfWBb2/iq3u7/T57m1axeMPFZPchX3qcEIrEcd8dqJL3wzKhR9Eu2U4OP7Bue3P/PKrVkZ/EOjOt5Dc2kMlxKrxzRmN5Yd7bRg8qGXAOQDjI75rOt9KN7pvia2W1TzHvJxa+YmAGNuiAqT06kZHvV+DRL9b/R7me6hdLCF0dFjKklkC8HJz09qqaluh8R6zdtPdQQx6TbbjBCJN3z3GRjax49vWsbVLWax8GwzTQzl5fDv9nJDHA7v5zooUHA+XnA57mu7nn+yW4YxSytgAJEm4sfT0H1JA9645obnTHsrJzPbXF/qhkWC3lmYCJ2aSQM33M5LE7cY9+p2tMWTSNXmsJLGcpfytOt4jtKjMFUFXzyhwoxkkHHXPFV9YFvb+Kre7v9PnubVrF4w8Vk9yFfepwQisRx3x2okvfDMqFH0S7ZTg4/sG57c/88qh1C7vdU8HzTNYXaS/2gnlxSRbZHjF0pU7TyPkx1x059av2ouZvGE9xJYzwRf2eiBpApBbzHOMqSOh6VQsvJn8X6fZ2Gn3FrbaLYzRSCSEoiFzEEVT0b5VY8E1chsrWS91fVr+BJIJykMYePcWjRSOB15dnAA68Y61nalpctn4C1xmt9lzexPIYIxnyxsCRxgD+6iqOOM5x1rrZYIpihlQP5bblDcgEdD9a57RLafz9cm+13UCf2lIQscaHcAicjKknp29Kd4Pk8+TXblXnkjl1MlJJ4jGz7YIUPBVejKw6dq0LjRIrrW01OSeYFLYwCOORk6sGzlSD26Vh63Zx6Zp1vo1na307XuqwzrIVMigm5WV9zdgAGOW9OprT8ZI8vha7jjDF2aIDaMn/WL0rC1yGe9vtctLdr28lTQbiEiS32/O/wB1VIRQ2dp6Z6Vf0+/0pdVtJbW3vbu+uz5M1zNZyhoo9pOMlQqLuCjAwMnPXmpNUnjg8UTb8gNpLIuFJyS5wOKwbiGc+ABaiKYz/wBnonlCa5Lbtg42Yxn26V2ct5Jf6TPLpZkEw3Im+Io2QcHAcD8CeDx2p2ki9EEv2zzf9afJE5QyBMD72z5c7t2MdsZ5zV+iiiiiiiiiiiiiiiiiiiiiiiiiiiiiiiiiiiiiiiiiiiiiiiiiiiiiiiiiiiiiiiiiiiiiiiiiiiiiiiiiiiiiiiiiiiiiiiiiiiiiiiiiiiiiiiiiiiiiiiiiiiiiiiiiiiiiiiiiiiiiiiiiiiiiiiiiiiiiiiiiiiiiiiiiiiiiiiiiiiiiiiiiiiiiiiiiiiiiiiiiiiiiiiiiiiiiiiiiiiiiiiiiiiiiiiiiiiiiiiiiiiiiiiiiiiiiiiiiiiiiiiiiiiiiiis69ubu3udqTKEYZUCwlmI9csrY/QVzug6pqf8AYM0izzXEv2y6Vc6fNK3Fw6jBLgYAA+XIwBjrW9e6lLpen2ayPHdXt1KltGQvlrJIc5OMnAADMRzwDU9i+p/a7mG/igMKbDBPF8vmZB3AqSSMEDnPOfar1c1eeI72PSdW1eCGIW+lSyrJBMjB5Vi+8Q2cDIBxwQeOeeOjjcSxLIucOARkYPNOqpql+ml6TeajJG0iWkDzMidWCqTge/FZ41W9t5NMe5NrPDqUgiX7ODmMlGcEEk71wpGcD19qp3Hia8+yarqtrBE+naTK8ciEEyTiP/WspzhdvzAAg5Knpmtu7u5k08Xlhbi84VxGrbS6Hk7c8Zx0Bxn1FQS+ILBNKj1CJ2nSY7IYo1/eSydPLCnkNkEEHGMHOMGpZr6ey0KXUL22/fQW7TSwQNv5VSSqnAyeMdKzhrd7b3GjtdLBJBqz+WoiRleFjG0gzk/MMKQThccHHale48SXV3cnTzpaW0UpjTz1kLnAGScHHXNas89xCyrHZyT5XJZGUAH05IrCn1q4sQ2vvBdtp09vEFtg0ZPmMwCsvzcE7lGPoa2bW5vpZ7gXOn+REgBhYTBmk45BHReenJz7Vi+L/EDaZ4R1K5nsr21LW7xxuHj3LIw2rja5OckdPrVrTtWu5NEtpLbSru5cIqEvNGCxHDEkuSTwevWofGGoyWdvYRrFcr52o2qLJFIqbsyAlM7geVB9uao3V5qt5rkY81rdoLKYT2y20snltIU8vcUYqxwj4btzxzxo+Ep7uXSlW4vDcm1jS2kRoHRxKijflnOXyT1wOlaYvrkgE6TeD2Lw8f8Aj9cto11rzaXbXFpDeXEkF9dR3MM0sZWVBNIuNzPlSuBjHHGOhBHXTw3Mrq0V0YFxyvlq2T9TWNbXt7L4nvtIk1JVFvbwSxfu13vvMm76gbB09a1rO0ubeaeSfUJbpZSCqOiKIsDHy7QDz15zXN2evXPmW2uz28gttWaGCKNrr5LdNrMXIxjOd2T6BaLfWb/StM1DXb2yvp0u7kSQRNIgWOIlY4wAWypIwxGOrGtDxReNFa/ZU1GG1NwBGQB++TcwXzV+deFJBPoAT7HHTXL+9tfLTUhLfXEUgtorIRgRELuVpS7dSMNgYxyOa2dHukOq3Fu737SxWcMryXMsbRsjM4VgEJAPyNk+mPasqTV01bV5dVGoXdppmkb0TyoJGWZtuXkfAwVAxtB929K0dC1efdHDq11I9zfyO9rEbN4xEgXOwtjBIAyT6kgZ4rX1CW4gjWSGRUUHDD7K85OemAhBH61zdrqV+fF2pIbuQotnbFUOnzlQS02SE3cE7Rz3wPSt/R5ry4tnmvZMs7kpGbYwtEvTBG5s9M5z3rQoooooooooooooooooooooooooooooooooooooooooooorkfEl3DBGI9NsjJNdXUdu14wJigaWQJuGT85Bb7o445I6Go2lW2jSJoEV0lpbzvmLUJm3ybzgvHz8vmMSWBbsxwDirHinR7OzTw6kMf2XTrbUwJhD+7VA6OoPHQFmAPT71WbPT4bbxffadYo1vp8lhHJPFbuY1jm3sFK7SNpKg5xjOBWxHottFKkiz3xKMGAa+mYHHqC2CPY1k6nqelao08F7f20Wl2jn7QHmUGdkOSpGfuKRz/eIx0B3dHFIJoUlUEB1DAEcjNPrP1+7nsPD9/d20Immht3dEK7gSB3Hce1czBocHhnVtEn0i6e4t7uUwNau29MMhYzQjpH93JC4Ug9BxUEEg07wJ4n0+Yf6TBcXkQj/AIpDMzNFgd93mKBXUQyroHhy0S5DyPbwRwhIhueRwoUKo7kn/E8VkLouo2V+3iYQxzXz5M2nx42qhABEbf8APXCjLHhsY4GCOhj1Syk0r+1POC2gjMrSOCu1R1yDyCMHI68VjW1/p95qlrqN5dQNcuxisLRZVZogw5YgHlyoOf7oBA7k5msxaRdeGdf1KG1mgvbSW4WG4lH71J1PymI5JAL4wBjOenNdlbGU2sJnAExRfMA7Njn9a4lr2GXxJbaNPcRrpNvetcxXLZCSyj5ltw2NuUdi2AeiqOobHcySJFG0kjBEUZLE8AVxnigSalp+o3t7bXCW1rYzmyhMTcuY2UyvxwcZCqeQCSeSAHwahqOlywXVhpF7e2M1vEbqJIwrK+AoePJG7gAMvHGCP4ql8ZWA1P8AsyW7iBtYb612wyAHe7yopLD2Ulffe3oKyr+0OhXcDrazTLcGK3VbyGKdxFErs7ZLkn5c9QOg9a6TwzayWUdzb/ZZVgmla5jnPlKjbz91QjnoMc8A5rOvV01PFi6ZeXs72z2Bf7M97K++QSDHy7iScVY0a+h0nU9Z024YxrvbUrfeCC8LjL4B7q4fP1HrXSo4dFcdGAIrmDpllq/i3XrS/t1miazszg9VOZ8EHqCOxHNbejWE2l6VDZT30188O4Cef77LuJUMe5AwM98ZrkLC1L+GfCRluJJYnuYh5DqmzBjf/Zz+ZrR8R2dzZ+HtQjlufOhuNStjbIeTErTRApnuN+4j0BA7Vc1BZT4qEkJkDJprqTEgZgWkXGM8A/KeTxxzWFLO0KGUKGTSftTThZWlMZeP5VZ24eQsTlVzgkD3On4WshFdumI3ig0qzsZFyMrLGZt6svUcOp5HIPGaLHT7nU7bxDZC6iigub2eJ8wlmAZFBIO4Dv6Vcu7K4tJbbVbu8ha30qGV2RISrMNmOpYjoKm1mW0i3SfYZL+7WP5YYyRx1+ZvuqOvJ/DPSuWsrdbLSbbxPKsc0uq26TXSuWCW0bAGMhRk7I9xBx13liR26vQNKtLC08+GaO7nuVDS3iIq+f1x93jAzgdeO5rWooooooooooooooooooooooooooooooooooooooooooooqhrGj2uuWQtLwyiNZUlBilMbBkYMORyORT30jTpNNbTXsYGsmXa0DRgoR7j9c0ljpGn6bpo061tUS0AI8o5YEHrnOc/jU9taW1nH5drbxQITnbEgUZ9cCpqz38P6LLI0kmkWLu5JZmtkJJPUk4q/S0VWg0+ytZWlt7OCGR/vPHEqlu/JAp0llaS3SXUlrC9xGMJK0YLr9D1HWp6KZLFHPE0U0ayRuMMjqCGHoQetVLfRdJtJ1nttLs4ZU+7JHAqsO3BAqZ7CzluVuZLSB51wVlaMFhjpg9aS6sY7z5Z3laLHMQfarfXGCR7E49qJtOsriwNhNZwSWhXYYGjBTb6bemKq6P4f0/QVlTT0mjjkOfLe4eRU9lDEhR9Kt6hZR6lp1zYTMyx3MLwuUOGAYEHHvzUkEK29vHAmdsaBBnrgDFQ6hp8OpQxRTlwIp4512HB3IwZfwyBTYNMghvGvXZ57orsE0pBKrnO1QAAo4GcDnAznFV7Pw7p1gbpbdZhBdAh7YzMYVB67EJwuc84qxpuk6do9uLfTrKC1i7rEgXPuT3Puar694c0zxJaLb6jAW2ZMcsblJIyRg7WHIyOo6HvWhBELe3jhDs4jQLubqcDGT71BDp0EGp3Wopu8+6SOOTJ4wm7bgf8AAzVusq28M6NaRWccNhEv2Jg0L4+YEAjJbqep606+8PadqOpW1/cxyGW2cSKqysqMw+6zKDhiMcE9KszadBcSSO5kBlCq5SQoSozgZGDj5ifxNMXSbJPIVYVWG3wYYFAWOMjuFHGfc9O2KeunWqao+pLFtupIhC7g43KDkZHfGTg+5qnN4Z0ya6muR9thknffL9m1CeFWbAGSqOBnAHOKim8IaTcQvDcPqU0UgKvHLqt0yuD1BBkwR7Gtb7ND9k+yqmyHy/LCrxhcYwMdOKpaLoOn6BYpaWMRCqioZJGLu4AwAWPJAHQdB2ApdN0DSdHnuJ9OsIrV7lt0nljAJ9h0H4YrRoooooooooooooooooooooooooooooooooooooooooooooooooooooooooooooooooooooooooooooooooooooooooooooooooooooooooooooooooooooooooooooooooooooooooooooooooooooooooooooooooooooooooooooooooooooooooooooooooooooooooooooooooooorx7QtJ1zV9Etb+Txjq8bzpkqtxJgc/71aH/AAi+tnr401cf9vEn/wAVSf8ACL63/wBDrrH/AIESf/FUDwvrY/5nXWP/AAIk/wDiqhbQdbS+itT4y1b97Ez7vtEnGD/vVN/wi+t5/wCR11f/AMCJP/iqX/hF9b/6HTV//AiT/wCKpP8AhGNb/wCh01f/AMCJP/iqVfC2tMwH/Ca6xkn/AJ+JP/iqgtNB1u+tI7n/AITLV4/MGdouJOB/31Ux8L63/wBDrrH/AIESf/FUf8IxrX/Q66x/4ESf/FUv/CL61j/kdNY/8CJP/iqjm8Oa1BbvKPGesNsUuQbiTnA/3qIfDeuTwRSnxnq6+YoOBcSccf71SDwvrf8A0Our/wDgRJ/8VSf8Ivrf/Q6ax/4ESf8AxVH/AAi+t/8AQ66v/wCBEn/xVH/CL63/ANDrq/8A4ESf/FUv/CL63/0Ousf+BEn/AMVSf8Itrf8A0Ousf+BEn/xVH/CLa3/0Ousf+BEn/wAVR/wi+t/9DrrH/gRJ/wDFUf8ACL63/wBDrrH/AIESf/FUf8Itrf8A0Ousf+BEn/xVH/CL63/0Our/APgRJ/8AFUHwtrR/5nXWf/AiT/4qgeFta/6HXWD/ANvMn/xVH/CL61n/AJHXVx65uJP/AIqj/hFtbP8AzOmsf+BMn/xVL/wiutZz/wAJrrP/AIEyf/FUh8Ma3/0Our/+BEn/AMVR/wAIvrf/AEOusf8AgRJ/8VS/8Itrf/Q66x/4ESf/ABVJ/wAItrf/AEOusf8AgRJ/8VR/wi2t/wDQ66x/4ESf/FUv/CLa3/0Ousf+BEn/AMVSf8Ivrf8A0Ousf+BEn/xVH/CLa3/0Ousf+BEn/wAVR/wi2t/9DrrH/gRJ/wDFUHwvrY/5nXWP/AiT/wCKpf8AhGNax/yOmsf+BEn/AMVR/wAIvrWP+R01j/wIk/8Aiqgg0HW7lp0PjLV08mXy8i4k5+UH+971OPC2t4x/wmusf+BEn/xVJ/wjGtf9DprH/gRJ/wDFUv8Awi2t/wDQ66x/4ESf/FUn/CL63/0Our/+BEn/AMVR/wAIvrf/AEOur/8AgRJ/8VR/wi+t/wDQ66x/4ESf/FUf8Itrf/Q66x/4ESf/ABVH/CLa3/0Ousf+BEn/AMVR/wAIvrf/AEOusf8AgRJ/8VR/wi+t/wDQ66v/AOBEn/xVL/wi2t/9DrrH/gRJ/wDFUf8ACLa3/wBDrrH/AIESf/FUn/CL63/0Ousf+BEn/wAVR/wi2tZ/5HXWP/AiT/4qlXwtrfT/AITXWO/W4k4/8epv/CLa0f8AmddZGe32iT/4ql/4RbWhj/itdYz/ANfMn/xVL/wi2tdvGusf+BEn/wAVSf8ACL63/wBDprH/AIESf/FUv/CLa3/0Ousf+BEn/wAVSf8ACL63/wBDrrH/AIESf/FUf8Ivrf8A0Ousf+BEn/xVH/CL63/0Ousf+BEn/wAVS/8ACLa3/wBDrrH/AIESf/FUn/CLa3/0Ousf+BEn/wAVR/wi+t/9DrrH/gRJ/wDFUf8ACL63/wBDrrH/AIESf/FUf8Itrf8A0Ousf+BEn/xVL/wi2t/9Drq//gRJ/wDFUn/CLa3/ANDrrH/gRJ/8VR/wi+t/9DrrH/gRJ/8AFUjeF9bAJHjXWCQMj/SJMf8AoVb3wsvb2+8OXb315PdyR37xiSaRnbAROMknjk/nXa0UUUUUV5x4IJPg7S/Tyv61uUg5pQOKpTZ/t21/693/AJ1dIyc0GjFKueMetUdF50mDPp/WrpHJpp607kCob3ixn9fJb+VFif8AQbf/AK5qf0qUc0uKTmjml5ooo5pOaUGgjNVtQmeCzeRCAE+ZiewrIsbzUDfW8LzecJUD88Y65P5FcfSlvb29S8udkrrGpHG3/VcdzU11eXJtbNNzRmRd0jg/MdoDYH+9jP0qzpV3NcrJHM25kCtv9dwzjHtV/IJzS0UUUUc0UUUlHQA1S045mvj/ANPP/siVdHU0tFJzS4pMGlopDmjmlFBNA5qC7uGtrZ5V/gwcfjisi21C5kmhjMzFi5jIYDpuHJ/lS6jeXkd9PHDK6rtGFHWPjlv61LPdXR06zQM8bXBVWnyBxjOR9cfhmptKvZ7nckxLMV8wE/wgnG33I9a0RzSk4opMGlooNJzS0UtNNApXJEbc/wANZ3wi/wCRav8A/sJSf+gR13lFFFFFFec+COPB+l5/55f1rbZgqluoHJxzVGy1qz1B0jgLhpIhMgdcFkJxke2avZzVGbP9uWv/AF7v/Or27A/Gq817FBOluVeWZwWWOMZbA7/SpILhbiISKrAHI+YYPHHSpUz8v1qhoxxpNv8AT+tXucmqJ1mzSWSN/MTypVhd2Q7Q56DPvV7Of51Bec2Nx/1yb+VJZSL9gt/nQfu16kelWA6Y/wBYn5ik8xf+eifmKN6/89E/MUb1/wCeifmKXzF/56J+Yo8xcf6xPzFJ5i/89E/MUGRR/wAtE/MUvmL/AM9E/MUnmL/z0T8xR5if89E/MVHdRR3FrJAZVCyLtJDDNQLZQxXsVxHMo8uIoFyMduc9e1RyaZbS3S3EkwYkkuCR83GB9Me1SvZ5jgAvXDwk7ZMqS2fXPFEduyXAlkv2lwpG0hFH6VaDrj/WJ+YpPMXP+sT8xTvMX/non5ik8xf+eifmKPMX/non5ijzF/56J+YpRIp/5aJ+YpC6/wDPRPzFHmL/AM9E/MUnmD/non5ilEi4++h/EUeapx86fmKo6fIplvfnQf6R3I/uLV4SL/z0T8xR5i/89E/MUeYP+eifmKN6/wDPRPzFL5i/89E/MUb1/wCeifmKTzFP/LRPzFHmqf8Alon5iguv/PRPzFG9f+eifmKPMX/non5ijzF/56J+Yo3rn/WJ+YqK5jiuoHhd1CvjPI7EH+lVY9Lt45YpVuBuikZ8fL8xPY+w9qWbTYJ7pJpJ9x3ZYMwwQBwPYc9qcbINBCgu2UwPuR/lJHBGOeMYOKcLd/PSSXUGlCZwhCKDn6VZ8xc/6xPzFL5in/lon5ijev8Az0T8xS71/wCeifmKTzF/56J+Yo8xR/y0T8xR5i9fMT8xR5i/89E/MUb1/wCeifmKPMX/AJ6J+YpfMX/non5immRf+eifmKUOP76H8RQ7go/zIPl9RVD4Rf8AIs33/YRk/wDQI67uiiiiiivOPBXPg/TM/wDPL+tbTD5CQOdpx9aw9C0a60poWk2vm3WOQlsmIj+7/snuPWt7oM4xVGXP9u2v/Xu/86vAdazpLOeHXRqcAVw1v5EqFsEDcCGH5dKk0i2ntLERXT+ZJvdi24t1JIGT6VeTt9az9Gz/AGTB9P61fJ55rnrrRLu4u7qRVVXkvI7iOTzCQgX1ToTXRFSGLN1IyfrUF4MWNx/1xb+VVLPSLBrK3Y2qZManqfT61MNG07H/AB6J/wB9N/jSf2Np/wDz6J/303+NH9j6f/z6J/303+NH9jaf/wA+if8AfTf40f2Pp3/Pon/fTf40f2NpucG1T/vpv8aBo+nAf8eqD6s3H60n9kacTtNmoPuzcfrSf2RpucC2TjqNzf40z+zdIZBIII9h6NvOD+tILDRmYKsULMxwAspOT+dL9g0jDHyocJwf3hGP1pf7N0kBR5Efzjcvznkeo56e9LHp2kyOyJDC7KASFkJI/WnnRtPJx9jT/vpv8aT+x9Nxzap1/vHp+dL/AGRpuM/ZF4/2m/xpv9j6cSR9kTI9Gb/GmtpmlRo0jwRhV6ku3H60PpukxsqPbxqz/dBcj+tJ/Z2kBXcwxbY+WO8/KPfnilfTtHjIEkUKEkAAyEZP4mpP7H04f8ua/wDfTf40HR9P/wCfRP8Avpv8aP7G0/8A59E/76b/ABo/sbT/APn0T/vpv8aX+xtOx/x5p/303+NIdG0/A/0RP++m/wAap2GlWLSXgNqhxcYHzH+4nvVwaNp//Pon/fTf40f2Np+f+PRP++m/xpf7G0//AJ9E/wC+m/xo/sfT/wDn0T/vpv8AGk/sfT/+fRP++m/xpf7H07p9kT/vpv8AGk/sbTsf8eif99N/jSLo+nf8+a8+7f40o0fTiufsiccH5m/xo/sfT/8An0T/AL6b/Gj+xtP/AOfRP++m/wAaP7G0/wD59E/76b/Gj+xtO/59E/76b/Gg6Pp//Pon/fTf40f2Pp+f+PNP++m/xqlrGlWMVgZEtlUiRBwzeo96vNo2nb2/0NMf7zf40n9i6eP+XRP++m/xo/sbTv8An0T/AL6b/Gj+xtP/AOfRP++m/wAaP7H0/wD59E/76b/Gl/sfT/8An0T/AL6b/Gj+xtOb/l1Qf8Cb/Gk/sfTiP+PRCfTc3+NH9jacRxaLjt8zf40f2Np3/Pon/fTf40f2Pp//AD6J/wB9N/jR/Y2n/wDPon/fTf40f2Np/wDz6J/303+NB0bT/wDn0T/vpv8AGgaNp3/Pmn/fTf40No+nhWItEBC5B3H/ABqL4QjHhi+GOmoyD/xyOu8oooooorzjwSD/AMIbph/6Zf1reGQMY60gyO2aACc5FUph/wATy1/69n/nV3npikIOc46UAEU4ZyOO9UNGz/ZMHHb+tXippMe34UvO3GKgvc/Ybj/ri38qSxz9htv+uS/yqwAfSkIPpRg+lLg0nToM1y+vSyw68WWJpLUWR+1Kmd/l7hu2ep9R6ZxWuktzOsUmmFHtnAKkbcY79eaztMa7Oo24kB84yT/as9NmRs/TGPxpwjuG1a4dAQEaUksCF259fpVvTVdNKg+zruaXO1nOQmT96maFFcQ2FtGoFxDudXL8MpyTu/Gqlu1wmmQ3KRb4EtSsmTguzDl/w4qO6iLLZhjK8YsgoWJc7SSOvruwfyq3pt+YrO4eQO4jDybI0yWXfjg963FYOkbYOGGeeCOO9clZXKW+qXAv48WTX8ogl5wkvYP9e3auhgGoLdgShfIJ5zt4H86qaMSfD7/eyJJRyOeprMEM66ZcM+UjYR5zlCTtTGB37/lWhfQyPqE9vb7vNa2REkP8ALHLfgM1XneaSHVv3bQT+XGjqvzFjjkD/e7VHBKbW9QxhljCsW8xPm/5Zjp3wcjPua6UcKD60uCaUKfSjB9KQg+lGDgcVS04Hzb7/r5/9kSroBz0owc9KXB9KTB9KXB9KTHOayPE5B0gLyD9oiwR/vj+maXUm1gWl4LZVDGJzFtK9cHHvTNEZvtVyIw32byodm7u+wb/AP6/vmtk8mlCn0oKn0pMH0pcH0owfSqGuA/2aRj/AJap/MVoMDuP1P8AOmkH0oAPpS4PpSYPpQQfShAQeeKwtLa8KXv2VSf9OlzkjgYXHX8ank80a1pf2jIlKTbwOn3eOnFazA5FGD6UYPpS4PpQQfSkwfShwdjcfw1n/CP/AJFq+/7CMn/oEdd3RRRRRRXmXg+d4/CWnJ9jupdkeN0ceQee3NbX2mQjjT73/v1/9egXMv8A0Dr3/v1/9el+0yY/5B97/wB+v/r1SluHOs2zGwvP+Pdxjyuev1q4bqQ/8w69/wC/X/16PtMv/QOvf+/X/wBej7TL/wBA+9/79f8A16UXUuR/xLr3r/zy/wDr1R0i4lXS4B9hu2AHVYs55+tXjcy/9A69/wC/X/16T7VL/wBA69/78/8A16PtUv8A0Dr3/v1/9eob25lNlP8A8S+8GYmGTF7fWksriUWVv/oF4cRr0i68fWp/tUv/AEDr3/vz/wDXpftUv/QOvf8Av1/9ek+0y/8AQPvf+/X/ANeg3Mp/5h97/wB+v/r0C5lH/MPvf+/P/wBekFxJuJ/s69z6+SD/AFp5u5cHGn3wB7CEf4037TJgg6dek+vk/wD16DcyFdp0+9I7gwjn9aBOyIqppl4oAwAIQAB+dIty6jC6beqPQQ//AF6BMSnlnS7spjG3yRjHpjNIJmUYXTLwD/rgPw7/AIULOY1WOPS7tVHRRAAB7YzThcyr/wAw++/78j/GgXMg6adeg4x/qR/jQLmTGP7Ovf8Avz/9eg3L4wNNvAPaH/69NacyYD6ZeOAcgNACB+tOM7bi39m3vPfyRn6delIs21i39l3eWYMT5AyT65zzSLOVlEn9lXW4DGfs4zj069O9P+0uemnXv4w//XpPtMo/5h97/wB+v/r0fapf+gde/wDfr/69H2qX/oH3v/fr/wCvR9ql/wCgde/9+v8A69BuZeD/AGfe/wDfr/69U7C4kEl4fsF2c3GcCLp8i8dauC6l/wCgde/9+v8A69H2qXP/ACD73/v1/wDXpftUv/QOvf8Av1/9ek+1Sf8AQPvf+/X/ANej7VL/ANA+9/79f/XpPtUo/wCYde/9+v8A69O+1P8A9A28x6GEf40n2qXp/Z19nr/qh/jR9qlHTTr4Af8ATEdfzpPtUv8A0Dr3/v1/9el+1S/9A69/79f/AF6PtUv/AEDr3/v1/wDXo+1S/wDQOvf+/X/16PtUv/QOvf8Av1/9el+1S/8AQOvf+/X/ANeqOtXEh08j7BeD94nWL3HvV5rqTe3/ABL70nP/ADy/+vSfapP+gde/9+v/AK9H2qX/AKB17/36/wDr0fapf+gfe/8Afr/69H2qX/oHXv8A36/+vR9pl/6B17/36/8Ar0v2qX/oH3v/AH6/+vR9pkHI029weTiHBP60n2t+v9m3pPYmHkfrR9qk/wCgde/9+v8A69J9ql/6B97/AN+v/r0v2qX/AKB17/36/wDr0fapf+gfe/8Afr/69H2qX/oHXv8A36/+vS/aZf8AoHXv/fr/AOvSPcybGzp16Mg9Yv8A69V/hGCPDN9nr/aMn/oEdd3RRRRRRXL/AA5yfAWkcn/U8/ma6bPAqla6vZ3lwYIZCzYJXg4YA4JB781czkdTWZP/AMjLa8n/AI9n/mK1O/U1WvdQhsfLEhYtKxVFUEliAScAewJqWC4iuoUmhfcjqGUjoQak7Dk1meHD/wASC15P3MfrWnz1yapyatZx332RpcSBlVuDhWb7oJ7E9quA5HBqtqX/ACDLo5P+pf8AkaTTD/xK7TBP+qX+VW/xNJ+Jo/E0fiaU/Wk7dTQPqaPxNH4mlx7mkP1NGOOpozj1rGuPE1vb3LwNBKzIzL8uPmx6VpWd2Lu1in2FBKoYA9gRmpx9TS0fnSfiaX8TR+JpPxNKPqaPxNJj3NGPc0Z9zQOg5NZmlEtdanyebz/2mlaY+po/E0v4mk/E0uPc0n4mg9uTWA/i23jVybeYlFZsccgHFbkUnmxq/I3DpnpT+nc0fiaMe5o/E0fiaX8TWV4j40k8n/Wp/wChCtTv1NJ+JpR9TS49zSY9zRn60fiapajqYsIlYQySFpEQBVz95gP60+11CK8CtCGaJ13LLj5SPrVr8TRnPc0Y9zRj3NB+poH1NNmB8p+f4TXEfCU58Pakf+opL/6BHXd0UUUUUVy/w5I/4QLSfeH+prpvpXOaP4fubC6szM48uwheGNgeZNzZyfoK6MDC4zn3rLn48TWv/Xs/8xWqaydW06e4v7G9ttrPamTMbHAYMhXr6gkVY0awOmaNZ2LOZGtoVjLHvgYq92rL8NgDQbXn+H+tah6Vzt34fnn1SeVZMQ3Nzb3DNnlfKOSPxx+FdCq471X1P/kF3f8A1xf+RpumYGl2v/XJf5VbooozRmiiiiiiikyM1z11pdxcXomFvtVZGIIPXJwTj6c1rabFLDYxRTAK6DbgdAB0/TFXB0ozRmjNFFFGaM0UUUZAxWZpBH2rU8f8/n/tNK06KKKM0ZFI33TjrXMvpF1LMJfs2w+Wygb+AGyT+oH510FmrpaxCUYcKNw9D3qeijNFFFZXiPnST/11T/0IVq55oOKKKM0UHpxWRq9lcXoRYi67DlAjbcN2JPoOeO9M0bTH0ySS0MGY1VdlwWzuH9wjtitrNFFFFFNlP7tv901w3wiyPDupZ/6Ckv8A6BHXeUUUUUUVxHgGHVm8EaWbe9to4zF8oeAscZPfcK6H7PrvbULP/wABj/8AFUeRrn/QQs//AAGP/wAVSiDXf+ghZ/8AgMf/AIqs2aHWf+Ehts31rv8As74Itjjr/vVpfZ9d/wCghZ5/69T/APFUfZ9dA51Cy/8AAY//ABVIINd7ahZ/+Ax/+KpRb65xnULPGf8An2P/AMVWdoEGsnRrYx31qqle9uT3/wB6tEwa8P8AmIWf/gM3/wAVSeRrn/QQss/9ex/+Kpfs+u/9BCz/APAVv/iqr38OtjTrktf2hAibP+jHpg/7VJp0GtHTrYrf2gBiXGbY+n+9Vn7Prv8A0ELP/wABm/8AiqPs+vf9BCz/APAVv/iqPs+u/wDQQs//AAFb/wCKo+z69/0ELP8A8BW/+Ko+z67/ANBCz/8AAVv/AIqj7Pr3/QQs/wDwGb/4qj7Pr3/QQs//AAFb/wCKo+z69/0ELP8A8BW/+Ko+z69/0ELP/wABW/8AiqPs+vf9BCz/APAZv/iqPs+vf9BCz/8AAVv/AIqk8jXv+ghZ/wDgK3/xVH2fXcf8hCz/APAVv/iqUW+uY51G0/8AAY//ABVHka7/ANBGz/8AAY//ABVHka9/0ELP/wABW/8AiqPs+vf9BCz/APAVv/iqPs+vf9BCz/8AAVv/AIqj7Pr3/QQs/wDwFb/4qj7Pr3/QQs//AAFb/wCKo+z69/0ELP8A8BW/+Ko+z69/0ELP/wABW/8AiqPs+vf9BCz/APAVv/iqPs+vf9BCz/8AAVv/AIqj7Pr3/QQs/wDwFb/4qj7Pr3/QQs//AAFb/wCKo+z69/0ELP8A8BW/+KpDBruP+QhZn/t1P/xVUNMh1nz9QCXtoCLrB/0c8/In+1Wh9n17/oIWf/gMf/iqPs+vf9BCz/8AAVv/AIqj7Pr3/QQs/wDwFb/4qj7Pr3/QQs//AAFb/wCKo+z69/0ELP8A8BW/+Ko+z69/0ELP/wABW/8AiqPI13/oIWf/AIDH/wCKoMGuDrqNn/4DH/4qkEGuf9BGz/8AAY//ABVL5Gu/9BCz/wDAZv8A4qj7Pr3/AEELP/wFb/4qj7Prv/QQs/8AwFb/AOKo+z69/wBBCz/8BW/+Ko+z69/0ELP/AMBW/wDiqPs+u/8AQQs//AVv/iqzfEEGsjTCZL61YeYmMW5H8Q/2q0zb67k41C0H/bsf/iqT7Pr3/QQs/wDwFb/4qj7Pr3/QQs//AAFb/wCKo+z69/0ELP8A8BW/+Ko+z69/0ELP/wABW/8AiqPI17/oIWf/AIDN/wDFUeRrvfUbP/wGP/xVJ5GudTqNmP8At2P/AMVS+RrnX+0bP/wGP/xVJ5Gu/wDQQs//AAGP/wAVS+Rrv/QQs/8AwFb/AOKo+z67/wBBCz/8BW/+Ko+z69/0ELP/AMBW/wDiqPs+vf8AQQs//AVv/iqPs+u/9BCz/wDAVv8A4qmy2+uCJydQtCNpyPsxHb/erm/hISfDuo7iCRqcuSO52R13dFFFFFFcx8Of+RC0n/rj/U10uegHrWBpPiF9Qu7ZXjCx30Tyw7eqhTjn610A6VlT/wDIzWv/AF7P/MVq1manqMtvfWdlbqpmui+Gf7qhVLHP5Y/GptI1BdV0q1v0TatzEsmD2yM1d7Vl+GyP7Btf90/zrTY8Vnz6hLHrlpYhEMc8TuW7grWjmq2pY/su7/64v/I0mmH/AIldr/1yX+VWqKKKKWkoopaKKaTzXM3eq3gvLhIZZQsRGRsX5VVsM3uPQd63rNpZLaOSQ7t43Z46HkdKs0tJRS0UUlFLRSHpQOlZmk4N1qX/AF9/+00rTopaSlpKR8lcA4PauUk1m7M0jK8vlJIC/wAo+Ref6j9a6e2DiBfNJL45JABP5cVLQKWkoorL8SHGkn/rqn/oQrU70UUtFIap6lPJBaSSR5GOrjGU98Hg1lRatcPrAgLjYRFhCPvZDZI/IH8KgvdUvFvbiKGWXEZAICDKgN8zflW9YyPJaRySNuMi7gcDoeR0q0OlFLSGgU2X/Vt/umuG+EX/ACLupf8AYUl/9AjrvKKKKKKK5j4cg/8ACBaTkf8ALH+prpSOOOtZ9notpZXPnxKRtUrGpPEYJyQPxrQH3elZdwD/AMJLaYH/AC7P/MVq1Uv9NhvzE7s6SQklHQ4K5BB/Q1Na20dpbR28CCOKJQqKOwHQVLWX4dUjQrUEY+U/zrTP0qo+nxy6jBfMz+ZArIoHTB61c4qrqX/ILuuM/uX/AJGjTR/xLLTj/lkv8qtUUc0c0c0c0c0UUUc0HNFYdz4ZS5unne6k3OwY4Uetatpbta2yQNIZPLUKGIxwKnH0o5o5o5o5o5ooo5o5ooo9OOKzNJz9q1Pj/l8P/otK1KTmijmiimsCUIGM9qwX8KxyO7NdSZckn5e5BH9a3IlaOJUdi7AYLEdak7UUc0c0c0dKy/EQJ0o8Z/ep/wChCtTvmiiijmggmqmp6fHqdi9rIxRWIJI9jn+lVbjRFn1GPUUuZY7lTgttBymc7MEcfXrUFz4aS5u3uHupNznJG0eua1LK2a0tI7dpDL5ahQzDnA6VYFFFBzQKbL/q2/3TXDfCMg+HNRx21OX/ANAjrvKKKKKKK4nwFoun3fgnS5ri3DyPFlm3sMnPsa6H/hHNJ/58wf8Agbf40f8ACOaOTg2YyP8Abb/Gj/hHdJ/58/8Ax9v8azZtB0weIbaP7INpt3P3265+taX/AAjekD/lzH/fbf40h8O6QvWzA997f40f8I3pGM/Y/wDx9v8AGlHhzSRj/Q//AB9v8aztB0DS5tHtpXtQSy5Pzt/jWj/wjmkk/wDHn/4+3+NB8O6QDt+ygH/ro3+NL/wjmk4/48x/323+NVr/AMP6Wmn3LrZ4KxMR87eh96NO8P6W+nW7m0yWiUn529PrVj/hHNJ/58//AB9v8aP+Ec0n/nz/APH2/wAaP+Ec0n/nz/8AH2/xo/4RzSf+fP8A8fb/ABo/4RzSf+fP/wAfb/Gj/hHNJ/58/wDx9v8AGj/hHNJ/58//AB9v8aP+Ec0n/nz/APH2/wAaP+Ec0n/nz/8AH2/xo/4RzSf+fP8A8fb/ABo/4RzSf+fP/wAfb/Gj/hG9J/58/wDx9v8AGj/hG9J/58//AB9v8ajOhaFz/o8fynB/eNwffmnr4f0Z1DJaKykZBDt/jS/8I5pP/Pn/AOPt/jR/wjek/wDPn/4+3+NH/COaT/z5/wDj7f40f8I5pP8Az5/+Pt/jR/wjmk/8+f8A4+3+NH/COaT/AM+f/j7f40f8I5pP/Pn/AOPt/jR/wjmk/wDPn/4+3+NH/COaT/z5/wDj7f40f8I5pP8Az5/+Pt/jR/wjmk/8+f8A4+3+NH/COaT/AM+f/j7f40f8I5pOP+PMf99t/jWdpmg6XJcagr2m4JdbR8x6eWh9fetEeG9I/wCfMf8Afbf40f8ACOaT/wA+f/j7f40f8I5pP/Pn/wCPt/jR/wAI5pP/AD5/+Pt/jR/wjmk/8+f/AI+3+NJ/wjmk/wDPn/4+3+NL/wAI3pP/AD5j/vtv8ai/sXQSpbyI9oByfMbt171KPDukHkWYx/vt/jR/wjekn/lz/wDH2/xo/wCEb0n/AJ8//H2/xo/4RzSf+fP/AMfb/Gj/AIRzSf8Anz/8fb/Gj/hHNJ/58/8Ax9v8aP8AhHNJ/wCfP/x9v8azdf0HS4tLZktACZUH3mP8Q960z4c0nJP2Pr/tt/jSf8I5pP8Az5/+Pt/jR/wjmk/8+f8A4+3+NH/COaT/AM+f/j7f40f8I3pP/Pn/AOPt/jQfDmk/8+f/AI+3+NB8PaQoLNaKAOpLtj+dRDQdFLmP7MpcdR5jZ/Hml/sLQ8sPIT5Dhv3jcH0609fD2jyKGS0UqeQQ7c/rR/wjmkf8+f8A4+3+NL/wjekf8+f/AI+3+NH/AAjmk/8APn/4+3+NH/COaT/z5/8Aj7f40f8ACO6T/wA+f/j7f402Xw7pIjbFkPuno7f41znwm/5F3UFzkLqcgH02JXdUUUUUUVzHw4/5ELSf+uP9TXS1yXh64v31Cy84yF5LeVrxWJwsgc4Ht/hXWryozWXOP+Kmtf8Ar2f+YrVNY3iqR4tELxyNG4miwVYg/fGela6807tWX4aH/Egtf90/zrTI4rk724vV1+4GHLreWiW65ODET+8IHfjOfSurBPeq+pDGl3XX/Uv/ACNGmf8AILtf+uS/yq3RRSUtFFFFJRijHFITzXHTSy21tcS/65nc5R2x143ADAJP+eK6LRiF0qBVkEqqoVSPQcYPv61oD1oxRijFFLRRRRRSYo7VmaT/AMfOpf8AX2f/AEWlaYFLRSUtIRUU5K28hDFcKeR1HFcZO7x2BgO6QTNtfDHdHu9BgAnHPTtXXae7SWULmRJMoDuT7p47VaNApaSijFZXiT/kEn/rqn/oQrVxzRiiijFBFZmvXAttLkldiFBAK7AwfJxgg9qxiWh8TpBI6btkRVyeE27gRnjLfMAAPU+lQTTS28VzIC07vIf3bNzgnGRjAJNdBoZ26PbIJA6om1SPQcc+46H3rSA45pQKWkNAFMl5jYf7JrhvhD/yLupf9hSX/wBAjrvaKKKKKK4jwDq8Ft4I0yF4rolIsZjtZHB57ELg10Z160Ix5N9/4BS//E00a3YoSy214GbqRYy8/wDjtO/t60x/qb7/AMApf/iazZtatj4htXMN7/x7uP8Aj0l9f92tL+37T/njff8AgFL/APE019csZF2vbXjD0NjKf/ZaX+3rQf8ALC9H/blL/wDE0o161OB5F91/58pf/iazdA1u2j0a2Rob3O3+GzlI6+y1pf29aZ/1N9/4BS//ABNJ/bVkWDm3vC46N9hlyP8Ax2l/t+0/5433/gFL/wDE1X1DXLV9OuQsN7kxMObOX0/3abp2uWqabah4b7KxLyLOXnj/AHatf2/aD/ljff8AgFL/APE0f2/af88b7/wCl/8AiaP7ftP+eN9/4BS//E0f2/af88b7/wAApf8A4mj+37T/AJ433/gFL/8AE0f2/af88b7/AMApf/iaP7ftP+eN9/4BS/8AxNH9v2n/ADxvv/AKX/4mj+37T/njff8AgFL/APE0f2/af88b7/wCl/8AiaP7ftP+eN9/4BS//E0f2/af88b7/wAApf8A4mj+37T/AJ4X3/gFL/8AE1FJqumyBQ9ndsFIZQbGXgjofu09dcsl4W2vVBOeLKUf+y07+3rQf8sb7/wCl/8AiaP7ftP+eN9/4BS//E0f2/af88b7/wAApf8A4mj+37T/AJ433/gFL/8AE0f2/af88b7/AMApf/iaP+EgtP8Anjff+AUv/wATR/b9p/zxvv8AwCl/+Jo/t+0/5433/gFL/wDE0f2/af8APG+/8Apf/iaP7ftP+eN9/wCAUv8A8TR/b9p/zxvv/AKX/wCJo/4SC0/5433/AIBS/wDxNB160IB8m+/8Apf/AIms7TNbtFuNQYxXp3XeeLOU4+RPRa0f7ftP+eN9/wCAUv8A8TR/b9p/zxvv/AKX/wCJo/t+0/5433/gFL/8TR/b9p/zxvv/AACl/wDiaP7ftP8Anjff+AUv/wATR/b9p/zxvv8AwCl/+JpDrtmwwYL0g9vsUv8A8TUbatpzyI7Wd2TGcqTYy/Ken92pE1yyRQq296qjgAWUoA/8dpf7ftP+eN9/4BS//E0f8JBaf88b7/wCl/8AiaP7ftP+eN9/4BS//E0f2/af88b7/wAApf8A4mj+37T/AJ433/gFL/8AE0f2/af88b7/AMApf/iazdf1u1k0tgIb0YkTrZyD+Ieq1p/27agnMN9x/wBOUv8A8TSHX7T/AJ433/gFL/8AE0f2/af88b7/AMApf/iaP+EgtP8Anjff+AUv/wATR/b9p/zxvv8AwCl/+Jo/t+0/5433/gFL/wDE0yTWbCZdstteOvXDWMpH/oNMl1TTJlXzbK6fY+9c2MvDev3etEmq6bKiq9ndsqsGANjLwRyD92pF1yxXhba9UZzxYyj/ANlp39vWn/PG+/8AAKX/AOJo/t+0/wCeN9/4BS//ABNH9v2n/PG+/wDAKX/4mkOv2n/PG+/8Apf/AImlGv2n/PG+/wDAKX/4mmy67aGN8Q333T/y5S//ABNc18IyD4b1BgMBtSkOP+AR13dFFFFFFcx8OOfAWkn/AKY/1NdITjvxVS31O1ubl4IJgzrk49QDgkevPFXe1ZU4x4mtP+vZ/wCYrVOKr3t7BYQCad9iFgufcnAqxwaO1ZnhznQrU/7P9a0zxzmqz3sCXsVm0n76VS6Ljqo61Z4qrqY/4ld1/wBcX/kaNMH/ABK7TB/5ZL/KrVGKMUYoxRijFGKMUUYoxSHFZdxr1tb3UVu6SZk3c7Om0Zq/b3K3MKTJkK4yAwwcVNRiijFGKMUYoxRijFGKMUdqzNIH+k6nzn/TP/aaVp4oxRijFGKKRiAuaypPEFrFd/Z2SUjyjLu2ehAx+taUUoljWQdGGakxRijFFFFZfiPjST/11T/0IVqUYoxRijFGKhuLgW0TPjdjooPJPoKprrMBvfsu1s/IQw6fMGxn0+6abca7bW1xHCyyFnLAkL0wM/jV23uVuYkkTIVxnDDB/EVPRxRijFGKbL/qn/3TXD/CTnw7qJ/6icv/AKBHXd0UUUUUVy/w548BaTz/AMsf6mulPAH1rm9F0K6sbyz84/u7CCSEMD/rSzZB/L9a6UEAVlzn/ip7Tn/l3f8AmK1D6ZrM8RWk97pJgtlDSebG2M9gwJ/QVoryOuKdngc1l+G/+QDa89j/ADrUPfmsu4tJ5PEVldomYYYZFdvQnpWoT71W1M/8Su6yf+WL/wAjSaYf+JXac9Yl/lVsH3oyPWjI9aMj1oyPWjI9aMj1oyPWk3e9LketGR60ZHrScdSa5nUdPunn1KaKNiF2/Z9vUkqM4/GugtYVhto0ChMKNwA6nuamBHrRn3o3e9LketGR60ZHrRketGR60ZHrRketGR60E8daTPTms3SSPtWpYI/4+/8A2mlaf40ZHrRketJketLketJu560NhhjIwa5a5026IuJVjYsbvEYXqIyV/TrXTxxpDGqKFVVGAoGAKduHY0oI9aMj1oyPWjI9aMj1rK8SEf2Sef8Alqn/AKEK1cjPWkJ96UEetGR60ZHrSEj1rO1yKeXS5FtYklm3LtDY9eSM98VlzafcWuux3UNrI1mxRGCN85YEgMeny/MSep4HSjUtOuZJ9SmjjPAU24HXO3nb+Nb1nCsNpHGFCEKNwAxz3qfOO9AI9aXI9aQketAPvTZT+7fn+E1xHwk/5F3Uf+wnJ/6BHXd0UUUUUVxHgJdYPgnTPsr2Yi8r5RKG3YyeuK6Lb4g/v6f+T0mzxAR/rNP/ACejb4gx/rNP/J6z5Rrf/CQW2ZLHf5D4wr4xmtHb4g/v6f8Ak9G3xBn/AFmn/k9IE8Q/89NP/J6UDX8jL6fjPo9Z2hLrn9j2wilsdm3jcr561oka/wD39P8AyekC+ICP9Zp/5PS7fEH9/T/yeq+oLr39nXO97Db5TZwH6YNJpw17+zrXbJYbfKXGVcdqs7fEH9/T/wAno2+IP7+n/k9G3xB/f0/8no2+IP7+n/k9G3xB/f0/8no2+IP7+n/k9G3xB/f0/wDJ6NviD+/p/wCT0bfEH9/T/wAno2+IP7+n/k9G3xB/f0/8no26/wD39P8Ayejb4g/v6f8Ak9IV8Qf89NP/AO+XoC+IP+emn/8AfL0oGv8A/PTT/wAno2+IP7+n/k9G3xB/f0/8no2+IP7+n/k9G3xB/f0/8no2+IP7+n/k9G3xB/f0/wDJ6NviD+/p/wCT0bfEH9/T/wAno2+IP7+n/k9G3xB/f0/8no2+IP7+n/k9G3xB/f0/8nrP00a35+obJbHd9q+bKuOdif0rQC+IP7+n/k9G3xB/f0/8no2+IP7+n/k9G3xB/f0/8no2+IP7+n/k9G3xB/f0/wDJ6Qr4g/56af8A98vRjxB2k0/8no2+IO76f+T0u3X/AO/p/wCT0bfEH9/T/wAno2+IP7+n/k9G3xB/f0/8no2+IP7+n/k9G3xB/f0/8nrN15dc/sw+ZJYBfMTGFc87q0iuv54k0/8AJ6NviD+/p/5PRt8Qf39P/J6NviD+/p/5PRt8Qf39P/J6NviD+/p/5PRt1/u+n/TD00DX+gk0/wDJ80u3X8/6zTx7Yejb4g/56af+T0bfEH9/T/yel2+IP7+n/k9G3xB/f0/8no2+IP7+n/k9G3xB/f0/8npsi6/5bZewxtPQPXN/CQY8N34JBP8AaUmceuyOu7oooooorl/hx/yIWk/9cf6munFZ9nfy3GpX9q8YVbWRFVgfvBlDZ/Wr/Wsq4H/FT2nA/wCPaT+YrWrN1PUXtru0tII1knui+0P0AVSxz+WPxqbSr5NT0y1vohhLiJZAPQEZq52rK8N/8gG24x8v9a1O3SsO48Q+TqcsCxqYoLiC3kbvukOBj6VuA5FVtTGdLusj/li/8jSaYP8AiV2ntEv8qt0UUc0UUc0c0c0c0UGkJwOlYA1i6C3siwZSJxtWTAxzjbwevc/lW5F5ioPNKs/cqMCpBRk+lHNHNFFHNHNHNFFHOKPQ1l6Tj7VqfGc3mf8AyGlanPpRRRzRzRTJH2RFyCcdh1NYVrrF7LCZBEu17gRKZMcbjjAA7D175rcjLFFL4Ld9owKkooo5oyaOayvEfGknH/PVP/QhWr3oyfSiijNIc+lVdRuWt7R3QMD03KobZ7kVkw6xcPq4gyojPlDYwxncHzjjPYH6ClfWLr/TpUhO23I+WTA2npjj1657Vtx+YEAlKlu5UYBqUUDNLSHNAz6UyYfu3/3TXEfCMg+HdRx/0E5f/QI67uiiiiiiuX+HBH/CBaTjB/c+vua6YkYz/WqltYJb3t3drIS12ys4Pbau0foKuZ9Kypz/AMVLanqPs7/zFamQap6hpsd+8Mu8xTQFjHIO25Sp/Qmp7S2hsbSK1t1CxQoERc9ABgVKGHH+NZnhw40K1H+z/WtMnPArMm0K1nvjdEkb5I5nQdHdPun8K0+PSq2pkf2XdD1hf+RpNMI/su17ful/lVvNGfSjPtRn2ozRmjPtRn2oz7UZ9eKMijI9aQmss6Gpt5oftBAmfe2EAHXNaESui4eTzGz97GP0qXI9aNw9aMijNGfajPtRn2oz7UZ9qM+1GfajI70E8e1ZekkfatS4wPtfHv8Au0rUzRmjNGRRmjI9aa4DIVBHPFZg0YJBHAtyyrHIJFAQYBBzxWjEjJGod97Dq3TNSZHajNGaTJ9KMn0pcisrxGQdJPf96n/oQrVz+VJkdsUufajNGR3pNw9R+dU9TsBqdi9q0hiDsDuHPQ5qvc6OZdTi1GK6KXCYVtygqY85wB2Pv9fWhtEBgmhFyVE7Fmwox1zWhErouJH8xv72MVLketG4eooz6UE+1Jn1pspAiYnptNcR8JBjw9qX/YUl/wDQI67uiiiiiiuJ8BaPa3XgnS55TOXaLJ2zMO59DXQ/8I9YH/n5/wDAh/8AGk/sDTz3uOP+nh/8aX+wLDH/AC8f+BD/AONZs2iWQ8Q2sY8/Bt3P+vfPX61pHw9Y463H/gQ/+NH/AAj9gOpuP/Ah/wDGk/4R+wPP+k/+BD/40o8PWAwf9I6/8/D/AONZ2gaHZS6NbOfPBK84nf1+taJ8P2Hc3P8A4EP/AI0n9gWHTNz/AOBD/wCNL/wj1iO9x/4EP/jVfUNBsF0+4f8A0jKxMf8AXv6fWk0/QLF9NtmP2jJiU8Tv6fWrP/CPWPrcf+BD/wCNH/CP2Prcf+BD/wCNJ/wj9j63P/gQ/wDjS/8ACP2Prc/+BD/40v8Awj9j63P/AIEP/jR/wj9j63P/AIEP/jSf8I/Y+tz/AOBD/wCNH/CP2Prc/wDgQ/8AjR/wj9j63P8A4EP/AI0f8I/Ydzc/+BD/AONNbQ9NGAzzrnpm5cf1oTQtNdQUadlPQi4cj+dL/YGn+tx/4EP/AI006HpmcGWfPPH2l+3XvTl0HTioZWnIYZGLh+f1o/sDT8Z/0n/wIf8AxoXQdOdQyNOwPQi4cj+dKPD9gen2n/v+/wDjR/wj9j63P/gQ/wDjR/wj9j63P/gQ/wDjR/wj9j63P/gQ/wDjS/8ACP2Prc/+BD/40n/CP2Prc/8AgQ/+NH/CP2Prc/8AgQ/+NH/CP2Prc/8AgQ/+NH/CP2Prc/8AgQ/+NH/CPWH/AE8f+BD/AONH/CPWBxzc/wDgQ/8AjWfpeh2b3GoKwnGy7wMTv08tPf3rQ/4R+x9bn/wIf/Gj/hH7H1uf/Ah/8aX/AIR+x9bj/wACH/xpP+EfsO/2n/wIf/GmPoemJ96Sdcc83Lj+tOXQdPYZU3BB6EXD4/nR/YFhnGbjP/Xw/wDjTDo2lAFmlmAA3ZNy/T160/8AsHTwcbrjPp9of/Gg6Bp473P/AIEP/jQuhacy5VrggjIIuHwf1p3/AAj9j63H/gQ/+NH/AAj1j63H/gQ/+NJ/wj9j63P/AIEP/jR/wj9h/wBPH/gQ/wDjWbr+hWUemFl88nzU6zv/AHh71pnQLHJ5uOf+nh/8aT/hH7D/AKeP/Ah/8aP+EfsfW5/8CH/xpDoFgOv2n/wIf/GmnRNLG0mWb5un+ktz+tK+h6auN7zrk4Gblxn9aE0PTXUMjzsp6EXLn+tKdA08cE3H/gQ/P60h0PTF6yTj/t5f/GhdD00qGDzkN0P2h+f1pToGn4yTcf8AgQ/+NImhaay7ladl9RcOR/OnDw/YdvtP/gQ/+NL/AMI/Y+tz/wCBD/40n/CP2Prc/wDgQ/8AjSSeH7EIxzcZCn/l4f8AxrmvhGf+Kc1Edl1OUD6bI67uiiiiiiuX+HH/ACIWkj/pj/U109Y2mSs2u61F5jOqTRbQTnbmME4/GthTxWXcH/iprX/r2f8AnWrnrWFr0zrf6dFLI0dpIZfNZTjkRsVGfrz9QKuaBNc3GhWM15uE8kCM+euSOc1o9qy/Df8AyAbX/d/rWm3INY13My+LNPj81gr28uY88EjGDWyTiq+pH/iV3X/XF/5Gk0w/8Su1/wCuS/yq0DmjNGaM0UUZpaSkJwM1zur36R6mgcKfshAIYj5t6nsfTFW/DtwjWklsgAEDLggg53KH7f72PwqwjSDWZRKcKIV8kZ4J53f+y1z96XltXlRiSt6Yi6oVBOdrHGep6VrXW+DSYVi3rPHIiwgjk/NgjA7Yz9BV7UWddOuGVyjLGTkDOP1FYVpHGo0+KWbCPv3oJNqqABtUbT2+vNdPGRsGDkY4NKetLmiiiiijNGaKzNIP+k6ln/n7P/otK0s80uaWmtyMVy+q36DUZnKj92j2xBAPOFYnr7gVr6NOJNPCIBi3cw8HO7b3pIjI+o3qtIVcbRD3AXaOfc7s/kK5+QfabewkiGY55WTCoQrLz2PQEjkVuXjSJb2JQuLnzFChuGI77ql1xpF0qfyzgEAEcfMCcEZJGMj3rOtFi+2WazXG8C3LH95tXfu9AcfhXRA9KdSZozWV4k/5BJ/66p/6EK1e9GaKiuMmJsMU4PzAZxXG3k/+iWF18pimdgiggH58EMRj5emeT3rT1K+EV5bhwHe1RSckHfvVh+mKt+Hpla2e2jA2wFTkEc7xu7dOtWdz/wBtFZWIQRDyR2LZO7P4bfzNYF4zS2ssqMXZLzyvMRSu4k7W4PQ/StS6DwaGBlxNGyiLjDZ3YAx6dvpV+/eVNNldX8uRYydwwdpx7kD9awrSONRp6Sy7VffuTeFVQAMAbT/Uk11CEbAQQR2xS0ZpkpxG3+6a4f4Rf8i7qWf+gpL/AOgR13lFFFFFFcR4C1qztfBWlwSmQOsPO2MkdTXQ/wDCR6eB96b/AL9NTU1/TFYuPMDN1PkkZp3/AAkenkfem/78tWbLr1g3iG2kDS4W2f8A5ZNnrWn/AMJHp+fvTf8AfpqZJr2mTDa4kYdcNCaVfEWnbcAzDH/TI0o8RaeSBumyT/zxas7QNesI9FtkLS5C9om9a0W8RaeOrTf9+mph1/TGdZCJS69D5JyKf/wken/3pv8Av01V9Q8Q6e+n3KBpcmF8fum9DSad4gsF062UtLkRKOIm9KsjxHp/96b/AL9NR/wkenf3pv8Av03+FH/CR6d/em/79NR/wkenf3pv+/TUf8JHp396b/v01H/CR6d/em/79NR/wkenf3pv+/TUv/CR6d/em/79N/hSf8JHp396b/v01J/wkenj+Kb/AL8tUba1pEjlnikZmwCxhPOOlOTXNKiz5ayoT6Qn0xSnxDppIJMpI6HyjxUX9saNtKeXJsLmQjyTjdnOfzqVvEGmMQx83cOhMR4obX9MkQq3msCMEeU3NMbWNHJyY3OP+mJqUeINOVQAZgB28pqP+Ej07+9N/wB+mo/4SPT/AO9N/wB+mo/4SPTvWb/v01L/AMJHp396b/v01H/CR6d/em/79N/hSf8ACR6d/em/79NR/wAJHp396b/v01H/AAkenf3pv+/TUf8ACR6d/em/79NR/wAJFp4x803/AH6as/TNesUuNQZmlO67yMRH/nmlaH/CRacP4pv+/TUf8JHp396b/v01B8R6d/em/wC/TUDxHp+fvTf9+WqF9X0ZiS0Tksck+Qc5/KpI9e0uMEJ5i5OSBCRk0HxBpgYNiXPr5JqJdY0ZEjRUkCRElAIWwp9vzNS/8JBppbcfNLDofJP6UP4g0yRdr+aw64MLVGda0gtuMb7umfINTf8ACR6f/em/78tS/wDCR6d/em/79N/hSf8ACR6d/em/79NR/wAJHp396b/v01Zuv69YS6YVDS5EqHmJv7wrTPiHTwxG6bj/AKZNSf8ACR6d/em/79NS/wDCR6f/AHpv+/TU1vEOnMCC02PTymqA6rorWxtjC5hK7ShgOCPSgapoiIFWBgoVVA8g9B0H4ZNSx69pcWdiyID1xCe1KfEOmlskzEjp+5aov7Y0fb5flvtL+ZjyTjdnOfrUp8Qaa2CfNyDkHyTxS/2/prIVPmlTwQYjUTazozcGJyP+uBqUeItOxgGYD08lqX/hI9O/vTf9+mo/4SPTv703/fpqbJ4hsGVgGmOVxjymrnPhJt/4RzUCvRtTkP8A45HXd0UUUUUVy/w5z/wgWk4P/LHufc10/brVeG7huZ54Y5AZLdgsgGRtJGR+lT8+orLnJ/4SW1GeDbvnn3Fah4qC8vILGHzrmQJHuC5OepOB+tTqcjk0vOKy/DuTodsQf4ecn3rT59RVWTUbSG7Fq86iViABz1PQexPardVdSJGl3RH/ADxf+RpNMJ/sy0PrEuc/SrfNHPtRz7UnPtS8+1HPtRz7Uc+1Jz7Uc+1HNHNB6VljXbUvKiBnaKQoQO+OpzWhBOlzH5kedpJAyMdKkGTRyKOaOfal59qOfajn2o59qOfajn2o59qTn2o5xWbpJP2nUhnpd+v/AEzStPmk59qXn2pOfaj5vagg0hJHcVlweIbS5hSSMMctgjptGcZ+laUMqzwJKmdrgEZBH6U/n8KXmjn2pOfal59qTmsvxHkaSSDz5qd/9oVqc59qOaXn2o5owaQZ9qOe1U7/AFKGwVTJltzBflPTJxmk0/VYdRB8oMpGeG6ketXeaOaXn2pOfag59qOabL/q3H+ya4j4Sf8AIvalz/zFJf8A0COu7oooooormPhx/wAiFpP/AFx/qa6UAisywtZotX1SeRNqXEkZQ5znagU/qK1AMDFZc/8AyMtr/wBe7/zFabAnpWZ4htJ7zSjBbrukMsbAZA6MCf5VpKOOlO7Vl+Gx/wASC1/3T/OtQjiuZu9Eu5NYnkQZiuLu2uN5b7giOWGOv0rpACMAVX1L/kF3X/XF/wCRpNM/5Bdr/wBcl/lVuijmjmjmjmjmjmjBo5oo7UjA4rkxp15aC9e2SZXmunZn28uWPBA9PeuhsY5ktgk0flsrMMF92Rng5+nara0tGDRg0UUUc0c0c0c0EGgZxWZpP/H1qX/X3/7TStOiijmiimsDtwpwT3x0rkbLTL2ytYYLeKSJDMQwbJzlssx44XGa6ayEv2SEzRskm35lZtxB+verXaiijmjmjmsrxJ/yCT/11T/0IVq0YNFFHNGDR9Kwdf0+e+khit0J3B0kJGAAwxnPfHpT9DtJLS5u45YmU5TY3VSoGOD9e1bdJg0tHNBoApsn+rb6GuG+Ef8AyLupf9hSX/0COu8ooooooriPAR1b/hCtL+yC08ryvl8wNuxn2NdF/wAT8dBYfk/+NBPiDsLD8n/xpP8AioPSw/J/8azpm1r+37bctj5nkPj7+MZ+taROv9vsH5P/AI0gPiD0sPyf/GlJ1/8A6cPyf/GkB14YyLAjPYP/AI1n6CdaOjW3krY+Xt4yH9frWj/xP8/8uH5P/jRnX8dLD8n/AMaTOv8AcWH5P/jUGof27/Z9xuWwKGJs4D+h96TTzrn9nW2xbHb5S4yH9PrVn/if/wDTh+T/AONH/E//AOnD8n/xo/4n/wD04fk/+NH/ABP/APpw/J/8aP8Aif8A/Th+T/40f8T/AP6cPyf/ABo/4n//AE4fk/8AjR/xP/8Apw/J/wDGj/if/wDTh+T/AONH/E//AOnD8n/xo/4n/wD04fk/+NH/ABP/APpw/J/8aT/if/8ATh+T/wCNLnX/AE0/8n/xoz4g9LD8n/xoP9v/APTh+T/40n/E/wDSw/J/8aX/AIn/AP04fk/+NH/E/wD+nD8n/wAaP+J//wBOH5P/AI0f8T//AKcPyf8Axo/4n/8A04fk/wDjR/xP/wDpw/J/8aP+J/8A9OH5P/jR/wAT/wD6cPyf/Gj/AIn/AP04fk/+NJ/xP/8Apw/J/wDGg/2/jpYfk/8AjVDTDrRn1AxrY5+1fPnf18tPf0xWgP7f/wCnD8n/AMaP+J//ANOH5P8A40f8T/8A6cPyf/Gj/if/APTh+T/40f8AE/8A+nD8n/xo/wCJ/wD9OH5P/jR/xP8A/pw/J/8AGjOv56WH5P8A40Z8Qelh+T/40f8AE/8A+nD8n/xo/wCJ/wD9OH5P/jR/xP8A/pw/J/8AGj/if/8ATh+T/wCNH/E//wCnD8n/AMaP+J//ANOH5P8A41ma+da/swiVbHHmJ03/AN4e9aedfyeLD8n/AMaP+J//ANOH5P8A40f8T/8A6cPyf/Gj/iff9OH5P/jR/wAT/wD6cPyf/Gkxr/8A04fk/wDjS/8AFQf9OH5P/jRnX8dLD8n/AMaM6/6WH5P/AI0f8T//AKcPyf8Axoxr3/Th+T/40f8AE/8A+nD8n/xo/wCJ/wD9OH5P/jR/xP8A/pw/J/8AGj/if/8ATh+T/wCNMkOvbGytgRtOcB8/zrnPhIQfDuo46/2nLn67I67uiiiiiiuY+HP/ACIWk/8AXH+prpu1Z9nfyXOo39q6BBaSIikNncCgb0960MVlT4/4Sa1/693/AJitU8VR1i/fTLD7SkYkIkRcEkfeYD+tXV/HFLxiszw5zoNr/u/1rSNUZr9odatrDZlZoncuW5GPar5PaqupgDS7v/ri/wDI0aWB/Zlqf+mS/wAqt0UlFLRRRRRSUUE4rHbUpnuZmV4UitmdGjd8M5Hf2FX7G5N7YwXJXb5qhtuc4zVmloooooooooopMZFZmkf8fOp/9ff/ALTStMUtFFJRQelYQ1mf7PcX5MQhjjYCEyYbcCev5frWxA/mxK5BUsAduc4qWloopKKy/EfGkn/rqn/oQrUoopaSiq17cG2t3kXaGH3dx4Y+lZNpq129zEs7xRpMQ2X6p9393/vEk/kanGoyyXUxV4o4rZ3Rkd8FyOh+lXtPuvttlDcldvmruwGzj8atClopKKbL/q2/3TXDfCLnw7qX/YUl/wDQI67yiiiiiiuX+HH/ACIWk/8AXH+prp+1U7XTltr68uhIzG7dWZSOF2qFGPwFW/zrLn/5Ga04P/Hu/wDMVqdexqpqtgup2RtWkeIFlbcoBPBB7/SrajA70v51leHuNCtRg9P61qdc8GqUumrNqttqBkdXt0ZAmOCGq971V1I/8Sy6yD/qW/lSaZxpdpwf9Sv8qt0Z9jSfgaPwNL+Bo/A0fgaT8DR+Bpc+xo60du9JjjvWfFpjxC5xcECeR3+4Dt3duas2Vr9jsYbbcW8pAu7GM471Px70v50Z9jSfgaPwNL+Boz7GjPsaT8DS59jRn2NH50enWszSc/atT4OPthx/37StL8DR+Bpc+xo/A0Z+tH50n4GspdHkXTJbH7SSsgcZ2A/ez/jWlDH5UKRjJ2ADOOtSfnR+dGfY0n4Gj8DRx71l+I+dJPB/1qdP94Vq/nSfgaM+xpc+xo/OkPPrUN1bm4j2rtz1UsM7T6j3rNj0WW3mRrecBAiI+9Mk7T94e5yasQaZJA1yVuSBcStJjYDjNWbG1+xWUNsWL+Uu3djrU4AHrS/nRn2NJn2NH4Gmy58t+uNprifhKAPDuo4/6Ccn/oCV3VFFFFFFcjbfDy2srdLe18Qa7BDGMIiXSAKP++Kk/wCEFX/oZvEH/gWn/wARS/8ACCqP+Zm8Qf8AgWn/AMRR/wAIKv8A0M3iD/wLT/4im/8ACAw+YJP+Ej17eBgN9qTOP++Kd/wgy5/5GbX/APwLT/4ij/hBVP8AzMuv/wDgWv8A8RR/wgq/9DN4g/8AAtP/AIigeBlBB/4SbxBx/wBPaf8AxFNTwDFEipF4j15FUYAW6T/4il/4QVf+hm8Qf+Ba/wDxFA8CIP8AmZdf/wDAtP8A4il/4QZf+hm8Qf8AgWn/AMRSN4DjcFW8S6+yngg3SYI/74oXwHGgCp4k19QBgAXa8D/vil/4QZf+hm8Qf+Baf/EUf8IKv/QzeIP/AALT/wCIo/4QVf8AoZvEH/gWn/xFH/CCr/0M3iD/AMC0/wDiKP8AhBV/6GbxB/4Fp/8AEUf8IKv/AEM3iD/wLT/4ij/hBV/6GbxB/wCBaf8AxFH/AAgq/wDQzeIP/AtP/iKP+EFX/oZvEH/gWn/xFH/CCr/0M3iD/wAC0/8AiKP+EFX/AKGbxB/4Fp/8RR/wgq/9DN4g/wDAtP8A4ij/AIQVf+hm8Qf+Baf/ABFH/CCr/wBDN4g/8C1/+Io/4QVR/wAzNr//AIFp/wDEUf8ACCr/ANDN4g/8C0/+Io/4QVf+hm8Qf+Baf/EUf8IKv/QzeIP/AALT/wCIo/4QVf8AoZvEH/gWn/xFH/CCr/0M3iD/AMC0/wDiKP8AhBl/6GbxB/4Fp/8AEUf8IMv/AEM3iD/wLT/4ij/hBl/6GbxB/wCBaf8AxFH/AAgq/wDQzeIP/AtP/iKP+EFX/oZvEH/gWn/xFH/CCr/0M3iD/wAC0/8AiKP+EGX/AKGbxB/4Fp/8RR/wgq/9DNr/AP4Fp/8AEUieAoYyxTxFrqlzuYi6Xk9M/c9hS/8ACCr/ANDN4g/8C0/+Io/4QVf+hm8Qf+Baf/EUf8IKv/QzeIP/AALT/wCIo/4QZf8AoZvEH/gWn/xFH/CDL/0M3iD/AMC0/wDiKP8AhBV/6GbxB/4Fp/8AEUf8IKv/AEM3iD/wLT/4ij/hBV/6GbxB/wCBaf8AxFH/AAgy4x/wk3iD/wAC0/8AiKP+EFX/AKGbxB/4Fp/8RR/wgq/9DN4g/wDAtP8A4ij/AIQZf+hm8Qf+Baf/ABFH/CDL/wBDNr//AIFp/wDEUf8ACCr/ANDN4g/8C0/+IpP+EFX/AKGbxB/4Fp/8RTZfAEMybJfEevOvBwbpO3/AKf8A8IMv/Qza/wD+Baf/ABFH/CCr/wBDN4g/8C0/+Io/4QVf+hm8Qf8AgWn/AMRSf8IKv/QzeIP/AALT/wCIpf8AhBV/6GbxB/4Fp/8AEUf8IKv/AEM3iD/wLT/4ij/hBR/0M/iD/wAC0/8AiKP+EGX/AKGXX/8AwLT/AOIo/wCEGX/oZvEH/gWv/wARR/wgy/8AQzeIP/AtP/iKP+EFX/oZvEH/AIFp/wDEUf8ACCr/ANDN4g/8C0/+Io/4QVf+hm8Qf+Baf/EUf8IKv/QzeIP/AALT/wCIo/4QVf8AoZvEH/gWn/xFIfAqkYPibxAf+3tP/iK0vDXhqy8LafLZWMlxJHLMZmadwzbiADyAOPlFbFFFFFFFFFFFFFFFFFFFFFFFFFFFFFFFFFFFFFFFFFFFFFFFFFFFFFFFFFFFFFFFFFFFFFFFFFFFFFFFFFFFFFFFFFFFFFFFFFFFFFFFFFFFFFFFFFFFFFFFFFFFFFFFFFFFFFFFFFFFFFFFFFFFFFFFFFFFFFFFFFFFFFFFFFFFFFFFVry/tbDyftMvl/aJlhj+Unc7dBx9KH1C1j1KLTmlxdSxNKke08opAJz04LD86s1Wub+2tLi1gmcrJdyGKEBSdzBSxHHT5VY8+lT7137Nw3EZ255x606iiioL28h0+wuL25YrBbRNLIwGSFUZPHfgVJDKk8Ec0ZJSRQykgg4IyODyKbPc29soa4njiB6GRwo/Ws+XxPoURK/2rayOvWOGQSP/AN8rk/pV2xvYdQtEuoBKI3ztEsTRNwccqwBH4irFFVbvUrSxlhiuJCsk5IiVUZi2Bk9Ae1Qx63YTFxFJI5jba4WCQ7W9DxweRUtnqlpfz3EFvIzSWxUSq0bIV3DI6gdqt0UUVWu9QtrKa1iuHKveTeTCApO59rNjjpwrHJ44qzVa5v7a0ntYJnKyXchjhUKTuYKWPToMKeTxSS6jaQ6lBpzy4uriN5I49pOVXG456D7w61aqrdaja2M1tFcyeWbqTyomIO1nxkLnsTg4z1xVqqs2o2sGoW1hJLi5uldoowpOQuNx46AZHJ9aJNRtY9QgsGkzcXCO8aqpPypgMSRwOWA571LPcw21tLcyuFihVnduuAOvT6VWj1i0ljWSNbp0cBlZbSUgg9D92lh1eznvxYq0q3DRGUJJA6ZQEAnLADqw/OpDf2w1JdOLn7S0JmC7TjYCATnp1I4ok1C1ivreyeT9/cq7RKFJDBMbuRwMbh19as0UUUUyWaKFQ0siRgnALMBUX2+z/wCfuD/v4KYdV05biG3N9b+dOxWKPzV3OQMkAZ54qb7TB9qNr50fnhBIYtw3Bc43Y64yCM0y+vrXTbVrq8mEMKsqlyDgFmCjp6kgVOSFBJIAHJJqrb6pZXWmRalHcKtpMiuksmUBU9D82MZyKZDrek3E0MMGpWs0lxnyljmVi+Bk4wfQUt/rGm6WAb6+gty33VdwGb6DqfwpJtb0m3SV5tTtEEIJkzOvy4655q2ssbwiZJFaNl3BwcgjrnPpVW61extIrSWWcGO9mWGB4wXDswJXG3PBx16VdqrPqVhaziC5vYIZWXeEkkCkrnGRn3qF9f0aOF5W1WyCRgl289Ttx171dimjnhSaKRXjkUMjqchgehBqC91G105YWu5PLSaZYUYgkb2OFBPbJ4yeMketWCyhgpYbiCQM8n/OaWq2najaatYx31jL51vLko+0gNg471aqrdaja2M1tFcyeWbqTyomIO1nxkLnsTg4z1xVqiio5poreJpp5UijUZZ3YKB9SaqnWtJBUHU7MFjgZnXn9aWDV9Our02dvewzTiPzCkbhvlzjORxT7jUbS0ura2uJhFJdMVh3A4dgM7c9M45x1ODjoaP7T08f8v1t/wB/V/xqW3uILu3S4tpo5oZF3JJGwZWHqCOtS0UUUUUUUUUVzXi67t7e70FbiQRxjUfOkc9ERIpCWPoASuT0GeahurkD4nWIBBVdOaJvYyMWX/0nNdDqHlm0MctqblJDtKeWJB6gkenFcRq6xrr+hWpsrXzluHldF00DCeVIgLDeeC7qACRyRjOMVtaUbaHxFJGtjFJclAHeG0iiNopBIDfMXw5HvyOwrGGqWOsadq99qVtfSRRXksbXdsozYxxPtUqScg4XedgJ+bntXZTaxZwOFYXL5UMGhtJZFIPTDKpB/Oqt8kuuwWv2KVooI7tWuo7iCSPzogDlMMAeSVPocEHuKp6QFt/EOszWaGPSYo4k2RqShuF3+YUUexQHA5YHuDWH4ruVs9N1lppLwaXNpsvlyTtcoY5yNqod3BVt3GehBHQgVYieKea3umj1OTTLKFSIkiuZWnn4wy+gTGPck9gDXRaxLOlubsNHb2sCea87zeWwGDkEGNsDHPrXM+HZ5Wtp9Wl1K2SbU5PtBDX6hlj2gRqf3Z5CAZ9ya6Xw/Jcy2kbh4Z9PkiV7e4F080kmcnLFkHGCMVr0Vz+vM6+IdCaPZvDXBXecLnyj1PpXMObe2u/Ia/uk0Y3IuLrVkmkVZJOGaP5ThVZufM+6B8gOa1H1yGyXxdrdlNFcpBbxyxPGwdHIh45HUZqTTJNNS90WaaK+huJFZYr5wFS+dkJYOc7jnBZQwA4GO1bra7ZKxUx32QccWE5/9kqHWbuS409rayeSOSeBpGkwVaGPHJweQx6DPIOT/CayYr25svhRp13bTmKdNNtSsmASCVTPXI796d4gjI1Tw7/xN5nzqZ5PlfL/AKPNzwn4c+tXI5rhPGVraDU5ri3bT5pWjby8bhJEAflUdmNZWqXMQvPEs0+ptBcWUZFmv2jYUDW6Mdo92FW9GtjPqgnutQni1GSyjESfIWNuv8WSpyS5JbHTKA9sv0SG913wDaRzalKs13HmW4YBnKlyWA6Yyvy57U/ULcWUUcl40fzyhIU+0zszyc7Qo3feOKfo+lXBu4dS1hRBeJvS3gju5HVVbk7txwXwBnGQMcVn+JYLN9TSyYJdapqQOGP3rS2TJLRgAnOegwdzHkYGBDrNro9vpc0qWMrSXc0FvEy2TxfZ1eVVBT5CAQXLnj5jx0wBtXzWo8H6p9ks2s4UtrgeW0HlfwtltuBweufeuZ1HVjo+jPHbTuLiy06KfZNPJtOUOAP36k8qei8cVq+GfLk8S3bS3U13dR2iYdmVkjR3PyqRK/JKZOfQfjXurrU5fGT3aLJam1tpPLiKBjcxLKgK47bju2kYP3fcFtnpN7ouraBaG8tBIlnePJJ5BxvZomcn5xnLE88Vd1u4uJLPQNMa/W5GqXixz3MI2CaJUaQ4wTgMFAODyCfWpbKT+yvGd7pNrF/okunpeR28eAEkDsjBRwAGG3jgZBPc1c0zxLFqrQpBY3Su5kEqOUDWxRtpEgDcHPTGc1zoV9U8MeIPELORfxTXTWU2fmt1gLKir6AlMsO+45zWnqFjo+qaZH4m1iBp0FgjrDvYBcgscAEZZiwH4D1q7ZaZHoXhZolt4vMhje4KH5kEhBYgZ5wDwPYVSW/vhb+H7h1sCuqTRrKi2pBUNC8hwd5/u46VZ0KGIa94jIiQbb+LHyjj/RoaFRJPH92rqGVtIiBBGQR5snFZusWEtj4PTTnvjeh9Vt47dmOSqG7TahPcqBjJ9K1fGclwnhqdbdgglaOKViCSI3cK20Dkkg4/H1rk7LVH046nc24htUe3ui7LayIY1t5fJQRqx2kkZO3+82CeMVreHpbO61ezggu7eG20lJLW0tAQ0rkIgLlgxBG3PQdc8nFZviOVoPGFpZPK9v8AanmlQLIkTBNqqQJAcje3TPPLY5xi7rUt/d31vG9myWlxF511YSShWuhFt3YYjCqNyg7yu8DHygfN1dvd3F9pq3EFq9rI+Csd2BkD32E9veuT1OzOl6ro9iktrBAl5PqcuQ2yIBWBJyflXfKvoBW5d6pqVvq2jWqvZyRahO6uyoxOxYnfIO71Cj8az/EVlcT+IGlhnFtnTjElws6I0UvmBlIBPI45HQjI71hSt9s0bWpJJ4o1VtQjiRr1I03yMy7n5wQBgDPHJPpjp/F6lPh7qSnG5bEjg98dqx9Z1KzgsNdkj07Q1k0mRtkNxErNNsjWQELxg5OB7itPQ7fTI9WWSTUdKvryVC1stvaRxNCuPm2kEtyCMgk9PrT9WuFk8TnTbzUmtbKbTizJ5ioGbftPJ9j2purXVlaeH71rTxBseG1kMSpPEMEIdoAA+nStB7KfVPDENoL6SJ54IxLPjc7LgbvTBYZGe2c1S1C3FlFHJeNH88oSFPtM7M8nO0KN33jin6PpVwbuHUtYUQXib0t4I7uR1VW5O7ccF8AZxkDHFdDRUNxLJCgaK2kuCTgqhUED1+YiuT8Ua0bHWtCnuNPuQtvNLOVVoySPLMWR83rMv510a3eovfQxjSylqwbzZXnXch7YUZyOueRj3rM02GO48Xa55yiUQvbPEH5EbeWfmUHoeTyKb4U1FdX0m7nkmilY3U5jjCKpjh3sIgQB3UAgnrmrHgj/AJEXQv8AsHwf+gCtyiiiiiiiiiisO4gim1GfU9RiJt4oWtLeAoWaQMR5h29SW2qoHopPRqzdP8JT23h64VHMWoyCJrYyvv8AIEIHkIzDrjHzY6l2xxWzYahf6tpMc8dm+m3LEpLHeRkmJh1wBjeM9DkAjn2rndFtjLf+IdMmhvrqeW+Aa/lUIUQRRlCHwBlW3FVUHBxwAc1p6NcXml3Y0i70SbzJGLHUbYBoZ/V3JO5W9Qc+xNQJpGpWGlaxottaCaK9lne1n3qEjE2SQ4Jz8rM3QHIx3ro7C1Wx0+2s1YstvEsQY9SFAGf0ql4gfUxZJHplo9w0kgWby5lidY8HO0t0J4GeoySORUWkXGpKzpdaONLsbaECKNZVlZzznAToAAOO+ayfFdhcaxoWqX19EYrW0sbh7S1PLNJ5bDzXHqAflXtnJ5wFtGPWNHSC80q0GoWs6IbixLiOSN8DLxluOf4lOOeQck509TslvrUy3W7yo4zItucY3gZBbBO7HYdAeeSARzWgvIvhTTVNpdZFjEOLi8H8A7BMD8OK3/B6svgrQlZSrDTrcEEYIPlrTfDVrqtumoNql9LdLNeu9r5qBWSLjAIHTnOPbHTOBt1zviKNJNf0HzLQ3UayTlkCBv8AlmcHB464qC7ttQOvWupwWQnWMlHE9uFlWNvvBXVsED+6yn6g81HFpS6xJ4o057eS0gvIYoE3JjaDDtyAOOOKsNYapqkWjW19aC2bT7iOe4mEiskhRSAI8HPLEH5gMDNdLWXq2mxywXU8UFxLcyxbNsNw0e7g4z8wGBk/maq+HtGCeD7LSdUs3Bit4op4ppfMDMiqDghj8uV4HH0qHxDYW/8Aavh0JZx4/tI79sQ6fZ5uvHTOK249OsorsXcdrEk4jMYkVQDtJBI/MD8q5q8W8B8XRx6ddTi4XEbRhcMfsyjjJBPPoDWjdXNpo2m2WqXtjcSS21t5QeGEyPHuC5XaOeSq9u3ajw1pCx+D9IstTtI3lgtoy8cqBtj7eeD3GSKzdfg0g63oumxacguGvhIVFkQrRrG+479u0gZGee4rol0bS1njuF020E0JzHIIF3IfUHGRWZc2kVv4x0uSKM75YbppHOSWP7rGT+gHbtVLXIbfTIYtPjluHe/1m1ngiMTMkeJ4ndVYDAHyO+Ce5rX8SwyXmizabCCZNQH2bI/hVuHb2wm4/XA71z91o+o6vaazZW8P/HzPNbiaa7kiWKMIoXCKCHGS3HA4qa1N7F42t7SUTLtWR2KSzujRbBt3F/lOHZsY9egrRuH8nxsszRyMiaW+SiFj/rV4wO9UrqwsH8R6bdRaKfssMFws2LEgbmMe3jbz0arWo2MmrWFhd6fZPa3GmXonht50Ee8DcrLxwAyMce+M45qS0srs65feILi0dZGtktba1DoX2KWYknO0Es3r0UeuBW0yw1PT9cXUfsbsNVTdqSB0xBKOEK88gL8px1wD1yDBLoep2+lazoVpCGt9TmlaG63qFt0m5kDKTnKkuVwCDkZxzV7xDpF3PpOmafpkamKC+tWmVmA/cRurH6/dHFbV3B9qs57fds82Nk3YzjIxmspPDdpa2unfPeTPpZV4gJ2O9ljKfdY46MemPrUPheVru912/wDs1xBFcX48sXERjZtkESMcHtuVh+FQ6vpEsnikalLqjW9jJZrBJbQKfPnKuzYBHzbfm528/hRc6Vfa5cWzKp0qx08+ZZxlFLSSgEI7J0VFBOF6nPO3AqS5N/rXhyztb+zNrfXNzGs8SMcII5QzsD1AKoSD/tLWNpOjFvEK2shuoHhN7M24l+GvN0R+fK8gbh7jPUVr+HrG4NxqMh1G7VY9UkYrtjAlG1Rz8mcfTHSotU0iCXxLp32qNblr37QJy65XYI8KuP7oz+ZJ71FeaFu8V6aHjsn8y2umkYWI2k7ouWGeScnr710CN/ZGmqlxK1wykrGsUIDN6IqrxwOPoMnuaq6Zp1xHcXesakge+ukCCFCGEES5KxA9zkkk9yfQCsDRrexk8WWtpo1tdxWWlC5lnE8LxpFLLsCxpuA4xvOBwAfetXUZLr+0L9bY3cz2tr53MMYVmOSsSMYzngH1xkVWtbG5hkmtrFbxBc27X0UkyRAGRmy0b/uzsOSPXqeOOZTA+peEbDTwLxjemMSC9wZUjDBnDkAfwgrn1I9aqs+p6dL4ga40ljps14ZJJR+8eSIxRq2yMHJA2nJzn0DdKk0nV73RbrT/AAxqNpOXWUwQ32wmKeFY2KMWHAf5VUqe5yMg1cuHni8crLHZzTp/ZhUmPaAD5vqxA7VLr9zdTeHdSiXSrvc9pKo5iPJQ9g+au2lnBc6RZRXlskuyJDslQHa23HQ965/X4NIOt6LpsWnILhr4SFRZEK0axvuO/btIGRnnuK6JdG0tZ47hdNtBNCcxyCBdyH1BxkVRW11U+NGulvpf7KWy2NbMgCebuBBU9TxnPpwOecbdQ3N1DaReZMxAPCqqlmY+gUck+wrk9c0y+vdO1LWbm1k+0NHHFbWkY8x4oVkV2yFzl2IyQM8Ko5xWo3iaKfULC2sbTUZRNOVmZtPmjWNNjfMWdQAN23vnmq0Vjc3niLxDCsj20M5t1eVQQzL5fIQ9jz17fXkTazpmmaabHWf3tmukxtH/AKLCz7oNhHlsqgnaDhunG3tmrHg+GW38F6LDNG0ckdhCrowwVOwZBHrWzRRRRRRRRRRVN9SiTWYtK8uQyy27zhwBtCqyqc85zlh2qCTxDpaRs6XDXGxmUraxPOwIJBG1ATnIIq5ZXa31nFcpFNEJBnZPEY3X2KnkGp6KqzahDBMYnS4LAA5S2kdfzCkVVTxDYzWklzbJd3KIXXEVpKSzKSrKPl65BH1rQglE8EcwR0DqGCyKVYZ7EHoaraTqUer6ZFfxRyRpLnCyYyMEjsT6VdqrJqmnwyNHLf2yOpwytMoI+ozVOw8S6Ze2zSvcxWzJI8bJNKgIKkgkHOCpxkHuKv2d5bahaR3dnPHPBKNySRtlWH1qeiiiiiiiiiiiiiiiiiiiiiiiiiiiiiiiiiiiiiiiiiiiiiiiiiiiiiiiiiiiiiiiiiiiiiiuKks73VvHCR6kXt4kt5nSKJwGaJZovLBZTkZZN3XPb1FRWUl/YS+GrefT7uKVri6eWNZI/nLJI5Bw+DgnPPpXZWc81xAXns5bR9xHlyMjHAPB+UkcjnrViiqUkuooXbyLQRqSQzXDD5fU/JxXL+BNT1G60eS3is7ddjG4DyTN8wnZpgcbfR/Wunt7a6m0+KPVZUNwvLvaO8SsfUYOcY7EmuGtLcR6BozRy3AE2lXlwVM7lSCgKnaTjo/pW3DbQxXvhWRFIeRHLncfmPkHrU+r3Y1K7hj06eb/AIl98ReeUswEg8lhs3Rg5IZ0JGf4faoZ4p5bqykVruJLe5WWXDXjb1APy4K4PJHX0rodO1C31WxjvbXzDDLkoZI2QkZxnDAHB6g9xVqiiiiiiiiiiiiiiiiiiiiiiiiiiiiiiiiiiiiiiiiiiiiiiiiiiiiiiiiiiiiiiiiiiiiiiuautDm1LUrrWGWSK5QxR2O2Ty2VY2LEseyuWIIwcqBxniqMehTQeINNtDp808YluLu+v32+XO8kbIRjORywAXHCjvg1qf2Nf/8ACMX+k3V5NdmTzI7aVJdkoiP3Azn+IZwW5yB3NaWj2L6Zo1lYS3D3L20CRNM55kIABP41drH1WC71uJ9NiV7ayk+S5uG+V3T+JIx156FjjAPGeopRC90XXtSeHRLq6tblYfJa1aEKoVNpUh3UjGPTFSxHWdR0CW3uLSSxuruaWMFpFdoYWY4YlSRuCEAAE847ZxUn0zVLi6uQ2nQ21rY6ZNaWQin3+eZAmMDA24EYHPcntzVi30vVVutAedoXjskYTBE2lCYto53HPPHAqTWLI6lHDpdlZmKBr2Oe7lMfloAkgkbGcbmYrjjI5JJ9YbuxbTfE8F/a6PLc2zWUkDi28vKsXQjIZhwQD0z0q9C2p6not0stvJp1w7usKyOA2zPyklCduRxkcjrVjSbW5tIJVuWA3ylo4xM0oiXAG3ewBPIJ6cbsdBV+iiiiiiiiiiiiiiiiiiiiiiiiiiiiiiiiiiiiiiiiiiiiiiiiiiiiiiiiiiiiiiiiiiiiiiiiiiiiiiiiiiiiiiiiiiiiiiiiiiiiiiiiiiiiiiiiiiiiiiiiiiiiiiiiiiiiiiiiiiiiiiiiiiiiiiv/2Q==;" parent="1" vertex="1">
          <mxGeometry x="-260" y="1080" width="360" height="387.44" as="geometry" />
        </mxCell>
        <mxCell id="CCDfUm1BeuJQhzfp21ur-52" value="" style="endArrow=classic;html=1;rounded=0;" parent="1" edge="1">
          <mxGeometry width="50" height="50" relative="1" as="geometry">
            <mxPoint x="-390" y="940" as="sourcePoint" />
            <mxPoint x="-280" y="1320" as="targetPoint" />
            <Array as="points">
              <mxPoint x="-390" y="1320" />
            </Array>
          </mxGeometry>
        </mxCell>
        <mxCell id="5HuBDbQTRqG2gb_1eEh5-2" value="&lt;h1 style=&quot;margin-top: 0px;&quot;&gt;寄存器说明&lt;/h1&gt;&lt;p&gt;1. 在8086处理器上，如果要用寄存器来提供偏移地址，只能使用寄存器&lt;br&gt;BX、SI、DI、BP，不能使用其他寄存器。这是硬性规定&lt;/p&gt;&lt;p&gt;2.INTEL处理器不允许将一个立即数传到段寄存器：&lt;/p&gt;&lt;p&gt;&lt;span style=&quot;white-space: pre;&quot;&gt;&#x9;&lt;/span&gt;mov es,0x0008&amp;nbsp; ; 这个写法是不合法的&lt;br&gt;&lt;/p&gt;&lt;p&gt;&lt;span style=&quot;white-space: pre;&quot;&gt;&#x9;&lt;/span&gt;支持的写法：&lt;/p&gt;&lt;p&gt;&lt;span style=&quot;white-space: pre;&quot;&gt;&#x9;&lt;/span&gt;mov 段寄存器, 通用寄存器&lt;br&gt;&lt;/p&gt;&lt;p&gt;&lt;span style=&quot;white-space: pre;&quot;&gt;&#x9;&lt;/span&gt;mov 段寄存器, 内存单元&lt;br&gt;&lt;/p&gt;" style="text;html=1;whiteSpace=wrap;overflow=hidden;rounded=0;" parent="1" vertex="1">
          <mxGeometry x="600" y="1000" width="390" height="270" as="geometry" />
        </mxCell>
      </root>
    </mxGraphModel>
  </diagram>
</mxfile>
